<?xml version="1.0" standalone="no"?>
<!DOCTYPE svg PUBLIC "-//W3C//DTD SVG 1.1//EN" "http://www.w3.org/Graphics/SVG/1.1/DTD/svg11.dtd" >
<svg>
<metadata>
Created by FontForge 20110222 at Mon Mar  7 13:23:57 2011
 By www-data
Copyright (c) 1992 Miles Inc. All rights reserved.
</metadata>
<defs>
<font id="GaramondMacronbyPaulKennett" horiz-adv-x="986" >
  <font-face 
    font-family="Garamond Macron"
    font-weight="400"
    font-stretch="normal"
    units-per-em="2048"
    panose-1="2 2 5 0 0 0 0 0 0 0"
    ascent="1638"
    descent="-410"
    x-height="877"
    cap-height="1424"
    bbox="-211 -533 2316 2094"
    underline-thickness="105"
    underline-position="-355"
    unicode-range="U+0020-2122"
  />
    <missing-glyph />
    <glyph glyph-name="quotedbl" unicode="&#x22;" horiz-adv-x="872" 
d="M678 1348q1 -30 -11 -113l-36 -250q-6 -40 -9 -54l-5 -12q-3 -8 -24 -8q-5 0 -4 0l-27 1q-9 5 -11 16l-50 323q-12 78 -12 90v8q0 37 29 65t66 28h2q89 0 92 -94zM377 1348q1 -30 -11 -113l-36 -250q-6 -40 -9 -54l-5 -12q-3 -8 -24 -8h-5l-26 1q-9 5 -11 16l-11 71
l-40 252q-11 69 -11 87v8q0 39 28 67.5t67 28.5h2q89 0 92 -94z" />
    <glyph glyph-name="numbersign" unicode="#" 
d="M928 892q0 -6 -1 -8l-27 -78l-9 -20l-9 -8l-10 -3h-135l-59 -189h133l14 -3l4 -13q0 -10 -5 -21l-28 -81l-5 -11l-6 -5q-2 -2 -3 -2h-2h-143l-141 -469q-5 -8 -11 -9l-15 -2h-48h-2q-13 0 -13 13v2v3q0 4 2 10l140 452h-258l-144 -470q-4 -6 -9 -8l-12 -2h-50l-12 1
l-5 12l3 15l137 452h-140l-10 4q-4 2 -4 8v2v3q0 3 1 5l3 9l22 78q8 27 34 27h135l58 189h-127q-3 -1 -5 -1q-9 0 -15 10l-2 8q-1 2 -1 4q0 5 3 10l21 78q7 27 25 27h141l138 454q1 11 6 15l12 4h62l8 -3q5 -5 6 -12q0 -5 -2 -11l-5 -15l-133 -432h260l144 464q4 9 19 9h52
q6 0 10 -4l3 -8l-4 -18l-136 -443l129 -1q21 -1 21 -18zM649 775h-260l-57 -189h258z" />
    <glyph glyph-name="dollar" unicode="$" 
d="M877 407q0 -201 -171 -325q-73 -53 -146 -74l-28 -8v-108q0 -25 -21 -25h-32h-2q-23 0 -23 25v108h-12q5 0 -20 1q-117 5 -205 62q-36 24 -70 63q-40 47 -40 94v2v2q0 70 70 71h2q47 0 97 -68q87 -120 178 -138v557l-44 22q-74 37 -134 79q-146 102 -146 255v4
q0 125 87 220t210 122l27 6v106l2 20l6 5l13 2h36l12 -2q9 0 9 -23v-108q40 -2 53 -4q93 -12 179 -70q90 -60 89 -136q-1 -83 -67 -84q-48 -1 -119 102q-52 75 -108 96l-27 7v-454l51 -28q150 -83 207 -144q87 -94 87 -232zM454 846v419l-28 -7q-134 -33 -134 -182v-2
q1 -131 137 -213zM715 335q-1 163 -136 243l-47 28v-517q86 13 137 87q47 69 46 159z" />
    <glyph glyph-name="percent" unicode="%" horiz-adv-x="1669" 
d="M1585 331q0 -148 -89 -252q-94 -109 -239 -109h-2q-146 0 -236 108q-84 101 -84 250t88 255q94 113 240 113q141 0 235 -114q87 -106 87 -251zM1194 1339q-1 -5 -5 -14l-605 -1318q-9 -21 -18 -32l-8 -5h-64l-19 2q-5 1 -6 5l-2 9v2q0 4 2 8l4 10l609 1322q5 11 15 21
q6 5 13 5h58l12 -1l10 -4zM728 989q0 -146 -89 -251q-94 -110 -238 -110h-2q-144 0 -235 108q-86 102 -86 248v4q0 148 89 254q93 112 239 112q141 0 235 -114q87 -106 87 -251zM1421 329q1 55 -9 115q-30 188 -154 188q-88 0 -129 -106q-29 -74 -30 -180v-10q0 -55 13 -127
q31 -175 148 -175h2q85 0 130 113q28 70 29 182zM564 990q0 102 -29 186q-41 116 -134 114q-157 -3 -159 -285v-10q0 -59 13 -128q33 -175 147 -175h2q84 0 130 115q29 75 30 183z" />
    <glyph glyph-name="ampersand" unicode="&#x26;" horiz-adv-x="1707" 
d="M1662 243q-1 -12 -9 -25l-18 -29q-36 -58 -74 -93q-109 -100 -282 -102h-6q-152 0 -239 134q-27 42 -51 93q-16 34 -33 81l-50 -65q-43 -56 -94 -113q-137 -154 -318 -154h-6q-157 0 -270 118t-113 276v10q0 131 73 236q55 80 198 178q28 19 67 43l-60 41
q-127 87 -127 241v4q0 61 29 120q40 81 120 127.5t172 47.5h4q106 0 188 -64q88 -70 88 -173q0 -149 -156 -255q-29 -19 -61 -38l79 -47q56 -33 141 -116q73 -70 135 -163l27 -40l118 174l31 51q65 108 66 170q0 60 -47 77q-27 10 -96 12l-17 4l-4 19v34l2 13l4 6q7 5 24 6
q28 -1 117 -7q74 -5 118 -5h40q42 0 115 5l102 7q5 0 13 -1l6 -3q5 -4 5 -14v-45q0 -5 -2 -9l-4 -6q-3 -2 -16 -4l-50 -6q-85 -10 -180 -136l-44 -58l-261 -353q17 -38 28 -55q61 -121 109 -169q73 -74 180 -74h10q126 0 198 86l26 31q7 9 14 10l11 -4l20 -13l7 -7
q2 -4 3 -9zM689 1145q0 70 -37 123q-42 61 -109 60q-131 -1 -131 -168q0 -124 116 -207l42 -30q77 67 102 130q17 42 17 92zM908 375l-29 57q-67 131 -230 256q-29 22 -100 70l-49 33l-65 -54q-174 -145 -174 -323q0 -123 79 -206t202 -83q123 1 238 112q47 46 79 82z" />
    <glyph glyph-name="quotesingle" unicode="'" horiz-adv-x="569" 
d="M377 1348q1 -30 -11 -113l-36 -250q-6 -40 -9 -54l-5 -12q-3 -8 -24 -8h-5l-26 1q-9 5 -11 16l-11 71l-40 252q-11 69 -11 87v8q0 39 28 67.5t67 28.5h2q89 0 92 -94z" />
    <glyph glyph-name="parenleft" unicode="(" horiz-adv-x="607" 
d="M654 -475q0 -4 -1 -5l-7 -9l-21 -20l-17 -12l-21 14l-50 50q-114 114 -202 271q-171 306 -172 720v6q0 577 341 937q22 24 68 67l27 22l14 7l5 1l6 -3l10 -12l17 -27q2 -5 3 -13q0 -12 -10 -22l-24 -24q-99 -99 -184 -294q-70 -161 -99 -333q-22 -130 -22 -285v-14
q0 -190 29 -350q40 -222 135 -408q75 -147 165 -247q9 -10 10 -17z" />
    <glyph glyph-name="parenright" unicode=")" horiz-adv-x="607" 
d="M443 539q0 -622 -374 -996l-50 -50l-21 -14l-17 12l-21 20l-7 9q-1 1 -1 3v2q0 6 10 17q151 168 239 425q41 121 61 230q29 158 29 350q0 169 -22 299q-28 168 -100 333q-85 196 -183 294l-24 24q-10 8 -10 20v2q0 8 3 13l17 27l10 12q3 2 7 3q3 0 5 -1l13 -7l27 -22
q20 -16 68 -67q341 -360 341 -934v-4z" />
    <glyph glyph-name="asterisk" unicode="*" 
d="M695 1366q0 -28 -29 -75l-102 -165q-13 -20 -27 -20h-2q-34 0 -34 35v2l4 25l18 172q10 99 83 102h2q58 0 85 -58zM904 1038q1 -88 -69 -89h-2q-23 0 -77 16l-162 48q-30 9 -30 35q1 29 30 35l25 5l150 24q38 6 60 6q74 0 75 -80zM454 1100q-1 -9 -8 -19l-11 -10l-9 -3
q-6 0 -45 12l-187 56q-51 19 -51 69v4q0 35 24 64.5t59 30.5h2q29 0 70 -40l131 -129q21 -21 25 -30v-5zM695 730q1 -32 -26.5 -54.5t-59.5 -22.5h-2q-73 1 -84 102l-21 196q0 40 34 39q14 0 28 -21l12 -18l90 -147q29 -47 29 -74zM454 995q-1 -10 -25 -34l-156 -153
q-18 -17 -43 -17h-2h-2q-34 0 -58 28t-24 63v2v2q0 57 94 86l187 56l8 -2l13 -12q6 -5 8 -14v-5z" />
    <glyph glyph-name="plus" unicode="+" horiz-adv-x="1669" 
d="M1355 460q0 -23 -23 -23h-435v-430q0 -28 -23 -28h-84q-24 0 -24 26v2v430h-434q-24 0 -24 23v84v2q0 22 24 22h434v430v2q0 26 24 26h84q23 0 23 -28v-430h435q23 -2 23 -24v-84z" />
    <glyph glyph-name="comma" unicode="," horiz-adv-x="531" 
d="M418 9q2 -217 -216 -332l-34 -18q-9 -5 -17 -5q-13 0 -17 12l-14 25q-4 7 -4 14q0 10 15 18l34 18q11 6 48 33q93 68 93 144q0 59 -49 79l-52 21q-84 34 -84 106v4v2q0 45 33 78t78 33q78 0 137 -79q48 -64 49 -153z" />
    <glyph glyph-name="hyphen" unicode="-" horiz-adv-x="531" 
d="M481 422l-3 -17q-4 -9 -27 -9h-385q-24 0 -27 9l-3 17v94l3 17q1 4 4 6l28 2l403 -2l4 -6l3 -17v-94z" />
    <glyph glyph-name="hyphen" unicode="&#x2010;" horiz-adv-x="531" 
d="M481 422l-3 -17q-4 -9 -27 -9h-385q-24 0 -27 9l-3 17v94l3 17q1 4 4 6l28 2l403 -2l4 -6l3 -17v-94z" />
    <glyph glyph-name="period" unicode="." horiz-adv-x="531" 
d="M392 94q0 -50 -37 -87t-87 -37h-2h-2q-52 0 -88 36t-36 88v2v4q0 50 37.5 86t87.5 36h2q50 0 87.5 -37t37.5 -87v-2v-2z" />
    <glyph glyph-name="slash" unicode="/" 
d="M927 1560q0 -5 -4 -13l-7 -20l-749 -1553q-4 -8 -11 -9l-19 -2h-73q-9 0 -10 1l-6 4q-3 3 -3 10v2q0 5 10 26l745 1556q9 12 42 12h65l13 -2l7 -10v-2z" />
    <glyph glyph-name="zero" unicode="0" 
d="M910 664q0 -87 -7 -156q-15 -147 -69 -286q-98 -252 -337 -252h-4q-194 0 -303 181q-83 139 -104 357q-9 93 -9 170v20q0 469 221 624q89 63 202 62q234 -1 338 -267q71 -182 72 -453zM821 680q0 197 -62 333q-84 184 -263 184q-163 0 -253 -151q-77 -129 -77 -324v-18
q0 -204 65 -353q84 -194 262 -194h4q131 0 218 118q73 98 94 241q12 81 12 164z" />
    <glyph glyph-name="one" unicode="1" 
d="M821 19l-2 -22q-1 -9 -18 -9h-15l-90 6q-90 6 -152 6q-39 0 -155 -6l-116 -6h-4q-18 0 -18 9v0l-2 16v33l2 15l5 6q4 3 18 3q100 2 135 27q45 33 45 127v955l-62 -43l-73 -48q-22 -14 -58 -35q-12 -7 -17 -7h-2l-8 3l-7 9l-13 27q-4 5 -5 15v3v1q0 6 13 15l81 54
q134 89 239 196q15 15 33 15h22l12 -3q4 -3 6 -6l1 -35v-1131q0 -73 25 -100t100 -34l51 -5h2q27 0 27 -18v-33z" />
    <glyph glyph-name="two" unicode="2" 
d="M915 164l-3 -12l-10 -18l-67 -119q-15 -27 -40 -27h-4l-50 3h-92l-231 9q-42 2 -185 -5l-153 -7q-17 -1 -24 5l-5 7l-2 17v34l2 16q3 9 22 23l48 45l59 58q93 91 181 193q129 149 200 263q96 154 96 312q0 113 -54 181q-64 80 -169 80q-108 1 -199 -90l-49 -49
q-18 -18 -28.5 -32.5t-18.5 -19.5q-1 -1 -3 -1h-2l-10 3l-18 10l-10 10v2q0 8 9 19l17 26q94 144 204 214.5t216 69.5q165 -2 246 -136q56 -93 56 -198q0 -171 -123 -353q-95 -141 -299 -349q-94 -95 -141 -135l-60 -51h133q44 0 154 2l165 3q64 1 137 7l75 6h11
q19 -4 19 -14v-2z" />
    <glyph glyph-name="three" unicode="3" 
d="M842 518q1 -209 -165.5 -378.5t-375.5 -169.5h-4q-81 0 -133 20q-84 32 -84 93v2v2q0 66 79 66h4h2q38 0 103.5 -47t122.5 -47h2q126 0 213 124q74 105 74 242q0 148 -90 228q-56 49 -135 50q-31 0 -54 -8q-11 -4 -25 -4h-6l-9 11l-10 22l-4 14v2q0 8 19 21l23 16
q69 48 137 133q51 64 51 136q0 79 -62 129q-58 46 -139 47q-48 0 -93 -17q-37 -14 -56 -31l-27 -24q-15 -13 -20 -13h-2h-5q-8 1 -12 5l-15 11q-10 5 -10 13v2q0 9 9 21l21 28q30 40 61 67q115 100 261 100h2q94 0 170 -65q80 -68 79 -160q-1 -90 -69 -177l-48 -61l-38 -47
l32 -14q225 -98 226 -342z" />
    <glyph glyph-name="four" unicode="4" 
d="M919 452l-2 -12l-5 -6q-5 -4 -15 -4h-183v-429q0 -23 -8.5 -27t-33.5 -4h-86l-28 3q-4 2 -4 6l-2 17v434h-180q-63 0 -140 -9q-112 -13 -143 -13h-8q-13 0 -19 11l-11 20q-4 7 -4 14v2q0 6 9 19l576 860q8 14 13.5 17t20.5 3h38l19 -5l2 -13l-10 -217q-1 -22 -1 -43v-510
h173l28 -5l4 -28v-81zM552 566v516l-333 -505l10 -9l15 -2h308z" />
    <glyph glyph-name="five" unicode="5" 
d="M874 483q0 -208 -188 -368q-170 -144 -378 -145h-6q-68 0 -125 22q-83 32 -83 92q0 3 0 2q1 32 26.5 53.5t57.5 20.5q46 -1 105 -47l40 -31q30 -23 81 -23h8q126 0 219 117q80 100 81 244q2 166 -117 258q-79 61 -167 61q-82 0 -167 -27l-41 -13q-19 -6 -25 -6h-3l-12 2
q-10 5 -10 30l3 34l69 557q1 28 9 33l6 3l24 2h483l26 -8l-9 -26l-47 -100q-13 -28 -42 -28h-394l-29 -311l77 12q51 8 109 8q267 0 378 -240q41 -89 41 -178z" />
    <glyph glyph-name="six" unicode="6" 
d="M918 390q0 -169 -108 -292q-112 -128 -279 -128h-12q-95 0 -184 53q-243 145 -243 490v6q0 237 122 447q117 202 321 337q33 22 106 67q7 4 20 11l16 3l5 -4q5 -7 8 -13l16 -33q4 -8 6 -18q-1 -7 -10 -14l-24 -14q-141 -82 -262 -263q-117 -175 -142 -343l-9 -61l36 32
q111 99 286 100q153 1 245 -106q86 -101 86 -257zM756 357q0 116 -64 201q-70 95 -182 96q-113 1 -204 -81q-20 -18 -42 -49l-7 -35q-3 -15 -3 -57q0 -161 51 -246q76 -126 208 -127h4q101 0 176 98q63 82 63 200z" />
    <glyph glyph-name="seven" unicode="7" 
d="M945 1333q-1 -12 -9 -26l-21 -37l-723 -1287q-7 -13 -19 -13h-2q-6 0 -20 8l-48 28q-15 7 -15 19v2q0 5 7 17l632 1126q1 3 1 7q-2 15 -18 15h-614q-28 0 -31 9l7 28l43 92q11 23 21 29q14 4 31 4h698q68 0 77 -11z" />
    <glyph glyph-name="eight" unicode="8" 
d="M857 339q0 -152 -111.5 -260.5t-263.5 -108.5q-137 0 -244 85q-117 93 -117 223v2q0 211 214 345l43 27l-35 29q-203 168 -203 351v2q0 148 113 251q109 99 259 99h2h4q132 0 224 -82q104 -92 104 -215v-2q-1 -176 -213 -332l-42 -31l48 -36q218 -163 218 -347zM684 1046
q0 95 -49 166q-58 83 -145 83h-2q-80 0 -135 -64q-51 -61 -51 -142q1 -154 181 -287l57 -42q20 18 42 40q101 104 102 246zM695 266q0 185 -228 325l-39 24q-23 -15 -34 -25q-111 -101 -111 -271v-8q0 -102 57 -174q62 -78 161 -78q85 0 140 62q54 59 54 145z" />
    <glyph glyph-name="nine" unicode="9" 
d="M886 886q-1 -269 -146 -494q-140 -217 -353 -338l-138 -78q-11 -6 -16 -6h-2q-10 0 -13 14l-10 29q-5 14 -5 23q1 8 13 17l17 10q141 83 286 264q135 169 175 367l11 55l-44 -38q-52 -45 -104 -69q-69 -32 -149 -32h-10q-151 0 -242 105q-87 99 -87 252v4q0 229 192 350
q100 63 212 63q138 0 246 -87.5t143 -222.5q25 -95 24 -188zM724 946q0 53 -14 110q-24 99 -84 164q-69 74 -163 75h-2q-102 0 -172 -91q-58 -75 -58 -190q0 -117 58 -203q69 -102 177 -102h2h3q125 0 220 115q13 15 26 35q7 57 7 87z" />
    <glyph glyph-name="colon" unicode=":" horiz-adv-x="531" 
d="M393 699q0 -50 -37 -87t-87 -37h-2h-2q-52 0 -88 36t-36 88v2v2q0 52 37 88t89 36q50 0 88 -37t38 -87v-2v-2zM392 94q0 -50 -37 -87t-87 -37h-2h-2q-52 0 -88 36t-36 88v2v4q0 50 37.5 86t87.5 36h2q50 0 87.5 -37t37.5 -87v-2v-2z" />
    <glyph glyph-name="semicolon" unicode=";" horiz-adv-x="531" 
d="M390 699q0 -50 -37 -87t-87 -37h-2h-2q-52 0 -88 36t-36 88v2v2q0 52 37 88t89 36q50 0 88 -37t38 -87v-2v-2zM418 9q0 -49 -14 -99q-34 -117 -137 -191q-40 -29 -65 -42l-34 -18q-9 -5 -17 -5q-7 0 -10 3l-7 9l-14 25q-4 7 -4 14v2q0 6 4 9l11 7q29 12 82 51
q93 69 93 144q0 59 -49 79l-52 21q-84 34 -84 106v4v2q0 45 33 78t78 33q78 0 137 -79q48 -64 49 -153z" />
    <glyph glyph-name="less" unicode="&#x3c;" horiz-adv-x="2048" 
d="M1637 -9l-1225 544v144l1225 556v-160l-1024 -468l1024 -455v-161z" />
    <glyph glyph-name="equal" unicode="=" horiz-adv-x="1669" 
d="M1352 584q0 -23 -24 -23h-993q-24 0 -24 23v85q0 23 24 23h993q24 0 24 -23v-85zM1352 322q0 -23 -24 -23h-993q-24 0 -24 23v85q0 23 24 23h993q24 0 24 -23v-85z" />
    <glyph glyph-name="greater" unicode="&#x3e;" horiz-adv-x="2048" 
d="M1637 540l-1225 -549v162l1014 461l-1014 456v165l1225 -547v-148z" />
    <glyph glyph-name="question" unicode="?" horiz-adv-x="759" 
d="M648 863q1 -313 -338 -313h-26l-17 -187q-2 -4 -6 -5l-13 -3h-26l-11 2l-5 5q-3 6 -4 24l-10 332l42 2q114 5 202 63q105 69 105 177q0 97 -67 185q-71 92 -164 101l-65 6q-127 12 -127 102v4q0 45 35.5 75.5t81.5 30.5q173 -2 310 -244q102 -181 103 -357zM372 94
q0 -50 -37 -87t-87 -37h-2h-2q-52 0 -88 36t-36 88v2v5q0 50 37 85.5t87 35.5h2h2q50 0 87 -37t37 -87v-2v-2z" />
    <glyph glyph-name="at" unicode="@" horiz-adv-x="1679" 
d="M1646 665q1 -121 -44 -242q-64 -173 -202 -289q-157 -132 -322 -132q-127 0 -149 98l-8 36l-44 -33q-111 -83 -234 -83h-2h-6q-110 0 -180.5 74.5t-70.5 202.5v4q0 253 195 486q156 187 337 187h2q136 0 205 -101l32 -47l42 112h185l-275 -662q-25 -60 -25 -100v-8
q0 -54 61 -54q65 -1 164 75q72 55 128 130q116 156 115 341q-1 239 -187 399q-177 153 -420 154q-309 2 -563 -244t-254 -568v-4q0 -277 229 -433q207 -141 483 -141h4q165 0 315 52q120 42 280 155l70 -44q-69 -55 -106 -81q-271 -189 -589 -189h-12q-345 0 -586 204
q-224 190 -224 470v2q0 372 276 656q265 272 639 272q299 0 513 -175q227 -187 228 -480zM1086 758q-1 135 -127 136q-37 0 -69 -16q-53 -27 -95 -76q-154 -182 -218 -403q-30 -103 -30 -160v-8q0 -58 37.5 -94.5t95.5 -36.5h8q94 0 170 102q56 75 111 190q118 247 117 366z
" />
    <glyph glyph-name="A" unicode="A" horiz-adv-x="1555" 
d="M1507 10q0 -6 -2 -11l-4 -6q-6 -5 -15 -5h-2q-13 0 -108 10q-19 2 -79 2q-51 0 -151.5 -6t-150.5 -6h-5q-15 0 -18 11l-2 16v32q-1 2 -1 4q0 4 3 8l4 6q5 4 19 5q128 6 128 59v0q-1 21 -8 37l-17 41l-137 353h-476l-116 -341q-14 -47 -14 -66q2 -76 106 -81l38 -2
q29 -2 29 -25v-27l-3 -20q-4 -10 -25 -10h-4l-117 7l-117 5q-23 1 -101 -5l-92 -7h-7q-11 0 -15 5l-5 7l-2 16v31l3 12l6 7q6 4 20 4q135 1 172 93l28 70l23 65l379 1064l105 72l18 8l11 -14q6 -13 16 -38l494 -1235q31 -70 130 -81q14 -1 38 -4l15 -3l5 -4q4 -7 4 -22v-31z
M926 644l-219 573l-194 -573h413z" />
    <glyph glyph-name="B" unicode="B" horiz-adv-x="1252" 
d="M1166 378q0 -190 -165 -299q-149 -99 -340 -91l-98 4q-196 8 -187 8q-65 0 -112 -2l-117 -5q-23 -1 -50 -3q-22 -2 -26 -2h-7q-17 0 -22 12l-3 14v31l3 12q6 12 22 13l49 2q88 4 114 38q21 27 22 120l1 71l-3 941q-2 63 -65 86q-36 13 -113 14h-6q-13 0 -17 4l-5 6l-2 13
v35q0 24 30 24q26 0 74 -7q35 -5 157 -5h30q46 0 132 4l172 8q68 3 153.5 -25t153.5 -89q108 -97 109 -223q1 -225 -259 -292q-27 -7 -88 -21l108 -27q151 -38 236 -115q119 -108 119 -252v-2zM843 1069v2q0 114 -76.5 191t-190.5 78q-83 1 -118 -37q-28 -30 -28 -119v-388
l41 -4l63 -3h6q65 0 127 21q112 38 156 149q20 51 20 110zM959 389q-1 116 -78 202q-72 81 -197 105q-47 9 -99 9q-40 0 -86 -6q-27 -3 -69 -11v-401q0 -123 38 -165q46 -50 161 -50h6q141 0 233 88.5t91 228.5z" />
    <glyph glyph-name="C" unicode="C" horiz-adv-x="1517" 
d="M1443 371l-2 -17l-6 -24q-4 -16 -21 -102l-22 -113q-3 -16 -10 -26q-9 -13 -23 -19l-52 -23l-82 -31q-122 -46 -283 -46h-12q-288 0 -516 159q-315 220 -315 580v2q1 230 126 402q68 94 171 166q234 164 517 163q234 -1 411 -87l39 -19q19 -9 21 -35l2 -25l8 -89l13 -95
l4 -20q1 -5 1 -12q0 -8 -4 -11l-10 -5l-25 -5q-4 -1 -8 -1h-5q-14 0 -19 9l-4 10q-121 302 -427 301q-318 0 -492 -247q-112 -159 -112 -384v-6q0 -247 123 -415q184 -252 527 -252q159 0 259 76q59 45 105 127q29 52 40 99q5 23 16 30l7 2l14 -1l30 -2l9 -2l5 -4z" />
    <glyph glyph-name="D" unicode="D" horiz-adv-x="1631" 
d="M1526 710q0 -329 -237 -531q-224 -191 -558 -191h-4q-41 0 -112 4l-107 6l-135 2l-129 -2l-138 -7q-21 -3 -33 -3q-6 0 -5 0q-24 1 -25 23l-4 29l-1 11l3 11q6 6 18 8l27 4l40 4q120 12 122 216l1 90v712q0 83 -4 124q-10 102 -94 102h-4q-1 0 -47 -5l-37 -4l-11 2
q-9 2 -9 19l-4 28l-1 12v2q0 15 29 19l49 6l84 8l316 27q75 6 149 6q360 0 591 -182q270 -213 270 -550zM1319 726q-2 411 -337 565q-143 66 -324 67q-111 1 -170 -40q-54 -38 -57 -161l-2 -85v-769q0 -139 69 -189q57 -42 203 -42h14q349 0 511 274q94 158 93 380z" />
    <glyph glyph-name="E" unicode="E" horiz-adv-x="1289" 
d="M1222 277q-1 -14 -6 -31l-71 -249l-6 -5q-7 -4 -27 -5q-5 0 -16 1l-419 4l-307 8l-311 -10q-9 3 -9 22v33l3 14q3 10 27 11l49 2q92 4 114 47q18 35 18 129v955q0 72 -26.5 102.5t-97.5 33.5l-61 3q-26 1 -26 17v40l3 13q5 12 31 12h4q30 0 60 -2q150 -10 280 -10h166
l271 9q90 3 159 3q43 0 61 -2l6 -3q3 -3 4 -6l2 -19v-225q0 -29 -3 -41.5t-17 -12.5h-2q-2 0 -12 2l-24 5l-12 4q-5 2 -7 23l-4 57q-6 85 -133.5 104t-277.5 18q-95 0 -128 -28q-36 -30 -36 -123v-392q38 -4 67 -5l91 -2q155 -3 208 38q32 25 60 103q8 23 31 23h34
q21 0 22 -31q1 -25 -5 -75q-7 -53 -7 -78v-40q0 -60 7 -134l5 -53q0 -20 -12 -22l-15 -3h-31l-16 3q-12 2 -13 25q-6 89 -35 122q-32 36 -119 37l-112 1l-97 -3l-63 -3l1 -463v-4q0 -79 35 -108q30 -25 112 -26l179 -3q70 -1 156 3q67 3 93 17q21 11 65 70q19 39 65 112
q9 9 19 11q6 -1 23 -5l25 -8z" />
    <glyph glyph-name="F" unicode="F" horiz-adv-x="1214" 
d="M1116 1126q-3 -11 -15 -11h-34q-21 0 -24 23l-8 55q-15 101 -112 121q-71 15 -179 14l-133 -1q-83 -1 -121 -12q-43 -13 -55 -56q-6 -22 -6 -83v-390q56 -4 100 -5l112 -2q135 -2 170 3q108 16 120 89l7 44q4 25 26 25h42q5 0 10 -2l5 -3q4 -4 4 -15v-5l-12 -175
q-5 -71 7 -173l5 -43q-1 -18 -9 -22l-10 -3h-42q-22 0 -26 25l-7 41q-20 117 -134 126q-59 5 -129 4l-159 -2l-80 -4l6 -516q6 -99 133 -102l44 -1l17 -2q12 -1 12 -17q0 -5 -1 -8v-32l-3 -12l-6 -7q-6 -4 -14 -4h-16q-39 0 -99 5q-118 10 -182 7l-259 -12l-14 2q-9 4 -9 19
v42l2 7l7 6q9 5 25 6l37 2q96 5 118 38q20 30 21 127l1 77v797q0 69 -1 84q-2 23 -6 59q-10 79 -115 85l-57 3h-4q-28 0 -28 26v37l2 10q4 11 31 9l50 -3l97 -7l106 -2h73q179 0 476 7l212 5q27 1 30 -13l3 -21z" />
    <glyph glyph-name="G" unicode="G" horiz-adv-x="1631" 
d="M1584 574l-2 -17l-5 -7q-5 -5 -25 -5q-75 -2 -103 -27t-30 -99l-1 -41v-237q0 -40 -13 -58q-41 -44 -241 -86q-129 -27 -247 -27h-18q-248 0 -464 129q-102 61 -174 143q-166 190 -167 453v8q0 292 213 501q66 64 153 114q216 124 458 124q163 0 304 -47q83 -28 134 -52
q41 -19 51 -36q4 -7 5 -26l2 -27l12 -198v-2q0 -14 -12 -14h-2h-36q-23 0 -25 18l-8 29q-26 95 -128 174q-43 34 -100 57q-98 40 -200 40q-76 0 -150 -21q-204 -58 -334 -230t-130 -384q0 -132 53 -265q70 -175 224 -287q159 -116 344 -117h4q104 0 197 41q138 61 132 271
l-2 65q-2 80 -74 97q-40 10 -132 14l-64 3l-15 3l-6 3l-3 6q-2 6 -2 13v37q0 7 3 12l7 6l15 2l113 -5l188 -7l158 5l121 7l14 -2q3 -2 5 -6l3 -12v-33z" />
    <glyph glyph-name="H" unicode="H" horiz-adv-x="1745" 
d="M1697 16l-3 -15q-6 -12 -29 -13l-75 5q-111 7 -197 7q-121 -1 -191 -6l-77 -6h-18l-6 3q-4 2 -4 6l-2 21v27l3 13q3 12 28 12q22 0 59 3q113 8 119 153q2 52 2 69v426h-863v-464q0 -27 3 -62q11 -125 161 -125h8q39 -1 39 -21v-31l-3 -18q-4 -13 -33 -12l-64 3l-209 9
l-253 -12q-32 -1 -37 13l-3 14v27l2 13q4 14 35 15l45 2q122 5 127 116q2 41 2 60v953q0 78 -32 108q-30 27 -110 31l-41 2q-28 1 -28 31v30l2 11l5 6q6 5 21 4l80 -5q112 -7 182 -7h36q81 0 179 7l70 5q13 1 20 -3l5 -6l2 -12v-30l-2 -19l-5 -7q-6 -5 -23 -5q-33 -1 -70 -6
q-106 -16 -110 -144q-1 -36 -1 -44v-343h863v353q0 82 -17 116q-22 44 -97 59q-28 3 -57 7q-40 7 -40 25v35l3 14q2 11 27 10l48 -2l220 -10q100 -5 228 8q41 4 48 4h4q21 0 22 -10l2 -17v-29l-2 -17q-1 -4 -4 -6l-19 -3l-46 -2q-58 -3 -93 -22q-39 -22 -42 -80l-4 -71
l-1 -50v-889q0 -84 17 -110q27 -42 99 -45l65 -3q30 -1 30 -27v-27z" />
    <glyph glyph-name="I" unicode="I" horiz-adv-x="683" 
d="M646 9l-3 -10l-8 -7q-7 -4 -16 -4h-4q-46 0 -138.5 6t-138.5 6q-45 0 -134.5 -6t-134.5 -6h-5q-4 0 -7 1l-6 3q-5 2 -5 7l-2 19v23v2q0 24 29 27q7 1 58 1q119 1 122 106l2 78v896q0 36 -2 76q-3 61 -27.5 84t-87.5 28q-23 1 -57 3l-26 2l-6 3q-6 2 -6 14q0 5 1 9v33
l3 12q2 4 7 7l14 2l118 -6l155 -6l276 12q16 1 22 -3l5 -6l2 -12v-33l-2 -17q-1 -11 -25 -11l-65 -1q-62 -1 -93 -24q-22 -16 -24 -89l-2 -77v-919q0 -86 12 -109q21 -41 121 -49l49 -4q29 -2 29 -26v-35z" />
    <glyph glyph-name="J" unicode="J" horiz-adv-x="759" 
d="M685 1360q0 -18 -22 -18h-2q-105 -1 -144 -33q-43 -36 -43 -138v-1094q0 -105 -11 -185q-12 -90 -56 -174q-98 -189 -294 -189q-82 0 -145 34q-76 41 -76 118v2q0 44 28 73.5t72 29.5h2q63 0 93 -79l18 -48q17 -46 67 -46q108 -1 118 268l4 108v1181q0 82 -20 122
q-23 45 -107 49h-45q-35 2 -37 13l-2 12v31l3 16q4 12 39 11l84 -3q41 -1 99 -6q49 -3 63 -3h9l282 12l19 -3l4 -25v-36z" />
    <glyph glyph-name="K" unicode="K" horiz-adv-x="1479" 
d="M1457 7l-2 -9q-5 -10 -21 -10h-4q-28 0 -103 5q-118 9 -171 7l-313 -12l-21 3l-4 24v31l2 13l4 6q4 4 20 5l65 3q78 4 78 43v2q0 28 -48 91l-36 47l-375 479l-99 -101l1 -378q1 -85 16 -117q26 -57 95 -63l72 -6q19 -2 24 -8l3 -18v-30q0 -27 -22 -26l-118 7
q-84 5 -146 5q-2 0 -194 -8l-96 -4h-6t-8 1l-6 3q-4 2 -4 6l-2 18v30v4q-1 18 24 20l95 7q89 7 91 163l1 83v833q0 39 -1 70q-2 66 -38 91q-24 17 -98 23q-23 2 -40 2h-10q-9 0 -13 1l-6 3q-6 3 -6 13q0 5 1 9v29l2 18q1 3 4 6l5 2q8 1 17 1l259 -12q75 -3 171 5q79 7 120 7
h2q16 0 20 -11l2 -13v-33q0 -5 -2 -10l-4 -7q-7 -6 -27 -8q-34 -3 -61 -7q-106 -15 -113 -118q-1 -18 -3 -56l-1 -54v-348l475 504q26 30 26 46q0 28 -49 30l-40 2h-16q-13 0 -18 1q-19 0 -19 25v34l3 17l6 4q4 2 8 2h4q26 0 86 -9q20 -3 78 -3h34q138 0 167 4q59 8 79 8
q23 -2 23 -26v-37q0 -12 -5 -14l-5 -3l-16 -2l-60 -3q-98 -5 -160 -73l-33 -36l-341 -361l540 -687q16 -20 44 -50q44 -46 102 -52l62 -6l31 -4q13 -2 17 -5l3 -5q2 -6 2 -9v-44z" />
    <glyph glyph-name="L" unicode="L" horiz-adv-x="1252" 
d="M1203 278l-4 -20l-62 -224q-9 -34 -21 -42q-6 -4 -16 -4h-9q-41 0 -119 5q-82 5 -120 5l-274 2l-211 -2l-291 -10q-11 -1 -14 2l-5 6l-2 16v36q0 20 29 22l36 3l60 7q72 8 80 94q4 43 5 118l1 87l-1 835q0 112 -102 124q-22 1 -66 4l-31 2l-6 3q-6 2 -6 13q0 5 1 9v32
l3 13l6 7q4 3 16 3q3 0 21 -1q23 -2 43 -3l112 -5q67 -3 88 -3h11l125 4q98 3 119 7q6 1 26 1q17 0 24 -4l5 -5q2 -6 3 -17v-30l-2 -12q-4 -13 -30 -14l-53 -2q-83 -3 -109 -57q-12 -25 -15 -126l-2 -66v-753q0 -86 11 -136q16 -72 84 -97q44 -16 135 -20q22 -1 49 -1h35
q80 0 152 3q130 5 190 141q30 69 53 69q10 0 14 -1l18 -5l12 -6q4 -3 4 -7z" />
    <glyph glyph-name="M" unicode="M" horiz-adv-x="1858" 
d="M1802 15l-2 -18q-1 -4 -3 -5l-28 -4h-52h-3q-31 0 -102.5 6t-107.5 6q-75 0 -131 -4l-76 -6l-59 -2q-31 -1 -35 11l-3 16v31q-1 2 -1 4q0 5 3 9l4 6q6 4 25 5h6q86 0 125 26q49 31 49 113v66l-21 976l-513 -1259q-10 -21 -25 -22q-8 0 -15 7q-10 11 -16 25l-16 40
l-445 1084l-21 -940q-1 -55 16 -80q13 -19 75 -31q26 -5 40 -5h6q43 0 43 -10l2 -12v-37q0 -7 -2 -13l-4 -6q-4 -4 -15 -4h-4l-80 5q-112 7 -146 7q-40 0 -150 -8l-55 -4h-6q-18 0 -24 12l-3 10v37l2 11l5 6q8 6 29 6h14q54 0 79 6q78 10 82 147l2 76l19 876q0 28 -5 58
q-18 99 -148 106l-56 3q-9 0 -13 3l-6 5q-4 4 -4 15v38l3 12l6 6q7 4 23 3l53 -3l107 -9q37 -3 126 6l59 6q25 0 36 -25l20 -45l443 -1071l432 1090q11 29 19 39t43 12l150 -12l190 12q23 -1 28 -8l3 -12v-32l-2 -17l-5 -7q-6 -6 -21 -6h-4q-18 -1 -35 -1h-20
q-118 -3 -116 -91l2 -73l25 -984q5 -81 50 -104q34 -17 119 -19q22 0 29 -4l5 -6l2 -12v-33z" />
    <glyph glyph-name="N" unicode="N" horiz-adv-x="1745" 
d="M1709 1375l-3 -26l-26 -7l-59 -5q-65 -5 -87 -20q-31 -20 -33 -79l-2 -66l-1 -82v-1033q0 -117 -25 -117h-2l-9 2q-7 3 -15 13l-46 53l-1034 1195v-946q0 -21 2 -55q4 -70 30.5 -96.5t97.5 -31.5l54 -4q27 -2 27 -19v-39l-2 -15l-5 -6q-3 -3 -13 -3h-5l-126 7l-115 5
l-104 -4l-120 -8h-2q-26 0 -26 25v31l2 13q3 11 26 13l82 7q101 9 101 123v1057l-23 23q-61 61 -189 62h-9q-8 0 -11 1l-6 3l-5 7l-2 18v27l3 13q4 10 29 13l110 -9q37 -3 74 -3h26l129 12h2q29 0 45 -18l22 -25l936 -1081l-1 910q-1 89 -24.5 106t-113.5 23l-42 3
q-18 1 -23 5l-4 7l-3 19v31v2q0 18 24 18h4l85 -7q61 -5 117 -5h45q57 0 143 7q61 5 79 5q10 -1 15 -3l4 -5q2 -4 2 -8v-2v-31z" />
    <glyph glyph-name="O" unicode="O" horiz-adv-x="1745" 
d="M1651 742q0 -238 -150 -440q-159 -214 -416 -296q-113 -36 -234 -36h-6q-282 0 -497 180q-161 135 -223 322q-33 99 -33 198v6q0 318 239 548q226 218 561 218q312 0 526 -195q233 -212 233 -505zM1444 680q0 225 -102 400q-113 194 -318 255q-77 23 -163 23
q-92 0 -173 -25q-260 -80 -343 -335q-46 -141 -46 -268v-6q0 -244 148 -442q171 -228 436 -228h2q256 2 414 188q145 171 145 438z" />
    <glyph glyph-name="P" unicode="P" horiz-adv-x="1214" 
d="M1129 1005q1 -95 -55 -188q-76 -127 -256 -179q-64 -19 -105 -20l-57 -2q-90 -3 -90 29v2v26l2 14q4 13 34 13h8q6 0 32 2q31 2 53 6q47 8 91 32q133 73 136 256v6q0 158 -98.5 257t-256.5 99q-129 0 -134 -72l-3 -46l3 -1056q6 -112 114 -112q3 0 2 0l63 -2l18 -4l8 -7
q3 -5 3 -20v-33l-3 -9q-5 -9 -27 -9h-4l-266 12l-279 -12h-4q-19 0 -19 24v32l3 14q5 12 28 12h10q82 0 119 19q51 27 51 101l-1 1023q-1 122 -81 123l-45 -4l-24 -3q-32 -4 -37 -4h-8q-3 0 -5 1l-5 3q-6 2 -6 11q0 5 1 9v22q0 19 30 24l89 14l117 15q143 18 264 18
q203 0 325 -57q70 -33 131 -90q133 -125 134 -290z" />
    <glyph glyph-name="Q" unicode="Q" horiz-adv-x="1745" 
d="M1646 732q0 -233 -149 -427q-158 -205 -439 -301l55 -104q102 -194 167 -235q108 -69 280 -69h26l25 -5l2 -17v-43v-2q0 -22 -41 -22h-23q-30 0 -74 2q-336 15 -471 199q-40 54 -85 131l-77 131q-142 11 -234 37q-215 60 -369 251q-149 185 -149 415v4q0 184 91 351
q89 162 242 270q207 145 464 144q308 -1 529 -200q230 -206 230 -510zM1439 676q0 287 -148 469q-174 213 -434 213h-2q-82 0 -167 -25q-265 -78 -346 -331q-45 -141 -45 -283v-6q0 -117 39 -230.5t106 -203.5q167 -225 433 -225h8q172 0 310 96q69 48 119 114
q127 168 127 412z" />
    <glyph glyph-name="R" unicode="R" horiz-adv-x="1441" 
d="M1419 14l-2 -15q-1 -11 -21 -11h-6q-15 0 -54 4l-79 8l-60 -5q-12 -1 -18 -1h-12q-49 0 -76 19q-15 10 -31 34l-51 74l-256 396q-24 38 -61 84q-67 84 -137 100q-35 8 -94 8h-25v-465q0 -83 17 -112q27 -46 106 -55l64 -7l20 -5l4 -19v-29l-3 -19l-4 -7q-3 -3 -11 -3h-4
l-133 9q-44 3 -129 3q-101 0 -164 -4l-126 -8q-14 -1 -21 5l-5 6l-2 12v29l2 16l4 7q7 6 24 7l61 4q101 7 114 98q6 42 6 76v925q0 92 -21 121q-34 47 -111 47h-23q-19 0 -27 1h-4q-8 0 -14 4l-8 7q-3 3 -3 15v25l3 17q2 13 28 14q32 -2 98 -9q28 -3 69 -3h51q79 0 183 5
q146 7 181 7q62 0 113 -7q133 -18 227 -108q100 -96 101 -226q1 -131 -116 -230q-61 -52 -173 -90l-56 -19l39 -18q41 -23 82 -80l38 -52l213 -326q39 -59 54 -80q35 -48 64 -72q25 -20 59 -30q15 -4 48 -11l41 -5q24 -3 25 -11l2 -15v-30zM892 1060q1 122 -94 201
q-78 65 -213 67h-6q-71 0 -101 -17q-40 -24 -41 -89l-1 -48v-373q63 -8 104 -8h19q88 0 183 38q149 59 150 229z" />
    <glyph glyph-name="S" unicode="S" 
d="M897 398q-2 -218 -177 -337q-54 -36 -125 -61q-87 -30 -167 -30h-14q-67 0 -134 18l-89 24l-55 18q-26 8 -29 34l-11 86l-24 144v2q0 12 15 15l28 6q6 1 13 1q20 -1 33 -44q15 -51 50 -97q94 -123 235 -123h4q114 1 199 78t86 190q1 112 -124 213q-69 56 -117 81l-150 78
q-157 82 -209 179q-39 73 -39 171q0 192 133 299q122 99 319 99q71 0 138 -15q108 -24 124 -54l3 -24l12 -210q1 -6 1 -12q-1 -17 -21 -19l-27 -3h-3q-17 0 -24 21l-11 34q-64 197 -236 198q-77 0 -140 -39q-67 -42 -93 -112q-13 -35 -13 -69v-6v-2q0 -133 135 -222
q42 -28 141 -78q216 -110 296 -216q68 -90 67 -216z" />
    <glyph glyph-name="T" unicode="T" horiz-adv-x="1403" 
d="M1349 1488q0 -2 -0.5 -5t-2.5 -9q-11 -32 -26 -152q-17 -133 -17 -152q0 -3 0 -2l-1 -32q0 -10 -3 -14t-7 -5l-12 -2h-37l-11 3l-6 5l-2 14q0 57 -1 72q-2 22 -5 47q-9 66 -109 70l-51 2h-259l1 -1135v-4q0 -69 35 -94q28 -20 102 -23l53 -2l15 -4l3 -6q2 -10 2 -18v-32
l-2 -13l-5 -6q-5 -3 -15 -3h-11q-41 0 -134 7q-74 6 -128 5q-60 -1 -126 -4l-154 -8h-6q-6 0 -10 1l-5 2q-4 2 -4 6l-2 17v25l2 18q0 12 26 13l60 3q113 6 118 110l4 85l1 52v1008h-236q-144 0 -195 -72q-25 -35 -33 -74l-10 -48q-4 -19 -24 -19h-35l-10 2q-6 2 -6 16v8
l16 174l4 87q3 65 3 60v10q0 18 3 22l5 4l13 2h35l15 -2l7 -5l15 -33q20 -44 140 -47l45 -1h727q13 0 29 1q101 6 131 59q10 18 16.5 23t18.5 5h34q22 -2 22 -12z" />
    <glyph glyph-name="U" unicode="U" horiz-adv-x="1669" 
d="M1631 1365q0 -7 -2 -13l-4 -6q-4 -3 -21 -4l-45 -2q-69 -3 -94 -19q-39 -25 -41 -83l-4 -144v-344q0 -100 -1 -141q-2 -88 -9 -162q-14 -147 -54 -225q-51 -98 -160 -164q-146 -88 -363 -88h-4q-487 0 -549 354q-16 91 -16 241l-2 678q-2 85 -127 97q-21 2 -40 2h-2
q-40 0 -40 27v30q0 16 11 23l15 2l126 -7l147 -5l142 4l104 6q35 2 32 2l15 -2q10 -1 10 -20v-41q0 -12 -5 -14l-19 -5l-42 -2q-75 -4 -93 -12q-51 -24 -51 -125v-12l-1 -73l3 -537q9 -267 76 -360q93 -129 335 -130h10q399 0 441 329q8 66 11 156l4 137v448q0 99 -36 138
t-134 43h-11q-20 0 -23 3l-5 6l-2 12v38v3q0 5 2 10l4 6q3 4 22 4h9l61 -2l148 -10h15q58 0 151 7q67 5 83 5q13 0 17 -3l4 -5l2 -13v-38z" />
    <glyph glyph-name="V" unicode="V" horiz-adv-x="1479" 
d="M1445 1363q0 -18 -21 -21q-24 -3 -54 -7q-53 -8 -79 -65q-21 -45 -29 -66l-45 -113l-427 -1098q-10 -23 -25 -23h-2q-15 0 -28 30l-17 38l-447 1123q-8 21 -28 64q-48 105 -128 112l-58 5q-24 2 -25 20q0 3 1 6v33l3 13q1 9 20 10l85 -6q85 -6 186 -6q40 0 118.5 6
t116.5 6q20 0 20 -16v-35v-2q0 -26 -22 -29l-52 -6q-74 -9 -74 -67q0 -37 41 -139l14 -35l325 -828l330 893q26 71 28 106v2q0 62 -82 69l-56 5q-28 2 -28 21v35l2 14q3 14 48 12l54 -2q35 -1 78 -6q39 -4 48 -4h13q-11 0 109 8l60 4q13 1 20 -4l5 -6l2 -14v-37z" />
    <glyph glyph-name="W" unicode="W" horiz-adv-x="2010" 
d="M1986 1372q0 -7 -2 -17l-2 -5q-3 -5 -21 -8q-66 -12 -89 -36q-46 -46 -100 -188l-50 -130l-60 -162l-185 -488q-23 -61 -78 -227l-38 -115q-12 -26 -30 -26h-26q-8 0 -13 3l-8 7q-1 1 -11 23l-241 539l-254 -565q-6 -7 -14 -7h-30l-17 15l-9 19q-16 43 -56 145
q-78 197 -158 385q-63 148 -162 375l-156 354q-19 41 -46 61q-19 12 -77 18l-20 2q-4 1 -6 4l-3 6q-2 7 -2 14v31l2 16q0 11 25 9l182 -12l232 12l6 -3l4 -22v-37q0 -14 -5 -16l-17 -4q-80 -4 -80 -44v-2q0 -16 10 -40l28 -68l402 -951l178 414l-245 562q-29 64 -54 87
q-28 27 -92 42q-23 3 -23 23v32l2 18q1 3 4 6l5 2q9 1 18 1l43 -2l145 -10l217 12l18 -2q3 -1 5 -3l4 -22v-29q0 -24 -21 -26l-59 -5q-48 -4 -48 -36q0 -18 16 -48q2 -4 29 -68l132 -311l136 295l27 69q11 27 10 44q-1 49 -76 54q-18 1 -23 6q-4 2 -4 5v2l-2 18v30l3 18
q1 8 19 9l158 -12q49 -4 110 6q43 6 50 6h5l6 -3q3 -3 4 -6l2 -16v-28l-2 -19q-1 -4 -4 -6l-18 -4q-102 -3 -135 -79l-21 -48l-199 -444l222 -534l365 998q12 35 12 51q-1 47 -60 53l-31 3l-11 4q-8 2 -8 22v33l3 13q1 12 27 10l160 -12h14q26 0 69 5q49 6 68 7q5 0 13 -2
l7 -4q5 -8 5 -18v-28z" />
    <glyph glyph-name="X" unicode="X" horiz-adv-x="1555" 
d="M1517 13q0 -19 -13 -23l-19 -2l-40 2l-86 7q-30 2 -107 3q-73 0 -203 -6q-10 0 -41 -4q-26 -2 -41 -2h-8q-26 0 -29 9l-2 19v28l3 12q6 12 27 14l43 4q69 6 69 54q0 3 0 2q-1 20 -11 41l-25 39l-48 64l-249 330l-269 -361q-53 -72 -54 -103v-2q0 -45 80 -62q29 -3 64 -11
l4 -6l2 -14v-32l-2 -13q-4 -13 -30 -12l-89 4l-150 8h-6q-14 0 -134 -7l-86 -5q-28 -2 -28 28v29l2 12l6 7q6 5 25 6q133 4 201 83l62 72q16 19 52 67l291 392l-342 482q-110 156 -234 171l-40 5q-23 3 -23 25v27l2 16l4 7q6 7 28 7q2 0 47 -2l230 -10h10q13 0 117 4
q28 2 80 5l57 3l19 -2q10 -1 10 -20v-32l-3 -16q-4 -11 -26 -12l-60 -3q-62 -3 -62 -44v-2v-4q0 -34 42 -91l30 -41l230 -327l296 407q20 29 21 54v2q0 41 -77 46q-13 1 -36 3l-19 7l-3 24v25l3 15q2 11 24 11h4l31 -2l218 -10h8q-18 0 118 8l68 4h3q17 0 21 -11l2 -14v-27
l-2 -17l-5 -7q-6 -5 -21 -6l-61 -5q-103 -8 -175 -92q-24 -28 -61 -74q-5 -6 -34 -46l-271 -371l419 -572q17 -22 40 -46q59 -61 184 -66q20 -1 25 -11l3 -16v-30z" />
    <glyph glyph-name="Y" unicode="Y" horiz-adv-x="1479" 
d="M1448 1372l-3 -18q-3 -11 -23 -12q-98 -7 -153 -74l-66 -81l-358 -488v-496q0 -114 116 -126l68 -7q27 -3 27 -24v-30q-1 -10 -3 -17l-7 -8q-4 -3 -14 -3h-5l-156 8l-128 4q-33 1 -119 -4l-137 -8q-27 1 -30 11l-3 16v27q0 28 27 28q85 0 127 18q51 22 54 111l3 96v381
l-427 590q-50 65 -109 70l-72 6q-24 2 -29 14l-3 13v28l3 16q2 11 20 11h3q20 0 133 -8q56 -4 141 -4h66q47 0 73 3q78 9 117 9q29 0 29 -29v-34q0 -5 -2 -10l-4 -6q-3 -3 -13 -3h-5l-56 -3q-80 -4 -80 -42q0 -21 21 -51l38 -55l24 -31l272 -368l336 471q8 16 9 30v0
q0 40 -72 45l-63 4q-27 2 -27 13l-2 17v29l3 14l6 7q6 1 22 2l213 -12q79 -4 126 4t68 8q22 0 24 -23v-29z" />
    <glyph glyph-name="Z" unicode="Z" horiz-adv-x="1365" 
d="M1279 271l-2 -14l-37 -112q-22 -67 -34 -116q-7 -29 -30 -29h-1034q-72 0 -72 22v2q1 14 14 30l41 52l869 1222l-617 -2q-70 -1 -107 -29q-32 -24 -67 -92q-16 -32 -40 -72q-11 -18 -19 -18h-1q-6 0 -19 5l-23 9q-5 1 -9 7q-4 3 -4 9v2l4 17q10 26 17 53l30 109
q14 50 22 94l11 59q4 19 22 21h21q21 0 42 -28q46 -60 163 -60h790q15 0 36 -3l14 -6q4 -4 4 -9v-1q0 -8 -14 -28l-23 -33l-891 -1248h444q149 0 227 19q89 22 162 128l35 51q10 14 16 15l19 -3l25 -6l10 -5q5 -5 5 -12z" />
    <glyph glyph-name="bracketleft" unicode="[" horiz-adv-x="607" 
d="M543 -381h-476v1793h476v-101h-215q-109 0 -109 -61v-1441q0 -18 1 -27q1 -57 63 -60l45 -2h215v-101z" />
    <glyph glyph-name="backslash" unicode="\" 
d="M933 -20q0 -17 -19 -17h-2h-73q-30 0 -41 24l-747 1573q0 14 27 14h80q12 0 22 -9q7 -11 14 -25l729 -1530q4 -9 10 -26v-4z" />
    <glyph glyph-name="bracketright" unicode="]" horiz-adv-x="607" 
d="M538 -381h-476v101l259 2q55 2 63 61l2 46l-2 1422q-2 60 -102 60h-220v101h476v-1793z" />
    <glyph glyph-name="asciicircum" unicode="^" horiz-adv-x="1024" 
d="M924 993l-68 27q-52 20 -144 79.5t-147 109.5q-25 23 -53 53l-54 -53q-128 -126 -290 -189l-69 -27v94l78 62q182 145 268 353l14 34h105l13 -33q80 -204 269 -354l78 -62v-94z" />
    <glyph glyph-name="underscore" unicode="_" horiz-adv-x="1024" 
d="M1024 -512h-1024v105h1024v-105z" />
    <glyph glyph-name="grave" unicode="`" 
d="M613 1074l-9 -11l-15 -8l-10 -3l-6 3q-8 5 -12 13l-217 291q-81 109 -81 151v1q0 33 22.5 56.5t55.5 23.5q53 0 86 -69q15 -32 44 -96l135 -328q7 -17 7 -24z" />
    <glyph glyph-name="a" unicode="a" horiz-adv-x="872" 
d="M868 121q-1 -12 -8 -24l-24 -42q-48 -85 -131 -85q-120 -1 -150 133q-3 13 -8 42l-38 -42q-25 -28 -78 -65q-96 -68 -168 -68h-4h-2q-81 0 -129 84q-41 71 -41 158v2q0 82 158 146l148 60l154 60v93l-2 72q-1 27 -13 59q-32 84 -155 84h-2q-43 0 -86 -17q-70 -28 -70 -79
v-2q0 -12 3 -21l4 -18q0 -12 -10 -18l-16 -10l-69 -40l-17 -8l-15 18q-6 15 -6 33v2q0 72 95 135l53 35l196 109l38 -4q130 -14 186 -97q40 -60 40 -209v-361q0 3 1 -39q3 -108 62 -108h2q26 0 63 35q13 12 24 12q6 -1 10 -4t5 -11zM547 220v201l-66 -29l-94 -45
q-144 -69 -146 -123q0 -16 11 -46l15 -39q19 -50 76 -50q74 1 164 91z" />
    <glyph glyph-name="b" unicode="b" horiz-adv-x="1100" 
d="M1014 473q0 -192 -140 -346q-144 -157 -334 -157q-88 0 -222 59q-20 9 -38 10h-2q-24 0 -53 -45q-16 -24 -28 -24h-2q-17 0 -17 45v1251q0 68 -10 87q-18 33 -73 45l-17 7q-8 3 -8 16v2v18q0 18 21 27l26 11l155 73l35 20l18 2l5 -6l2 -13v-754l81 45q112 62 214 61
q121 -1 220.5 -80.5t140.5 -200.5q26 -78 26 -153zM847 414v4q0 145 -78 252q-86 117 -227 118q-73 0 -166 -44q-23 -11 -44 -23v-363q0 -150 50 -214q75 -96 187 -96h6q130 0 208 123q63 100 64 243z" />
    <glyph glyph-name="c" unicode="c" horiz-adv-x="872" 
d="M831 208l-2 -6l-10 -20q-5 -11 -34 -45q-32 -38 -59 -64q-108 -103 -253 -103h-6q-42 0 -93 13q-108 28 -185 103q-120 114 -120 310v12q0 217 130 349q147 150 347 150q123 0 209 -64q52 -39 53 -93q0 -32 -19 -57q-22 -28 -49 -28h-2q-42 0 -126 102q-51 62 -124 62
q-131 1 -203 -112q-62 -97 -62 -234q0 -150 82 -263q95 -130 236 -131h2q116 0 209 93l32 32q7 7 16 12l8 2l5 -2l14 -9z" />
    <glyph glyph-name="d" unicode="d" horiz-adv-x="1062" 
d="M1051 101l-2 -17l-5 -8l-17 -8l-238 -93q-14 -5 -22 -5q-21 0 -21 58v94l-39 -31q-91 -72 -169 -101q-54 -20 -95 -20h-8q-116 0 -212 78q-91 74 -131 188q-28 79 -28 159v12q0 69 21 144q32 115 104 199q134 156 346 157q77 0 139 -19l72 -22v409q0 56 -13 83
q-17 36 -70 40q-20 2 -23 10l-2 10v22q0 18 21 28l30 15l154 79q24 11 33 12h6q18 -8 18 -55v-1338q5 -47 51 -48q20 0 45 5l28 6q4 2 10 2h4q6 -2 10 -5l3 -12v-28zM746 201v331q0 138 -60 207q-78 90 -195 90q-201 0 -257 -234q-16 -67 -16 -126v-8q0 -150 71 -251
q85 -121 221 -121h2q94 0 184 72z" />
    <glyph glyph-name="e" unicode="e" horiz-adv-x="872" 
d="M805 181q-1 -11 -11 -22l-30 -34q-137 -155 -320 -155h-4q-93 0 -177 48q-195 112 -195 367v6q0 204 114 349q131 166 322 167q132 1 222 -109q79 -96 77 -238q0 -43 -25 -43h-2h-546q-8 -50 -8 -79v-6q0 -109 62 -201q64 -95 165 -128q43 -14 78 -14h6q97 0 177 69
l44 38q13 11 24 11q5 0 11 -5l8 -7q8 -7 8 -12v-2zM636 665v2q0 70 -48 115.5t-118 46.5q-48 0 -89 -23q-55 -31 -91 -88q-28 -44 -39 -82l-12 -41l299 1q56 1 69 9q29 18 29 60z" />
    <glyph glyph-name="f" unicode="f" horiz-adv-x="645" 
d="M707 1483q-2 -86 -78 -85q-27 0 -46 13l-48 32q-19 13 -59 12q-108 -2 -108 -188v-390h207l27 -3l5 -21v-36q0 -11 -5 -13l-6 -3q-8 -2 -15 -2h-213v-596q0 -72 14 -92q21 -30 84 -36l53 -5q8 0 20 -2l5 -2l4 -7l3 -19v-28q-1 -10 -3 -17l-5 -6l-18 -1l-107 6l-131 6
q-11 0 -52 -3q-52 -5 -89 -7l-45 -2h-6q-30 0 -30 11l-2 15v29l3 14q5 11 24 13l48 6q72 9 74 72l2 55v596h-134q-28 0 -28 20v34l3 18q2 3 6 4l20 2h133v74q0 147 27 280q42 208 175 290q86 53 166 53h14q111 0 111 -89v-2z" />
    <glyph glyph-name="g" unicode="g" horiz-adv-x="948" 
d="M930 772l-3 -20l-19 -4h-162l12 -47q7 -27 7 -64q1 -132 -88 -225q-93 -98 -218 -102l-59 -2l-37 -20q-12 -6 -46 -33q-55 -43 -55 -81q1 -69 82 -79q25 -3 68 -3h26l180 2q43 1 80 -7q98 -20 159 -86q64 -69 63 -167q-1 -167 -154 -274q-115 -80 -311 -81q-61 0 -112 7
q-192 26 -249 178q-13 34 -13 65v4q0 23 7 43l13 27l50 30q40 24 79 56q26 21 47 41l-50 27q-118 64 -119 164v2q0 46 74 107l113 93l-31 15q-175 84 -175 258q0 135 110 225q104 85 241 86q107 1 223 -61q10 -5 33 -20l228 -2l6 -17v-35zM611 590q0 118 -82 194
q-50 45 -110 45q-79 0 -127 -52.5t-49 -132.5v-8q0 -95 45 -164q56 -86 145 -86h4h2q81 0 129 64q43 57 43 140zM766 -224v2q-1 109 -88 138q-50 17 -108 16q-33 0 -95 -4q-39 -2 -107 -12l-40 -25q-93 -58 -93 -133v-4q1 -91 93 -149q76 -48 171 -48h8q107 0 175 55
q84 68 84 164z" />
    <glyph glyph-name="h" unicode="h" horiz-adv-x="1138" 
d="M1085 19q0 -34 -38 -31l-39 3l-60 7l-68 2l-99 -2l-64 -5l-47 -5q-35 1 -38 12l-3 18v26l2 12l6 7q8 6 22 7l41 4q80 8 80 113v2v423q0 175 -156 176q-87 0 -184 -68q-42 -30 -77 -57v-486q0 -63 26 -86q23 -21 88 -21q26 0 34 -10l3 -20v-26q0 -25 -37 -26l-41 3l-48 6
q-24 3 -66 3q-35 0 -112 -4q-13 -1 -54 -5q-34 -3 -54 -3h-8q-13 0 -22 3l-8 5q-6 5 -6 21v30l3 11q5 10 37 12h4q103 0 105 81l2 70l-3 1066q-4 93 -82 111q-19 4 -21 13l-2 11v18q0 15 23 28l31 17l150 77q22 11 39 12q19 -2 19 -38v-782l77 53q146 101 270 100
q108 0 168 -68q56 -65 56 -174l2 -525q2 -64 117 -70q27 -1 30 -12l2 -12v-27z" />
    <glyph glyph-name="i" unicode="i" horiz-adv-x="569" 
d="M399 1392q0 -46 -33 -78t-80 -33t-78.5 31t-32.5 80v6q0 44 33.5 75.5t77.5 31.5q46 0 79.5 -33.5t33.5 -79.5zM515 11l-4 -18q-2 -3 -6 -3l-18 -2l-64 3q-54 4 -124 9l-207 -12h-4q-25 0 -26 10l-3 13v35l3 13l6 7q5 2 19 4q123 0 123 113v433q0 84 -51 103l-32 12
q-25 9 -25 22v2v19v2q0 8 4 12l20 13l13 7l181 92q15 7 22 7q16 -1 20 -21l2 -42l1 -664q2 -102 83 -107l45 -3l13 -2q3 -1 5 -3l4 -18v-36z" />
    <glyph glyph-name="j" unicode="j" horiz-adv-x="531" 
d="M373 1393q0 -46 -33 -79t-79 -33q-48 0 -80 32t-32 80q0 47 32.5 79.5t79.5 32.5q45 0 78.5 -33.5t33.5 -78.5zM367 31q0 -10 -3 -48q-7 -89 -30 -152q-59 -159 -216 -283l-51 -40q-18 -14 -23 -16l-18 -8l-13 -5l-12 8l-10 25l-2 12v2q0 7 12 16l20 15q19 14 35 29
q104 96 134 223q23 98 23 218v588q0 85 -51 103l-36 13q-21 8 -21 21v2v22q0 11 6 17l17 8l24 13l171 86q16 7 23 7h3q15 -5 16 -22l2 -43v-811z" />
    <glyph glyph-name="k" unicode="k" horiz-adv-x="1138" 
d="M1109 11l-5 -20l-19 -3l-83 5q-121 7 -163 7q-60 0 -121 -6l-70 -6q-9 0 -13 4l-5 6l-2 10v33l3 18q1 5 4 7l6 3q6 1 16 1h19q11 0 26 1q51 3 60 29l3 16q-2 32 -32 68l-35 42l-217 266l-117 -98l3 -260q7 -54 80 -60l47 -4l14 -4q3 -2 5 -5l2 -19v-36q0 -17 -24 -18h-9
q-35 0 -103 6t-101 6q-59 0 -115 -5l-72 -7h-9q-8 0 -11 1l-8 4l-3 5q-1 2 -1 6v42q0 23 21 24l45 2q79 4 82 91l3 125l-2 984q-1 36 -11 95q-16 41 -77 52l-38 7q-23 4 -23 20v23v2q0 16 21 25l31 8l181 50q7 1 45 17l16 3l11 -11v-1080l284 251q30 27 30 39q0 7 -6 15
l-13 10q-11 4 -31 6l-36 3q-27 2 -27 13l-2 18v34q0 14 25 17l92 -8q46 -4 76 -4h19q36 0 107 6t106 6l19 -2q9 -2 9 -17v-31q0 -9 -2 -21l-2 -5q-2 -3 -5 -3l-15 -3l-47 -2q-32 -1 -50 -4q-43 -6 -86 -36l-32 -22l-179 -156l353 -443q57 -72 126 -74q32 -1 32 -24v-2v-33z
" />
    <glyph glyph-name="l" unicode="l" horiz-adv-x="569" 
d="M510 12l-3 -15q-3 -9 -24 -9l-87 8q-44 4 -110 4q-71 0 -118 -4l-94 -8q-9 -1 -13 2l-5 6l-2 16v31q0 7 2 15l3 6l6 3l14 3l38 2q85 4 87 142l1 78l-3 990q-12 99 -112 116q-22 4 -27 8l-6 7l-3 12v17q2 16 26 26l52 21l167 69q55 17 46 17h2q5 0 9 -7l3 -12l1 -1343
q1 -78 11 -99q18 -38 86 -42l31 -2q5 0 15 -4l5 -4l2 -24v-26z" />
    <glyph glyph-name="m" unicode="m" horiz-adv-x="1707" 
d="M1664 15l-4 -23l-6 -3q-4 -1 -9 -1h-10q-16 0 -105 7q-64 5 -116 5q-30 0 -88.5 -6t-87.5 -6h-9q-19 0 -19 11l-2 14v32l2 15l5 6q6 4 26 4q65 1 90.5 25t26.5 88l1 88l-2 299q-3 66 -13 110q-25 109 -159 108q-77 -1 -130 -34q-40 -26 -77 -58l-36 -32l1 -449v-8
q0 -74 19 -101q24 -34 102 -36q16 0 23 -6l4 -6q2 -4 2 -8v-35l-3 -19q-3 -8 -17 -8h-9l-70 6q-75 6 -117 6q-49 -1 -131 -8q-44 -4 -73 -4h-4q-26 0 -30 13l-2 12v31l3 12q5 13 34 14h4q69 0 93 37q14 22 16 107l1 56l-2 328q-5 190 -185 190q-97 0 -192 -75l-38 -30
l1 -483v-6q0 -69 26 -96t94 -28q30 0 30 -19v-37l-2 -16q-4 -10 -19 -10h-3h-4q-9 0 -67 5q-81 7 -145 7q-33 0 -95.5 -6t-93.5 -6q-15 0 -20 5l-5 7l-2 17v32q0 13 13 19l18 2q109 0 115 90l4 59l1 56v273q0 77 -11 126q-8 37 -44 47l-35 10q-18 3 -18 23v23v2q0 7 4 12
l11 10q7 4 23 12l151 70q10 4 27.5 13.5t27.5 10.5q18 -2 18 -16v-126l38 26q100 68 172 94q62 22 124 22q140 0 205 -115l25 -44l57 43q152 115 275 116q118 1 190 -90q56 -71 56 -205l1 -439q1 -58 10 -73q15 -24 66 -27l45 -3q29 -2 29 -19v-36z" />
    <glyph glyph-name="n" unicode="n" horiz-adv-x="1138" 
d="M1087 17l-2 -17l-5 -7l-9 -4q-4 -1 -9 -1h-5h-3q12 0 -47 4l-59 4q-64 4 -84 4q-35 -1 -84 -5l-68 -6q-11 -1 -31 -1h-21q-29 0 -29 27v25l2 16l4 7q6 5 25 7l53 5q63 6 66 130l1 48v338q0 103 -24 138q-40 59 -122 59h-2q-103 0 -212 -80l-57 -42v-473q0 -112 78 -120
q28 0 67 -11l4 -7l2 -16v-24l-3 -14q-8 -16 -44 -13l-68 5q-100 7 -108 7l-70 -3q-37 -2 -71 -5q-40 -4 -54 -4h-12q-6 0 -9 1l-10 5q-5 2 -5 7l-2 18v25l3 14q2 11 28 12q77 3 100 39q20 31 20 109v394q0 97 -53 110l-36 9q-19 5 -19 20v3v27q0 8 4 13l10 7l26 11l214 95
l8 -18v-134q58 43 181 115q83 37 173 37h2q196 0 211 -183q2 -29 3 -80l1 -75v-398q0 -59 24 -78t94 -23q26 -2 31 -13l2 -14v-26z" />
    <glyph glyph-name="o" unicode="o" horiz-adv-x="1100" 
d="M1015 443q0 -140 -78 -258q-142 -214 -401 -215h-2q-188 0 -320 130t-132 318v2q0 143 73.5 262.5t201.5 179.5q96 45 201 45q265 0 395 -233q62 -112 62 -231zM848 440v4q0 151 -80 257q-96 128 -233 128h-2q-135 0 -219 -126q-65 -98 -65 -249q0 -161 69 -271
q85 -135 232 -135h2h4q80 0 143 47q148 110 149 345z" />
    <glyph glyph-name="p" unicode="p" horiz-adv-x="1100" 
d="M1011 480q1 -163 -87 -287q-107 -148 -295 -202q-73 -21 -140 -21h-6q-50 0 -96 8l-58 10l1 -310q1 -75 19 -96q22 -26 92 -30q26 0 65 -9l4 -6l2 -13v-28q0 -23 -11 -28l-17 -1l-47 3l-67 6q-34 3 -92 3q-63 0 -97 -3l-56 -5l-66 -4h-4q-25 0 -29 13l-2 14v28l2 15l5 7
q4 4 18 5l45 3q72 5 78 123l3 60l-1 870q-1 98 -67 119l-22 7q-18 6 -18 18v2v23q0 15 20 27l24 11l162 75l29 16l18 4l8 -17q1 -9 1 -23v-73l75 41q132 72 245 72q159 0 267 -137q94 -118 95 -290zM844 426q0 138 -79 246q-85 116 -221 116h-2q-92 -1 -154 -37l-59 -34
v-569l36 -22q36 -22 103 -38q52 -12 95 -12q130 1 210 115q71 102 71 235z" />
    <glyph glyph-name="q" unicode="q" horiz-adv-x="1062" 
d="M1066 -513l-3 -12q-3 -5 -6 -6l-14 -2l-108 8q-75 6 -122 4l-59 -2l-76 -8l-36 -2h-4q-28 0 -28 21v34l2 15q0 11 26 12q72 4 87 14q26 18 34 81l2 52v371l-52 -30q-46 -26 -73 -38q-69 -29 -144 -29q-171 1 -292 127t-121 297v4q0 162 102.5 301.5t257.5 186.5
q71 22 138 21q80 -1 185 -34q22 -7 36 -7h4q22 0 43 20t30 21l8 -1l17 -4l9 -5q4 -6 5 -24l1 -24v-1172q0 -22 1 -34l5 -29q17 -63 108 -65q29 -1 34 -11l3 -16v-35zM761 145l-1 355q-1 81 -4 110q-7 69 -28 103q-58 93 -203 95q-42 1 -82 -13q-132 -45 -177 -198
q-20 -68 -20 -138v-6v-2q0 -268 200 -357q56 -25 111 -25h4q83 0 143 39z" />
    <glyph glyph-name="r" unicode="r" horiz-adv-x="796" 
d="M784 801q-2 -93 -84 -93h-4q-29 0 -53 14l-29 17q-15 9 -37 8q-80 -2 -180 -121l-27 -32v-410q0 -102 94 -111l32 -3q14 -1 19 -5l4 -6l2 -13v-37l-3 -10q-6 -11 -23 -11q-30 0 -91 6t-92 6q-37 0 -106 -6t-100 -6h-6q-17 0 -22 10l-3 10v37l2 14q0 9 22 11l43 4
q62 6 76 69q8 36 8 99l-1 383v2q0 80 -63 97l-26 7q-18 3 -18 18v3v17v2q0 17 23 30l36 20l134 66l29 16q7 3 13 4v0q17 0 17 -33v-192q157 224 306 225q43 0 76 -31.5t32 -74.5z" />
    <glyph glyph-name="s" unicode="s" horiz-adv-x="721" 
d="M654 244q0 -117 -101 -198q-94 -76 -214 -76q-86 0 -182 46l-46 22q-28 13 -30 41l-2 24l-13 107q-1 3 -1 7v5q0 10 9 14l16 4l16 2q9 0 15 -8l9 -17q6 -20 15 -34q10 -22 30 -49q64 -86 176 -86h2q60 1 103 43t44 102q1 75 -92 135l-131 85q-105 68 -148 135
q-32 50 -32 106v4v2q0 117 93 186q84 61 205 61q102 0 207 -48q20 -9 20 -34v-147l-2 -12l-6 -4l-17 -4l-12 -1q-5 0 -6 3l-7 10q-8 11 -15 32l-21 43q-54 84 -161 84q-55 0 -97 -28q-48 -32 -48 -85v-2q0 -71 97 -133l96 -61l84 -57q48 -33 74 -56q73 -66 73 -161v-2z" />
    <glyph glyph-name="t" unicode="t" horiz-adv-x="683" 
d="M619 159q-1 -66 -91 -135q-70 -54 -147 -54h-6q-189 0 -204 222q-2 29 -2 55l-2 481q-3 54 -72 60l-35 3h-6q-23 0 -30 6l-4 5l-2 11v19v2q0 13 32 27q20 9 56 35l47 34l57 46l45 38l33 31l23 18l11 -14q1 -6 1 -31v-141h245l30 -3l5 -20v-32l-2 -13l-5 -6q-5 -4 -17 -4
h-256v-557q0 -13 1 -32q6 -119 114 -121h2q64 0 114 56l23 26q11 15 22 16l7 -2q13 -9 13 -26z" />
    <glyph glyph-name="u" unicode="u" horiz-adv-x="1100" 
d="M1059 94q0 -14 -4 -18l-21 -9l-244 -92q-16 -5 -20 -5q-16 1 -16 18v143l-42 -35q-151 -126 -261 -126h-10q-107 0 -181 75q-77 78 -77 214v359q0 63 -9 96q-14 51 -71 55l-40 3h-7q-14 0 -17 3l-5 6l-2 13v27l2 8q3 8 31 13l18 3l189 27q35 5 43 5l12 -2q10 -3 10 -34
v-470q0 -131 35 -194q48 -88 149 -88q100 0 195 90q11 11 38 36l-3 450q-5 104 -85 106l-36 1q-27 1 -27 17v29l2 11l5 5q11 4 35 8l240 35l14 -3q9 -3 9 -26l2 -670q2 -42 53 -42h8q14 0 36 4q26 5 36 6q16 -1 16 -17v-35z" />
    <glyph glyph-name="v" unicode="v" horiz-adv-x="1024" 
d="M1013 826q0 -5 -2 -10l-4 -6l-16 -3q-100 -2 -150 -110l-19 -41l-293 -667l-18 -19l-16 18q-5 8 -15 31l-322 729q-28 52 -69 55l-52 4q-16 1 -19 5l-5 7l-2 15v31l4 20q4 4 19 4h7l81 -7q58 -5 99 -5h16q63 0 117 6l54 6h23q5 0 10 -5l4 -6q2 -4 2 -8v-36q0 -8 -2 -15
l-4 -7q-3 -4 -15 -5l-61 -4q-40 -3 -40 -26v-2q0 -11 9 -31l14 -31l199 -497l203 453q26 58 28 83q-3 43 -51 50q-29 4 -56 5l-15 2l-5 3q-6 2 -6 13q0 5 1 9v31l3 13l6 7q6 4 18 4l74 -7q53 -5 81 -5h15q45 0 97 6l52 6l11 -1q4 -1 6 -3l4 -24v-35z" />
    <glyph glyph-name="w" unicode="w" horiz-adv-x="1555" 
d="M1529 835q-1 -10 -3 -16l-7 -8q-7 -3 -19 -4q-93 -4 -120 -53l-24 -43l-53 -107l-286 -634l-17 20l-16 39l-201 485l-244 -544l-16 21l-15 37l-284 660q-10 20 -25 49q-32 59 -84 64l-59 6q-18 2 -22 6l-5 7l-2 15v34l2 10l5 6q5 4 18 4q15 0 49 -3q129 -11 343 -9l274 3
q76 1 183 6l62 3q6 0 12 -1l6 -3q5 -4 5 -12v-41l-3 -14l-6 -7q-5 -4 -16 -4h-5l-62 -2q-56 -2 -57 -43q-1 -18 8 -37l23 -52l190 -447l197 448q20 43 20 80v2q0 45 -68 49l-32 2q-29 2 -29 25v35l2 12l5 6q5 4 21 4q9 0 47 -3l115 -9q-16 1 116 9l51 3q26 -1 26 -17v-37z
M745 595l-57 125q-5 12 -26 37q-31 38 -107 40q-68 2 -61 2l-65 -2q-64 -2 -65 -40v-4q0 -12 8 -27l22 -53l181 -440z" />
    <glyph glyph-name="x" unicode="x" horiz-adv-x="1024" 
d="M990 19l-3 -17q-2 -14 -24 -14l-45 5l-77 5q-48 3 -72 2l-104 -5q-12 -1 -44 -4q-27 -3 -43 -3h-8h-2q-33 0 -33 29v2v22l3 18q1 5 4 7l21 4l37 2q34 2 49 11l8 9l3 12q-1 19 -13 34l-24 31l-153 203l-142 -177q-34 -42 -35 -78v-2q0 -40 58 -43l43 -2l13 -3q9 -2 9 -25
v-22l-3 -21l-4 -7l-6 -3q-3 -1 -7 -1h-4q-24 0 -75 6t-77 6q-31 0 -90 -6t-87 -6h-4q-6 0 -11 2l-7 4q-6 5 -6 20v26l2 17l5 7q5 4 22 6q64 6 123 75l30 35l212 252l-221 290q-58 76 -121 81q-15 1 -36 4l-12 4q-7 2 -7 30v24l2 14l4 6q4 4 17 4l60 -7q43 -5 146 -5
q94 0 129 5q48 7 58 7h8q5 -1 9 -5l4 -6q2 -4 2 -8v-28l-2 -21q-2 -10 -25 -14l-33 -2h-4q-49 0 -49 -23v-2v-2q0 -9 12 -24l42 -53l110 -153l164 192q13 16 13 35l-2 11l-7 8q-10 6 -23 8l-41 5q-33 4 -33 32v2v25l2 12q2 11 20 11h3q29 -2 74 -7q41 -5 69 -5h12
q-15 0 120 9l45 3h3q17 0 18 -10l2 -17v-26v-2q0 -24 -28 -27l-39 -4q-54 -6 -102 -52q-23 -22 -35 -37l-188 -227l266 -352q47 -61 108 -64l22 -1l15 -2l5 -3q5 -3 5 -16v-30z" />
    <glyph glyph-name="y" unicode="y" horiz-adv-x="1100" 
d="M1075 836l-2 -19q-1 -4 -4 -6l-17 -4q-34 -2 -65 -7q-55 -9 -115 -124l-32 -61l-393 -833q-98 -212 -180 -275q-36 -28 -80 -28h-8q-92 0 -92 86v2q0 86 79 87l39 -4q10 -2 20 -2q8 0 6 0q65 1 170 211l28 56l52 114l-254 647q-18 44 -30 65q-33 58 -89 62l-60 4
q-17 1 -20 5l-4 7q-3 5 -3 11q0 3 1 6v23l2 17l5 7q6 6 22 6q31 -1 105 -7q68 -5 106 -5q78 0 126 6q61 8 81 6l23 -2l5 -4q4 -8 4 -25v-23l-2 -17l-5 -7q-5 -4 -21 -4q-98 0 -109 -24l-3 -12q0 -12 10 -38l19 -49l175 -472l234 503q13 25 13 41v2v2q0 38 -47 42l-60 5
q-24 2 -24 26v23q0 34 28 33q26 -1 83 -7q44 -5 72 -5h12l121 10l48 2l26 -4l4 -27v-22z" />
    <glyph glyph-name="z" unicode="z" horiz-adv-x="948" 
d="M929 242l-4 -18l-66 -201q-8 -23 -29 -23l-740 1q-32 1 -32 15q0 10 8 21l14 20l557 742h-259q-143 0 -195 -66q-19 -24 -28 -43l-14 -22q-8 -8 -16 -8l-14 3l-26 10l-6 5q-3 3 -3 10t5 20l13 34q8 20 25 81q7 34 26 98q6 16 31 17l20 -2q8 -5 14 -17q18 -38 79 -41
q24 -1 27 -1h526l17 -7l-5 -19l-10 -14l-557 -759l394 3q69 4 114 55q23 26 35 52l19 40q17 36 31 36l16 -4l20 -7z" />
    <glyph glyph-name="braceleft" unicode="{" horiz-adv-x="910" 
d="M768 -483l-69 14q-354 72 -355 344v6q0 62 25 182t25 181q1 117 -138 210q-36 24 -59 34l-30 13v51l30 14q28 13 59 34q137 92 138 212q1 63 -24.5 185t-25.5 184v6v2q0 275 355 347l69 14v-51q-21 -7 -42 -15q-170 -67 -172 -307q0 -53 12 -155.5t12 -153.5
q0 -96 -67 -174q-44 -52 -150 -115l-87 -52l87 -51q53 -31 97 -65q119 -91 120 -221q1 -52 -11.5 -153t-12.5 -151q0 -233 172 -303q13 -5 42 -15v-51z" />
    <glyph glyph-name="bar" unicode="|" horiz-adv-x="1024" 
d="M564 -512h-105v2048h105v-2048z" />
    <glyph glyph-name="braceright" unicode="}" horiz-adv-x="910" 
d="M742 501l-30 -13q-22 -10 -59 -34q-137 -91 -138 -211q0 -62 25.5 -184t25.5 -185q0 -271 -356 -343l-69 -14v51q18 5 42 15q173 70 173 302q0 75 -13 168q-12 86 -12 128v8v2q0 158 217 285l87 51l-87 52q-217 130 -217 291v8q0 43 12 130q13 95 13 171q0 236 -173 305
q-15 6 -42 15v51l69 -14q354 -72 356 -347q0 -65 -25.5 -189t-25.5 -187q0 -126 138 -213q20 -12 59 -34l30 -14v-51z" />
    <glyph glyph-name="asciitilde" unicode="~" horiz-adv-x="2048" 
d="M1659 655q-18 -40 -40 -77q-99 -168 -285 -168q-77 0 -166 22l-161 40l-144 40q-115 32 -183 33h-2q-113 0 -226 -96l-33 -28l-31 33l48 69q36 51 84 91q98 80 218 81q90 0 220 -37l135 -39q204 -59 287 -59h11q113 0 196 90l38 41z" />
    <glyph glyph-name="exclamdown" unicode="&#xa1;" horiz-adv-x="531" 
d="M395 780q1 -49 -35.5 -87t-85.5 -38h-5h-2q-52 0 -88 36t-36 88v2v5q0 50 37 85.5t87 35.5h2h2q49 0 86 -38.5t38 -88.5zM390 -376q1 -145 -117 -145h-10q-109 0 -111 132v6q0 21 7 86l88 811q1 4 5 6l9 2h27l8 -2q4 -3 6 -21l84 -803q4 -29 4 -72z" />
    <glyph glyph-name="cent" unicode="&#xa2;" 
d="M893 457q-1 -10 -9 -20l-27 -34q-114 -143 -237 -173l-50 -12v-197q0 -19 -4 -26l-16 -5h-35l-19 4l-4 27v197l-35 6q-123 21 -212 114q-120 126 -120 295v17q0 152 80 276q86 133 236 180l51 16l2 235q2 3 6 5l15 3h35l12 -3q8 -6 8 -32v-193h37q45 0 98 -14
q147 -39 147 -138v-2q0 -77 -66 -77h-2h-2q-43 0 -69 31l-43 51q-33 39 -71 54l-29 6v-700h58q96 9 183 96l39 39q7 7 16 8q4 0 6 -1l6 -6l10 -14q5 -7 5 -13zM492 369v676l-23 -6q-91 -24 -141 -124q-41 -82 -41 -182v-4q0 -234 153 -328z" />
    <glyph glyph-name="sterling" unicode="&#xa3;" 
d="M971 1198q1 -37 -24.5 -66t-62.5 -29h-2h-4q-79 0 -83 84l-3 58q-3 67 -79 66q-83 -2 -134 -84q-56 -90 -79 -180l-38 -152q-19 -75 -35 -167l-20 -113l-12 -76h148l15 -2q10 -1 10 -20v-35l-3 -17q-2 -5 -4 -6l-17 -2h-156l-11 -63q-12 -66 -34 -170q-23 -107 -39 -161
l-59 -202l54 -10q74 -14 123 -33l127 -50l91 -30q88 -29 133 -29h4q31 0 59.5 23t28.5 54v2q0 31 -74 74q-69 41 -69 88v2q0 28 24 50t52 22q63 0 111 -67q40 -56 40 -127q-1 -171 -194 -233q-60 -19 -110 -19h-12q-112 0 -242 95l-126 92l-42 24l-29 -51
q-83 -146 -191 -148h-4q-29 0 -50.5 22t-21.5 51q1 58 65 117q43 39 122 64q21 6 56 15l15 60q26 103 37 256l14 191l4 91h-132q-22 0 -28 5l-4 6l-2 14v31l2 15l5 6q8 5 32 5h134l7 89q7 84 16 170q18 165 56 280q46 139 168 228q105 77 232 78q89 1 161 -47
q82 -54 84 -139z" />
    <glyph glyph-name="currency" unicode="&#xa4;" 
d="M860 733q0 -143 -101.5 -244.5t-245.5 -101.5q-145 0 -245 100t-101 245v4q0 85 47 170q96 174 299 174q143 0 245 -102t102 -245z" />
    <glyph glyph-name="yen" unicode="&#xa5;" 
d="M977 1374q0 -27 -19 -32l-30 -8q-37 -10 -61 -67l-32 -75l-209 -477v-86h210q13 0 19 -4l3 -5l2 -8v-46q0 -5 -2 -10l-3 -5q-4 -4 -15 -4h-214v-115h210q14 0 19 -3l5 -12v-47l-4 -16l-5 -3q-4 -1 -9 -1h-216v-103l2 -57q4 -113 128 -120q29 -2 31 -13l2 -15v-33l-3 -12
l-6 -6q-6 -3 -18 -3h-11q-12 0 -62 3l-149 9q-48 3 -147 -7q-59 -5 -82 -5q-15 0 -21 5l-5 6l-2 12v32l3 13q5 13 33 14q72 4 97 28.5t28 95.5l2 53v103h-211q-23 0 -23 20v42l2 11q3 9 21 9h211v115h-215q-20 0 -20 13q0 3 1 6v40l4 19l19 4h211v45l-224 491q-3 5 -21 49
q-47 116 -110 123l-43 5l-9 3q-8 3 -8 20v35l2 14l4 6q5 5 18 4l70 -6q70 -6 121 -6h14q31 0 81 5q61 6 81 7q24 -2 24 -26v-28l-2 -14q-4 -11 -36 -14q-57 -5 -57 -43v-2v-2q0 -20 20 -65l29 -65l175 -386l186 434q28 65 27 86q-1 31 -40 37l-40 6q-13 2 -18 5l-8 7
q-4 3 -4 16v25q0 28 22 29q8 0 22 -2q61 -10 132 -10h15q19 0 45 5q34 6 44 7q5 0 8 -1l6 -4q5 -9 5 -23v-22z" />
    <glyph glyph-name="brokenbar" unicode="&#xa6;" horiz-adv-x="1024" 
d="M564 564h-105v919h105v-919zM564 -460h-105v919h105v-919z" />
    <glyph glyph-name="section" unicode="&#xa7;" 
d="M851 1289q0 -40 -28.5 -68.5t-68.5 -28.5h-2q-52 0 -89 38l-68 70q-36 37 -85 36q-29 0 -56 -14q-42 -21 -42 -97v-4q0 -112 47 -219q27 -62 112 -196q187 -295 246 -507q25 -89 25 -190q0 -356 -292 -480q-87 -37 -175 -37h-10q-98 0 -168 39q-99 55 -100 133v2
q0 42 26.5 70t68.5 29h2q72 0 133 -79l45 -58q23 -30 68 -30h2h2q43 0 67 28q39 46 39 111q1 119 -74 257q-103 163 -286 502q-70 154 -70 318q0 318 253 462q116 66 244 66q78 0 146 -37q88 -48 88 -116zM736 59q1 212 -182 517l-133 221q-48 80 -83 188q-19 59 -19 106v6
v2q0 74 50 195q-39 -39 -56 -60q-87 -108 -87 -256v-12q0 -50 13 -103q22 -91 65 -185q58 -128 106 -210l131 -224q47 -81 81 -181q21 -62 21 -129v-4q0 -78 -31 -151l-25 -59q148 132 149 339z" />
    <glyph glyph-name="dieresis" unicode="&#xa8;" 
d="M819 1229q0 -47 -32.5 -80t-79.5 -33q-48 0 -80.5 31.5t-32.5 80.5q0 48 32 80.5t80 32.5q46 0 79.5 -33t33.5 -79zM402 1229q0 -47 -32.5 -80t-79.5 -33q-48 0 -80.5 31.5t-32.5 80.5q0 48 32 80.5t80 32.5q46 0 79.5 -33t33.5 -79z" />
    <glyph glyph-name="copyright" unicode="&#xa9;" horiz-adv-x="1024" 
d="M1156 1053q0 -130 -64 -242t-174.5 -176t-237.5 -64h-8q-128 0 -240 64.5t-173 175.5q-65 119 -65 242q0 201 139 340.5t341 139.5q129 0 241.5 -64t176.5 -175.5t64 -240.5zM1083 1053q0 109 -54.5 203.5t-149.5 148.5q-98 55 -204 55q-170 0 -289 -119t-119 -289
q0 -171 118.5 -289.5t289.5 -118.5q169 0 288.5 120t119.5 289zM896 971l-4 -37q-18 -170 -199 -170h-4h-2q-166 0 -232 164q-24 59 -24 125v12q0 116 73 205q77 94 174 94q49 0 110 -28q13 -6 20 -6h2q12 0 23 14l14 18h40v-217l-40 -7l-22 62q-10 29 -29 58
q-38 59 -100 59q-137 0 -137 -259v-6q0 -241 148 -241h8q112 0 135 127l6 33h40z" />
    <glyph glyph-name="ordfeminine" unicode="&#xaa;" 
d="M842 800q0 -15 -13 -33l-20 -28q-39 -54 -89 -54h-2q-98 0 -116 117q-22 -21 -36 -31q-59 -51 -128 -72q-45 -14 -80 -14q-8 0 -6 0q-55 1 -92 58q-34 50 -34 108q0 64 157 125l64 25l142 48v135q0 64 -29 78q-49 23 -94 22q-118 -2 -118 -56v-31q-1 -8 -4 -12.5
t-13 -11.5l-52 -33q-13 -8 -22 -8l-9 2l-8 7q-7 9 -7 23v4v2q0 55 73 102l42 27l158 85q50 -6 69 -9q35 -8 65 -23q81 -42 81 -163v-2v-317q0 -68 29 -83l9 -2q15 0 42 23q13 11 24 11q6 -1 11 -3q5 -5 6 -14v-2zM589 869v129l-126 -52l-40 -18q-54 -24 -54 -57v-2v-4
q0 -31 19 -55.5t49 -24.5h2h4q21 0 40 10l38 20q40 21 68 54z" />
    <glyph glyph-name="guillemotleft" unicode="&#xab;" horiz-adv-x="872" 
d="M807 142l-11 -16l-12 -13l-9 -6l-6 -1h-2q-7 0 -20 11l-320 280q-20 18 -20 36v2q0 23 22 44l31 29l281 246q22 19 27 19v0h1q6 0 17 -10l13 -12l7 -9q1 -3 1 -6v-2q0 -5 -10 -17l-220 -274zM475 142l-11 -16l-12 -13l-9 -6l-6 -1h-2q-7 0 -20 11l-320 280q-20 18 -20 38
q0 25 54 73l279 246q20 18 27 19h1q6 0 17 -10l13 -12q9 -8 9 -15v-2l-11 -17l-218 -274z" />
    <glyph glyph-name="logicalnot" unicode="&#xac;" horiz-adv-x="1669" 
d="M1354 234q0 -14 -5 -22l-6 -4q-4 -3 -8 -3q-2 0 -4 1h-85q-2 -1 -4 -1q-5 0 -8 3l-6 4q-5 6 -5 22v430h-891q-24 0 -24 23v84v2q0 22 24 22h999q23 -2 23 -25v-536z" />
    <glyph glyph-name="registered" unicode="&#xae;" horiz-adv-x="1024" 
d="M1156 1053q0 -130 -64 -242t-174.5 -176t-237.5 -64h-8q-128 0 -240 64.5t-173 175.5q-65 119 -65 242q0 201 139 340.5t341 139.5q129 0 241.5 -64t176.5 -175.5t64 -240.5zM1083 1053q0 109 -54.5 203.5t-149.5 148.5q-98 55 -204 55q-170 0 -289 -119t-119 -289
q0 -171 118.5 -289.5t289.5 -118.5q169 0 288.5 120t119.5 289zM975 936q0 -6 -1 -21q-8 -128 -108 -128h-2q-86 0 -118 139q-9 46 -38 112q-17 17 -68 17h-15v-138q0 -46 5 -59q9 -22 49 -27l35 -4v-40h-285v40l31 3q58 6 58 81v2v311v2q0 64 -49 70l-40 5v40h255
q53 0 109 -8q117 -17 117 -131v-2q0 -101 -106 -127l-37 -9l15 -9q49 -30 76 -120l10 -34q11 -37 33 -36q26 1 30 34l3 24l1 13h40zM786 1201q-2 100 -88 100h-2q-67 0 -69 -45l-2 -37v-124h45q51 0 78 17q39 25 38 89z" />
    <glyph glyph-name="overscore" unicode="&#xaf;" horiz-adv-x="1024" 
d="M1024 1536h-1024v105h1024v-105z" />
    <glyph glyph-name="degree" unicode="&#xb0;" 
d="M828 1054q0 -135 -96.5 -232.5t-231.5 -97.5h-2h-4q-83 0 -161 44q-165 93 -165 286v2q0 137 96.5 232.5t233.5 95.5q189 0 286 -165q44 -77 44 -165zM716 1052v2v2q0 88 -64 152t-152 64h-2h-2q-90 0 -153 -62.5t-63 -152.5v-2v-2q0 -126 109 -188q51 -29 105 -29h10
q87 0 149.5 64.5t62.5 151.5z" />
    <glyph glyph-name="plusminus" unicode="&#xb1;" horiz-adv-x="1669" 
d="M1355 460q0 -23 -23 -23h-435v-430q0 -28 -23 -28h-84q-24 0 -24 26v2v430h-434q-24 0 -24 23v84v2q0 22 24 22h434v430v2q0 26 24 26h84q23 0 23 -28v-430h435q23 -2 23 -24v-84zM1355 -219q0 -23 -24 -23h-999q-24 0 -24 23v84v2q0 22 24 22h999q24 0 24 -24v-84z" />
    <glyph glyph-name="twosuperior" unicode="&#xb2;" horiz-adv-x="683" 
d="M606 673q0 -13 -11 -33l-34 -60q-10 -17 -14.5 -19t-28.5 -2h-50l-81 8h-84l-89 -2l-71 -3q-71 -3 -61 -3h-8h-2q-16 0 -18 10l-3 18v36q0 24 19 39l42 33q52 41 135 125t129 152q58 85 58 162q1 138 -102 138h-2q-89 0 -177 -96q-11 -12 -17 -12h-2l-12 3l-14 7l-11 12
v2q0 3 1 4l9 16q95 136 202 167q32 9 69 9q88 -1 141.5 -53.5t54.5 -140.5q1 -84 -53 -167q-82 -126 -266 -287l-63 -55l54 -1l102 -1h28q18 0 38 1l181 7q4 -1 8 -4l3 -5v-5z" />
    <glyph glyph-name="threesuperior" unicode="&#xb3;" horiz-adv-x="683" 
d="M561 885q-1 -150 -134 -254q-100 -78 -209 -78h-4q-57 0 -97 16q-63 25 -63 65v8q0 42 54 45q23 -1 50 -16l33 -23q44 -31 72 -31q77 0 133 76q51 68 53 149v2q0 82 -82 121q-27 13 -57 13h-21q-16 0 -18 1q-6 3 -13 14l-5 12v3q0 -1 51 49l34 33q68 66 68 115
q1 88 -96 90q-37 1 -88 -19l-38 -19q-13 -8 -19 -8h-2l-16 10l-7 8q-3 1 -3 4q0 1 1 2v0q0 13 27 35q92 76 176 76h2q68 0 118 -35q57 -39 57 -104v-2v-2q0 -62 -48 -106l-37 -34l-34 -27l35 -9q128 -33 127 -180z" />
    <glyph glyph-name="acute" unicode="&#xb4;" 
d="M720 1512q0 -44 -81 -153l-217 -291q-11 -15 -17 -16l-11 3l-15 9l-9 10q0 7 7 24l136 328q26 64 43 96q36 70 85 69q31 -1 55 -24t24 -53v-2z" />
    <glyph glyph-name="paragraph" unicode="&#xb6;" 
d="M979 1442h-138v-1768h-79v1768h-99v-1768h-79v897l-63 13q-177 36 -279 156q-108 126 -108 296v10q0 187 129 314q119 117 310 149q103 17 219 17h187v-84z" />
    <glyph glyph-name="cedilla" unicode="&#xb8;" 
d="M670 -235q0 -106 -118 -164q-65 -32 -139 -32h-4q-157 2 -157 75q0 41 35 41h4q14 0 37 -12l27 -14q40 -21 82 -21h4q38 0 69.5 23.5t30.5 60.5q-1 82 -81 78l-62 -3l-10 10l-16 19l-6 12l14 15l189 167l44 -13l-90 -107l35 -6q112 -19 112 -127v-2z" />
    <glyph glyph-name="onesuperior" unicode="&#xb9;" horiz-adv-x="683" 
d="M542 579l-3 -13q-2 -5 -5 -6l-14 -1l-56 2l-105 6l-95 -6l-57 -2h-20l-6 3l-5 19v25q0 16 25 18q56 4 74 15q28 18 28 70v536l-100 -58q-16 -9 -22 -10h-2q-6 0 -10 8l-13 21l-4 13q0 6 15 15q24 15 187 137l12 9q6 3 13 4h20l14 -6q2 -8 2 -27v-610q0 -55 8 -76
q15 -36 61 -39l33 -2q25 -2 25 -18v-27z" />
    <glyph glyph-name="ordmasculine" unicode="&#xba;" 
d="M854 1043q1 -144 -111.5 -251t-257.5 -107h-2q-139 0 -242 97t-103 235v2v4q0 114 68 212q102 148 293 149q146 1 247 -98q107 -104 108 -243zM714 1012q0 114 -55 204q-66 108 -172 108h-2q-95 0 -157 -90q-50 -73 -50 -178q0 -117 55 -205q66 -105 175 -106
q91 0 154 90q52 75 52 177z" />
    <glyph glyph-name="guillemotright" unicode="&#xbb;" horiz-adv-x="872" 
d="M792 445q-1 -26 -22 -46l-31 -29l-281 -246q-21 -18 -28 -18v0h-2q-2 0 -3 1l-12 8l-13 12l-7 9q-1 1 -1 3v5q0 5 10 17l220 273l-230 302l10 16l12 13l9 7q2 1 6 1q8 0 22 -12l331 -291q10 -9 10 -23q0 -3 0 -2zM468 443v0q-1 -24 -22 -44l-31 -29l-280 -246
q-20 -18 -29 -18v0h-2q-6 0 -14 9l-13 12q-9 8 -9 13v2v2q0 5 10 17l220 273l-230 302l10 16l12 13q5 8 14 8h2q9 -1 21 -12l302 -264q39 -34 39 -54z" />
    <glyph glyph-name="onequarter" unicode="&#xbc;" horiz-adv-x="1669" 
d="M1500 262q0 -18 -25 -18h-97v-230q0 -8 -2 -15l-3 -6l-7 -4l-20 -3h-42l-26 2l-6 3q-4 2 -4 6l-2 22v225h-47l-80 -1q-24 0 -76.5 -3.5t-79.5 -3.5h-10q-11 0 -14 4l-7 12q-5 7 -5 12v1q0 8 15 24l18 24l334 475q20 29 38 29h21l10 -4q3 -4 3 -14l-8 -234v-229h93l25 -4
l4 -21v-49zM1356 1370q0 -7 -14 -29l-837 -1323q-16 -25 -21.5 -28.5t-33.5 -3.5h-39q-19 0 -21 11v5v1q0 5 10 21l848 1338q14 22 41 22h45q18 0 22 -10v-4zM582 579l-3 -13q-2 -5 -5 -6l-14 -1l-56 2l-105 6l-95 -6l-56 -2h-19l-7 3l-4 6q-2 4 -2 9v25l2 11l5 6q4 3 18 5
l54 7q46 6 47 78l1 53v483l-100 -58q-17 -10 -21 -10h-1l-12 8l-14 21l-3 13q2 7 16 15q46 27 109 74q49 37 77 63l12 9q6 3 13 4h20l14 -6q2 -8 2 -27v-614q0 -41 5 -62q11 -46 65 -49l32 -2l16 -2l5 -3l4 -17v-23zM1266 336v289l-174 -250q-12 -17 -12 -24l5 -8
q10 -7 34 -7h147z" />
    <glyph glyph-name="onehalf" unicode="&#xbd;" horiz-adv-x="1669" 
d="M1573 105q0 -13 -11 -32l-34 -59q-13 -22 -34 -22h-9l-50 4q-50 4 -121 4h-44l-160 -3l-67 -5l-18 3l-4 7l-3 19v35q0 24 19 39l42 33l58 51l76 72l66 72q120 131 122 247v2q0 133 -105 133h-2q-88 0 -174 -96q-12 -13 -18 -13q-5 0 -13 4l-14 7q-5 1 -8 6q-3 2 -3 7v2
q0 5 10 19q32 44 61 75q94 100 214 101q86 0 140 -55q51 -54 52 -139q1 -86 -53 -167q-91 -138 -266 -288l-63 -54l53 -1l97 -1h29q18 0 43 1l181 7q4 -1 8 -4l3 -6v-5zM1304 1370q0 -7 -14 -29l-836 -1323q-16 -25 -21.5 -28.5t-33.5 -3.5h-39q-20 0 -22 11v4q0 6 11 23
l847 1338q14 22 41 22h45q18 0 22 -10v-4zM555 579l-3 -13q-2 -5 -5 -6l-14 -1l-56 2l-105 6l-95 -6l-56 -2h-19l-7 3l-4 6q-2 4 -2 9v29q0 16 25 18q55 3 74 15q26 16 27 70l1 53v483l-101 -58q-17 -10 -21 -10l-12 8l-14 21l-3 13q2 7 16 15q46 27 109 74q49 37 77 63
l12 9q6 3 13 4h20l14 -6q2 -8 2 -27v-614q0 -41 5 -62q11 -46 65 -49l32 -2l16 -2l5 -3l4 -17v-23z" />
    <glyph glyph-name="threequarters" unicode="&#xbe;" horiz-adv-x="1669" 
d="M1503 266l-2 -12l-5 -6q-5 -4 -17 -4h-98v-225q0 -10 -2 -21l-2 -5l-7 -4l-21 -3h-52q-16 0 -21 5l-4 7l-3 21v225h-46l-81 -1q-24 0 -75.5 -3.5t-78.5 -3.5h-11q-10 0 -14 4l-8 12l-5 13l2 6l14 17l17 23l335 464q21 28 37 28h21l9 -4q4 -6 4 -15q0 -30 -4 -75
q-3 -34 -3 -65v-23l-1 -63v-222h93q7 0 19 -2l5 -2q5 -4 5 -14v-52zM1364 1356q-1 -9 -14 -29l-836 -1309q-16 -26 -21.5 -29t-34.5 -3h-38q-20 0 -22 11v4q0 6 11 23l847 1324q14 22 41 22h46q18 0 21 -10v-4zM630 886q0 -152 -134 -255q-101 -78 -209 -78h-4q-54 0 -97 17
q-61 24 -62 69v2q0 44 52 46q31 1 84 -38q43 -32 72 -32q76 1 132 74q52 68 54 147v2q0 82 -82 120q-28 13 -57 13h-21q-16 0 -18 1q-17 6 -18 28l1 5q1 7 19 18l32 28l39 32q65 53 63 110q-2 77 -98 77h-4l-41 -3l-43 -7q-6 -1 -29 -8q-19 -5 -29 -5l-16 14q-6 5 -8 11
q-1 1 -1 3v5q0 28 89 73q57 29 116 29q73 0 119 -35q57 -44 57 -105v-2v-2q0 -74 -86 -143l-35 -28l36 -9q127 -32 127 -174zM1269 336v280l-174 -245q-12 -17 -12 -23l5 -8q5 -4 18 -4h163z" />
    <glyph glyph-name="questiondown" unicode="&#xbf;" horiz-adv-x="759" 
d="M645 781q0 -52 -36 -89t-88 -37h-2h-2q-49 0 -86.5 35.5t-37.5 84.5v11q0 50 37 85.5t87 35.5h2h2q50 0 87 -37t37 -87v-2zM607 -414q0 -44 -33 -75.5t-78 -31.5h-2q-126 1 -249 145q-88 103 -130 265q-21 81 -21 155v8q2 301 342 301h26l16 135q3 25 13 31l11 3h23
q20 0 21 -38l8 -299l-43 -2q-114 -5 -206 -65q-104 -67 -104 -177v-2q1 -169 163 -225q43 -15 77 -18l56 -5q107 -10 110 -103v-2z" />
    <glyph glyph-name="Agrave" unicode="&#xc0;" horiz-adv-x="1555" 
d="M898 1574l-9 -11l-15 -8l-10 -3l-6 3q-8 5 -12 13l-217 291q-81 109 -81 151v1q0 33 22.5 56.5t55.5 23.5q53 0 86 -69q15 -32 44 -96l135 -328q7 -17 7 -24zM1507 10q0 -6 -2 -11l-4 -6q-6 -5 -15 -5h-2q-13 0 -108 10q-19 2 -79 2q-51 0 -151.5 -6t-150.5 -6h-5
q-15 0 -18 11l-2 16v32q-1 2 -1 4q0 4 3 8l4 6q5 4 19 5q128 6 128 59v0q-1 21 -8 37l-17 41l-137 353h-476l-116 -341q-14 -47 -14 -66q2 -76 106 -81l38 -2q29 -2 29 -25v-27l-3 -20q-4 -10 -25 -10h-4l-117 7l-117 5q-23 1 -101 -5l-92 -7h-7q-11 0 -15 5l-5 7l-2 16v31
l3 12l6 7q6 4 20 4q135 1 172 93l28 70l23 65l379 1064l105 72l18 8l11 -14q6 -13 16 -38l494 -1235q31 -70 130 -81q14 -1 38 -4l15 -3l5 -4q4 -7 4 -22v-31zM926 644l-219 573l-194 -573h413z" />
    <glyph glyph-name="Aacute" unicode="&#xc1;" horiz-adv-x="1555" 
d="M1507 10q0 -6 -2 -11l-4 -6q-6 -5 -15 -5h-2q-13 0 -108 10q-19 2 -79 2q-51 0 -151.5 -6t-150.5 -6h-5q-15 0 -18 11l-2 16v32q-1 2 -1 4q0 4 3 8l4 6q5 4 19 5q128 6 128 59v0q-1 21 -8 37l-17 41l-137 353h-476l-116 -341q-14 -47 -14 -66q2 -76 106 -81l38 -2
q29 -2 29 -25v-27l-3 -20q-4 -10 -25 -10h-4l-117 7l-117 5q-23 1 -101 -5l-92 -7h-7q-11 0 -15 5l-5 7l-2 16v31l3 12l6 7q6 4 20 4q135 1 172 93l28 70l23 65l379 1064l105 72l18 8l11 -14q6 -13 16 -38l494 -1235q31 -70 130 -81q14 -1 38 -4l15 -3l5 -4q4 -7 4 -22v-31z
M926 644l-219 573l-194 -573h413zM1019 2012q0 -44 -81 -153l-217 -291q-11 -15 -17 -16l-11 3l-15 9l-9 10q0 7 7 24l136 328q26 64 43 96q36 70 85 69q31 -1 55 -24t24 -53v-2z" />
    <glyph glyph-name="Acircumflex" unicode="&#xc2;" horiz-adv-x="1555" 
d="M1507 10q0 -6 -2 -11l-4 -6q-6 -5 -15 -5h-2q-13 0 -108 10q-19 2 -79 2q-51 0 -151.5 -6t-150.5 -6h-5q-15 0 -18 11l-2 16v32q-1 2 -1 4q0 4 3 8l4 6q5 4 19 5q128 6 128 59v0q-1 21 -8 37l-17 41l-137 353h-476l-116 -341q-14 -47 -14 -66q2 -76 106 -81l38 -2
q29 -2 29 -25v-27l-3 -20q-4 -10 -25 -10h-4l-117 7l-117 5q-23 1 -101 -5l-92 -7h-7q-11 0 -15 5l-5 7l-2 16v31l3 12l6 7q6 4 20 4q135 1 172 93l28 70l23 65l379 1064l105 72l18 8l11 -14q6 -13 16 -38l494 -1235q31 -70 130 -81q14 -1 38 -4l15 -3l5 -4q4 -7 4 -22v-31z
M926 644l-219 573l-194 -573h413zM1012 1575l-13 -12l-20 -8l-14 -3q-10 0 -18 15l-198 350l-195 -348q-6 -10 -12 -14q-1 -1 -3 -1h-2l-10 2l-24 12l-10 10q0 8 6 24l154 400q40 89 95 89q65 0 101 -88l9 -22z" />
    <glyph glyph-name="Atilde" unicode="&#xc3;" horiz-adv-x="1555" 
d="M1507 10q0 -6 -2 -11l-4 -6q-6 -5 -15 -5h-2q-13 0 -108 10q-19 2 -79 2q-51 0 -151.5 -6t-150.5 -6h-5q-15 0 -18 11l-2 16v32q-1 2 -1 4q0 4 3 8l4 6q5 4 19 5q128 6 128 59v0q-1 21 -8 37l-17 41l-137 353h-476l-116 -341q-14 -47 -14 -66q2 -76 106 -81l38 -2
q29 -2 29 -25v-27l-3 -20q-4 -10 -25 -10h-4l-117 7l-117 5q-23 1 -101 -5l-92 -7h-7q-11 0 -15 5l-5 7l-2 16v31l3 12l6 7q6 4 20 4q135 1 172 93l28 70l23 65l379 1064l105 72l18 8l11 -14q6 -13 16 -38l494 -1235q31 -70 130 -81q14 -1 38 -4l15 -3l5 -4q4 -7 4 -22v-31z
M926 644l-219 573l-194 -573h413zM1075 1868q0 -7 -1 -13q-18 -75 -44 -145q-58 -158 -139 -158h-2q-52 0 -114 72l-42 49q-63 74 -89 74q-3 0 -2 0q-62 -3 -108 -131q-9 -27 -25 -56q-6 -8 -12 -8h-2q-6 0 -11 5l-11 8q-11 8 -11 15v6q0 81 62.5 203.5t156.5 123.5h2
q46 0 111 -78l49 -59q48 -58 72 -58v0q42 0 80 101l22 58q7 19 13 19l21 -5l14 -6q9 -4 10 -17z" />
    <glyph glyph-name="Adieresis" unicode="&#xc4;" horiz-adv-x="1555" 
d="M999 1499h-671v123h671v-123zM1311 0q-133 10 -240 10q-40 0 -233 -10v70q69 6 80 10q47 13 47 53q0 33 -21 96q-4 11 -12 37l-90 281h-428l-74 -207q-18 -47 -47 -142q-8 -35 -8 -63q0 -41 46 -55q13 -4 81 -10v-70q-120 10 -215 10q-91 0 -203 -10v70l31 3q35 3 59 13
q51 20 124 192q30 70 54 136l41 112l273 721q20 52 38 105l119 53q64 -214 90 -293l219 -657q76 -228 105 -289q23 -49 67 -71q29 -14 97 -25v-70zM811 643l-168 524l-192 -524h360z" />
    <glyph glyph-name="Aring" unicode="&#xc5;" horiz-adv-x="1555" 
d="M981 1702q-1 -94 -64 -159t-157 -65q-92 0 -157 64.5t-65 155.5v2v6q0 89 65 153t154 64h2q91 -2 156.5 -65t65.5 -154v-2zM896 1701q0 55 -41 95t-96 40t-95.5 -38t-40.5 -92v-11q0 -56 40.5 -93t96.5 -37t96 40t40 96zM1507 10q0 -6 -2 -11l-4 -6q-6 -5 -15 -5h-2
q-13 0 -108 10q-19 2 -79 2q-51 0 -151.5 -6t-150.5 -6h-5q-15 0 -18 11l-2 16v32q-1 2 -1 4q0 4 3 8l4 6q5 4 19 5q128 6 128 59v0q-1 21 -8 37l-17 41l-137 353h-476l-116 -341q-14 -47 -14 -66q2 -76 106 -81l38 -2q29 -2 29 -25v-27l-3 -20q-4 -10 -25 -10h-4l-117 7
l-117 5q-23 1 -101 -5l-92 -7h-7q-11 0 -15 5l-5 7l-2 16v31l3 12l6 7q6 4 20 4q135 1 172 93l28 70l23 65l379 1064l105 72l18 8l11 -14q6 -13 16 -38l494 -1235q31 -70 130 -81q14 -1 38 -4l15 -3l5 -4q4 -7 4 -22v-31zM926 644l-219 573l-194 -573h413z" />
    <glyph glyph-name="AE" unicode="&#xc6;" horiz-adv-x="2200" 
d="M2153 279l-5 -31l-67 -236q-5 -19 -17 -22l-20 -2l-734 12l-302 -12h-2q-25 0 -25 25v32l3 14q2 11 23 11h4l63 3q81 4 103 53q12 27 14 123l1 53v258h-531l-258 -344q-39 -53 -39 -81q1 -58 98 -63l38 -2q29 -2 29 -25v-27l-3 -20q-4 -10 -25 -10h-4l-117 7l-117 5
q-23 1 -101 -5l-92 -7h-7q-11 0 -15 5l-5 7l-2 16v31l3 12l6 7q6 4 20 4q19 0 50 3q69 7 125 80l864 1132q14 18 15 33l-2 9q-7 12 -37 13l-81 2q-28 1 -28 16q0 2 1 5v36l3 13q4 12 26 12q40 -1 137 -7q88 -5 138 -5h27l228 3l430 9q28 0 50 -2l6 -3q3 -3 4 -6l2 -19v-225
q0 -44 -7 -51l-8 -3l-15 2l-25 4l-12 4q-8 3 -8 17v4l-1 22q-6 122 -137 142q-123 19 -279 18q-95 0 -128 -28q-36 -30 -36 -123v-392q31 -4 54 -5l89 -2q171 -4 223 38q32 26 60 103q8 23 31 23h30l18 -2q3 -1 6 -4l2 -13l-6 -75q-6 -75 -6 -134v-17q0 -39 7 -113l5 -53
q0 -20 -12 -22l-15 -3h-31l-16 3q-11 2 -13 25q-6 91 -34 123q-32 37 -121 37h-111l-112 -3l-48 -3v-461q0 -110 76 -131q38 -10 73 -11q58 -1 55 -1h40q115 0 238 4q89 3 120 38q50 57 74 108q16 35 30 53q7 9 20 10q7 -1 22 -4l22 -7zM1192 644v605l-468 -605h468z" />
    <glyph glyph-name="Ccedilla" unicode="&#xc7;" horiz-adv-x="1517" 
d="M1443 372l-2 -17l-6 -24q-4 -16 -21 -102l-22 -113q-3 -18 -10 -26q-16 -20 -75.5 -43.5t-77.5 -29.5q-122 -41 -290 -46l-37 -1l-61 -83l36 -7q139 -27 139 -144v-4q0 -88 -95 -150q-70 -46 -179 -45q-187 1 -187 73v2q1 45 42 45h4q20 0 41 -10l36 -17q36 -17 71 -17h8
q40 0 68 26.5t28 66.5v3q0 79 -103 84q-15 0 -35 2q-9 1 -11 8l-12 23l-2 10q0 8 11 18l130 122l-30 4q-212 28 -388 150q-108 75 -183 177q-131 179 -131 402v4q1 227 126 400q68 94 171 166q234 164 517 163q234 -1 411 -87l39 -19q19 -9 21 -35l2 -25l8 -89l13 -95l4 -20
q1 -5 1 -12q0 -8 -4 -11l-10 -5l-25 -5q-4 -1 -8 -1h-5q-14 0 -19 9l-4 10q-121 302 -427 301q-318 0 -492 -247q-112 -159 -112 -384v-6q0 -247 123 -415q183 -250 527 -252q208 -1 316 133q69 86 88 170q5 23 16 30l7 2l14 -1l30 -2l9 -2l5 -4z" />
    <glyph glyph-name="Egrave" unicode="&#xc8;" horiz-adv-x="1289" 
d="M1222 277q-1 -14 -6 -31l-71 -249l-6 -5q-7 -4 -27 -5q-5 0 -16 1l-419 4l-307 8l-311 -10q-9 3 -9 22v33l3 14q3 10 27 11l49 2q92 4 114 47q18 35 18 129v955q0 72 -26.5 102.5t-97.5 33.5l-61 3q-26 1 -26 17v40l3 13q5 12 31 12h4q30 0 60 -2q150 -10 280 -10h166
l271 9q90 3 159 3q43 0 61 -2l6 -3q3 -3 4 -6l2 -19v-225q0 -29 -3 -41.5t-17 -12.5h-2q-2 0 -12 2l-24 5l-12 4q-5 2 -7 23l-4 57q-6 85 -133.5 104t-277.5 18q-95 0 -128 -28q-36 -30 -36 -123v-392q38 -4 67 -5l91 -2q155 -3 208 38q32 25 60 103q8 23 31 23h34
q21 0 22 -31q1 -25 -5 -75q-7 -53 -7 -78v-40q0 -60 7 -134l5 -53q0 -20 -12 -22l-15 -3h-31l-16 3q-12 2 -13 25q-6 89 -35 122q-32 36 -119 37l-112 1l-97 -3l-63 -3l1 -463v-4q0 -79 35 -108q30 -25 112 -26l179 -3q70 -1 156 3q67 3 93 17q21 11 65 70q19 39 65 112
q9 9 19 11q6 -1 23 -5l25 -8zM765 1574l-9 -11l-15 -8l-10 -3l-6 3q-8 5 -12 13l-217 291q-81 109 -81 151v1q0 33 22.5 56.5t55.5 23.5q53 0 86 -69q15 -32 44 -96l135 -328q7 -17 7 -24z" />
    <glyph glyph-name="Eacute" unicode="&#xc9;" horiz-adv-x="1289" 
d="M1222 277q-1 -14 -6 -31l-71 -249l-6 -5q-7 -4 -27 -5q-5 0 -16 1l-419 4l-307 8l-311 -10q-9 3 -9 22v33l3 14q3 10 27 11l49 2q92 4 114 47q18 35 18 129v955q0 72 -26.5 102.5t-97.5 33.5l-61 3q-26 1 -26 17v40l3 13q5 12 31 12h4q30 0 60 -2q150 -10 280 -10h166
l271 9q90 3 159 3q43 0 61 -2l6 -3q3 -3 4 -6l2 -19v-225q0 -29 -3 -41.5t-17 -12.5h-2q-2 0 -12 2l-24 5l-12 4q-5 2 -7 23l-4 57q-6 85 -133.5 104t-277.5 18q-95 0 -128 -28q-36 -30 -36 -123v-392q38 -4 67 -5l91 -2q155 -3 208 38q32 25 60 103q8 23 31 23h34
q21 0 22 -31q1 -25 -5 -75q-7 -53 -7 -78v-40q0 -60 7 -134l5 -53q0 -20 -12 -22l-15 -3h-31l-16 3q-12 2 -13 25q-6 89 -35 122q-32 36 -119 37l-112 1l-97 -3l-63 -3l1 -463v-4q0 -79 35 -108q30 -25 112 -26l179 -3q70 -1 156 3q67 3 93 17q21 11 65 70q19 39 65 112
q9 9 19 11q6 -1 23 -5l25 -8zM888 2012q0 -44 -81 -153l-217 -291q-11 -15 -17 -16l-11 3l-15 9l-9 10q0 7 7 24l136 328q26 64 43 96q36 70 85 69q31 -1 55 -24t24 -53v-2z" />
    <glyph glyph-name="Ecircumflex" unicode="&#xca;" horiz-adv-x="1289" 
d="M1222 277q-1 -14 -6 -31l-71 -249l-6 -5q-7 -4 -27 -5q-5 0 -16 1l-419 4l-307 8l-311 -10q-9 3 -9 22v33l3 14q3 10 27 11l49 2q92 4 114 47q18 35 18 129v955q0 72 -26.5 102.5t-97.5 33.5l-61 3q-26 1 -26 17v40l3 13q5 12 31 12h4q30 0 60 -2q150 -10 280 -10h166
l271 9q90 3 159 3q43 0 61 -2l6 -3q3 -3 4 -6l2 -19v-225q0 -29 -3 -41.5t-17 -12.5h-2q-2 0 -12 2l-24 5l-12 4q-5 2 -7 23l-4 57q-6 85 -133.5 104t-277.5 18q-95 0 -128 -28q-36 -30 -36 -123v-392q38 -4 67 -5l91 -2q155 -3 208 38q32 25 60 103q8 23 31 23h34
q21 0 22 -31q1 -25 -5 -75q-7 -53 -7 -78v-40q0 -60 7 -134l5 -53q0 -20 -12 -22l-15 -3h-31l-16 3q-12 2 -13 25q-6 89 -35 122q-32 36 -119 37l-112 1l-97 -3l-63 -3l1 -463v-4q0 -79 35 -108q30 -25 112 -26l179 -3q70 -1 156 3q67 3 93 17q21 11 65 70q19 39 65 112
q9 9 19 11q6 -1 23 -5l25 -8zM909 1575l-13 -12l-20 -8l-14 -3q-10 0 -18 15l-198 350l-195 -348q-6 -10 -12 -14q-1 -1 -3 -1h-2l-10 2l-24 12l-10 10q0 8 6 24l154 400q40 89 95 89q65 0 101 -88l9 -22z" />
    <glyph glyph-name="Edieresis" unicode="&#xcb;" horiz-adv-x="1289" 
d="M934 1499h-672v123h672v-123zM1141 295l-70 -295q-319 12 -496 10l-233 -2q-101 -1 -254 -8v72q85 0 118 22q43 28 44 107l2 135l-2 827q-1 81 -42 109q-33 22 -120 22v72q167 -10 457 -10q94 0 246 4l206 6l29 -281l-72 -16q-13 70 -18 85q-15 47 -45 71q-68 53 -252 53
h-76q-41 1 -112 -5q-25 -6 -25 -56v-474h215q155 0 189 56q22 36 22 110h72q-4 -134 -4 -207q0 -88 10 -200h-78q-5 137 -86 153q-41 7 -131 7h-209v-359q0 -112 5 -133q17 -65 91 -76q54 -8 148 -8h59q102 0 147 9q83 15 127 68q40 47 68 150z" />
    <glyph glyph-name="Igrave" unicode="&#xcc;" horiz-adv-x="682" 
d="M646 9l-3 -10l-8 -7q-7 -4 -16 -4h-4q-46 0 -138.5 6t-138.5 6q-45 0 -134.5 -6t-134.5 -6h-5q-4 0 -7 1l-6 3q-5 2 -5 7l-2 19v23v2q0 24 29 27q7 1 58 1q119 1 122 106l2 78v896q0 36 -2 76q-3 61 -27.5 84t-87.5 28q-23 1 -57 3l-26 2l-6 3q-6 2 -6 14q0 5 1 9v33
l3 12q2 4 7 7l14 2l118 -6l155 -6l276 12q16 1 22 -3l5 -6l2 -12v-33l-2 -17q-1 -11 -25 -11l-65 -1q-62 -1 -93 -24q-22 -16 -24 -89l-2 -77v-919q0 -86 12 -109q21 -41 121 -49l49 -4q29 -2 29 -26v-35zM461 1574l-9 -11l-15 -8l-10 -3l-6 3q-8 5 -12 13l-217 291
q-81 109 -81 151v1q0 33 22.5 56.5t55.5 23.5q53 0 86 -69q15 -32 44 -96l135 -328q7 -17 7 -24z" />
    <glyph glyph-name="Iacute" unicode="&#xcd;" horiz-adv-x="683" 
d="M646 9l-3 -10l-8 -7q-7 -4 -16 -4h-4q-46 0 -138.5 6t-138.5 6q-45 0 -134.5 -6t-134.5 -6h-5q-4 0 -7 1l-6 3q-5 2 -5 7l-2 19v23v2q0 24 29 27q7 1 58 1q119 1 122 106l2 78v896q0 36 -2 76q-3 61 -27.5 84t-87.5 28q-23 1 -57 3l-26 2l-6 3q-6 2 -6 14q0 5 1 9v33
l3 12q2 4 7 7l14 2l118 -6l155 -6l276 12q16 1 22 -3l5 -6l2 -12v-33l-2 -17q-1 -11 -25 -11l-65 -1q-62 -1 -93 -24q-22 -16 -24 -89l-2 -77v-919q0 -86 12 -109q21 -41 121 -49l49 -4q29 -2 29 -26v-35zM585 2012q0 -44 -81 -153l-217 -291q-11 -15 -17 -16l-11 3l-15 9
l-9 10q0 7 7 24l136 328q26 64 43 96q36 70 85 69q31 -1 55 -24t24 -53v-2z" />
    <glyph glyph-name="Icircumflex" unicode="&#xce;" horiz-adv-x="683" 
d="M646 9l-3 -10l-8 -7q-7 -4 -16 -4h-4q-46 0 -138.5 6t-138.5 6q-45 0 -134.5 -6t-134.5 -6h-5q-4 0 -7 1l-6 3q-5 2 -5 7l-2 19v23v2q0 24 29 27q7 1 58 1q119 1 122 106l2 78v896q0 36 -2 76q-3 61 -27.5 84t-87.5 28q-23 1 -57 3l-26 2l-6 3q-6 2 -6 14q0 5 1 9v33
l3 12q2 4 7 7l14 2l118 -6l155 -6l276 12q16 1 22 -3l5 -6l2 -12v-33l-2 -17q-1 -11 -25 -11l-65 -1q-62 -1 -93 -24q-22 -16 -24 -89l-2 -77v-919q0 -86 12 -109q21 -41 121 -49l49 -4q29 -2 29 -26v-35zM606 1575l-13 -12l-20 -8l-14 -3q-10 0 -18 15l-198 350l-195 -348
q-6 -10 -12 -14q-1 -1 -3 -1h-2l-10 2l-24 12l-10 10q0 8 6 24l154 400q40 89 95 89q65 0 101 -88l9 -22z" />
    <glyph glyph-name="Idieresis" unicode="&#xcf;" horiz-adv-x="683" 
d="M594 1499h-504v123h504v-123zM588 0q-140 10 -250 10q-112 0 -252 -10v72q88 0 121 21q44 27 45 108l2 135l-2 827q-2 106 -73 123q-34 8 -93 8v72q103 -10 254 -10q111 0 248 10v-72h-25q-77 0 -107 -27q-33 -29 -34 -104l-2 -133l2 -829q1 -82 45 -109q32 -20 121 -20
v-72z" />
    <glyph glyph-name="Eth" unicode="&#xd0;" horiz-adv-x="1631" 
d="M1539 711q0 -262 -157 -449t-406 -247q-112 -27 -229 -27h-8q-41 0 -112 4l-107 6l-135 2l-130 -2l-138 -7q-8 0 -18.5 -1.5t-14.5 -1.5h-5q-20 1 -24 23l-5 29l-1 11q1 16 22 19l26 4l40 4q116 12 121 216l2 90v295h-115q-25 0 -27 12l-2 11v38l3 17q2 13 26 13h115v326
q0 74 -4 120q-9 106 -108 105q-8 0 -50 -4l-43 -4q-22 0 -25 21l-4 28l-1 11v2q0 17 29 20l50 6l100 10q153 15 308 25q96 6 153 6q121 0 226 -21q221 -44 374 -161q274 -209 274 -549zM1332 725q-2 300 -185 465.5t-479 167.5q-111 1 -169 -40q-54 -39 -57 -161l-2 -85
v-302h183q28 0 33 -13l2 -13v-32l-3 -22l-4 -7l-5 -3q-4 -1 -9 -1h-197v-371q0 -111 26 -152q54 -84 239 -84h20q347 0 514 274q94 155 93 379z" />
    <glyph glyph-name="Ntilde" unicode="&#xd1;" horiz-adv-x="1745" 
d="M1709 1375l-3 -26l-26 -7l-59 -5q-65 -5 -87 -20q-31 -20 -33 -79l-2 -66l-1 -82v-1033q0 -117 -25 -117h-2l-9 2q-7 3 -15 13l-46 53l-1034 1195v-946q0 -21 2 -55q4 -70 30.5 -96.5t97.5 -31.5l54 -4q27 -2 27 -19v-39l-2 -15l-5 -6q-3 -3 -13 -3h-5l-126 7l-115 5
l-104 -4l-120 -8h-2q-26 0 -26 25v31l2 13q3 11 26 13l82 7q101 9 101 123v1057l-23 23q-61 61 -189 62h-9q-8 0 -11 1l-6 3l-5 7l-2 18v27l3 13q4 10 29 13l110 -9q37 -3 74 -3h26l129 12h2q29 0 45 -18l22 -25l936 -1081l-1 910q-1 89 -24.5 106t-113.5 23l-42 3
q-18 1 -23 5l-4 7l-3 19v31v2q0 18 24 18h4l85 -7q61 -5 117 -5h45q57 0 143 7q61 5 79 5q10 -1 15 -3l4 -5q2 -4 2 -8v-2v-31zM1198 1868q0 -7 -1 -13q-18 -75 -44 -145q-58 -158 -139 -158h-2q-52 0 -114 72l-42 49q-63 74 -89 74q-3 0 -2 0q-62 -3 -108 -131
q-9 -27 -25 -56q-6 -8 -12 -8h-2q-6 0 -11 5l-11 8q-11 8 -11 15v6q0 81 62.5 203.5t156.5 123.5h2q46 0 111 -78l49 -59q48 -58 72 -58v0q42 0 80 101l22 58q7 19 13 19l21 -5l14 -6q9 -4 10 -17z" />
    <glyph glyph-name="Ograve" unicode="&#xd2;" horiz-adv-x="1745" 
d="M1651 742q0 -238 -150 -440q-159 -214 -416 -296q-113 -36 -234 -36h-6q-282 0 -497 180q-161 135 -223 322q-33 99 -33 198v6q0 318 239 548q226 218 561 218q312 0 526 -195q233 -212 233 -505zM1444 680q0 225 -102 400q-113 194 -318 255q-77 23 -163 23
q-92 0 -173 -25q-260 -80 -343 -335q-46 -141 -46 -268v-6q0 -244 148 -442q171 -228 436 -228h2q256 2 414 188q145 171 145 438zM994 1574l-9 -11l-15 -8l-10 -3l-6 3q-8 5 -12 13l-217 291q-81 109 -81 151v1q0 33 22.5 56.5t55.5 23.5q53 0 86 -69q15 -32 44 -96
l135 -328q7 -17 7 -24z" />
    <glyph glyph-name="Oacute" unicode="&#xd3;" horiz-adv-x="1745" 
d="M1651 742q0 -238 -150 -440q-159 -214 -416 -296q-113 -36 -234 -36h-6q-282 0 -497 180q-161 135 -223 322q-33 99 -33 198v6q0 318 239 548q226 218 561 218q312 0 526 -195q233 -212 233 -505zM1444 680q0 225 -102 400q-113 194 -318 255q-77 23 -163 23
q-92 0 -173 -25q-260 -80 -343 -335q-46 -141 -46 -268v-6q0 -244 148 -442q171 -228 436 -228h2q256 2 414 188q145 171 145 438zM1115 2012q0 -44 -81 -153l-217 -291q-11 -15 -17 -16l-11 3l-15 9l-9 10q0 7 7 24l136 328q26 64 43 96q36 70 85 69q31 -1 55 -24t24 -53
v-2z" />
    <glyph glyph-name="Ocircumflex" unicode="&#xd4;" horiz-adv-x="1745" 
d="M1651 742q0 -238 -150 -440q-159 -214 -416 -296q-113 -36 -234 -36h-6q-282 0 -497 180q-161 135 -223 322q-33 99 -33 198v6q0 318 239 548q226 218 561 218q312 0 526 -195q233 -212 233 -505zM1444 680q0 225 -102 400q-113 194 -318 255q-77 23 -163 23
q-92 0 -173 -25q-260 -80 -343 -335q-46 -141 -46 -268v-6q0 -244 148 -442q171 -228 436 -228h2q256 2 414 188q145 171 145 438zM1137 1575l-13 -12l-20 -8l-14 -3q-10 0 -18 15l-198 350l-195 -348q-6 -10 -12 -14q-1 -1 -3 -1h-2l-10 2l-24 12l-10 10q0 8 6 24l154 400
q40 89 95 89q65 0 101 -88l9 -22z" />
    <glyph glyph-name="Otilde" unicode="&#xd5;" horiz-adv-x="1745" 
d="M1651 742q0 -238 -150 -440q-159 -214 -416 -296q-113 -36 -234 -36h-6q-282 0 -497 180q-161 135 -223 322q-33 99 -33 198v6q0 318 239 548q226 218 561 218q312 0 526 -195q233 -212 233 -505zM1444 680q0 225 -102 400q-113 194 -318 255q-77 23 -163 23
q-92 0 -173 -25q-260 -80 -343 -335q-46 -141 -46 -268v-6q0 -244 148 -442q171 -228 436 -228h2q256 2 414 188q145 171 145 438zM1169 1868q0 -7 -1 -13q-18 -75 -44 -145q-58 -158 -139 -158h-2q-52 0 -114 72l-42 49q-63 74 -89 74q-3 0 -2 0q-62 -3 -108 -131
q-9 -27 -25 -56q-6 -8 -12 -8h-2q-6 0 -11 5l-11 8q-11 8 -11 15v6q0 81 62.5 203.5t156.5 123.5h2q46 0 111 -78l49 -59q48 -58 72 -58v0q42 0 80 101l22 58q7 19 13 19l21 -5l14 -6q9 -4 10 -17z" />
    <glyph glyph-name="Odieresis" unicode="&#xd6;" horiz-adv-x="1745" 
d="M1176 1499h-680v123h680v-123zM1503 684q0 -303 -205 -502q-207 -202 -510 -202q-305 0 -505.5 204t-200.5 506q0 298 212 498q209 198 507 198t500 -202t202 -500zM1313 664q0 177 -74 333q-81 169 -223 252q-97 56 -217 56q-241 0 -386 -182q-139 -174 -139 -421
q0 -251 139 -441q149 -204 392 -204q238 0 378 187q130 175 130 420z" />
    <glyph glyph-name="multiply" unicode="&#xd7;" horiz-adv-x="1669" 
d="M1343 59q-1 -9 -7 -16l-50 -50q-7 -7 -16 -7q-10 0 -18 8l-421 420l-421 -420q-9 -9 -17 -9h-3q-2 0 -3 1l-9 6l-50 50q-7 7 -7 17t7 17l421 421l-421 421q-8 8 -8 16q0 9 8 17l50 51q6 5 15 6q9 -1 18 -8l420 -420l421 420q7 7 17 8q8 -1 17 -8l50 -49q5 -7 6 -15
q-1 -11 -8 -18l-420 -421l421 -421q7 -9 8 -17z" />
    <glyph glyph-name="Oslash" unicode="&#xd8;" horiz-adv-x="1745" 
d="M1651 742q0 -242 -150 -440q-162 -215 -417 -296q-112 -36 -233 -36h-6q-263 0 -442 138l-44 34l-154 -158q-21 -22 -47 -22h-68l-21 11l25 29l198 201q-38 41 -66 78q-134 180 -134 392v10q0 181 93 350q91 166 243 270q204 139 462 139t447 -131l26 -18l148 149
q30 30 58 30h58l22 -8l-18 -24l-201 -203l29 -31q192 -206 192 -464zM1261 1190l-20 20q-21 21 -53 43q-152 105 -328 105q-90 0 -172 -25q-251 -77 -343 -334q-46 -128 -46 -253v-14q0 -218 94 -368l22 -35zM1444 679q0 223 -87 373l-40 69l-848 -867l26 -31q33 -40 95 -81
q131 -88 288 -88h12q170 0 308 95q143 98 205 276q41 118 41 254z" />
    <glyph glyph-name="Ugrave" unicode="&#xd9;" horiz-adv-x="1669" 
d="M1631 1365q0 -7 -2 -13l-4 -6q-4 -3 -21 -4l-45 -2q-69 -3 -94 -19q-39 -25 -41 -83l-4 -144v-344q0 -100 -1 -141q-2 -88 -9 -162q-14 -147 -54 -225q-51 -98 -160 -164q-146 -88 -363 -88h-4q-487 0 -549 354q-16 91 -16 241l-2 678q-2 85 -127 97q-21 2 -40 2h-2
q-40 0 -40 27v30q0 16 11 23l15 2l126 -7l147 -5l142 4l104 6q35 2 32 2l15 -2q10 -1 10 -20v-41q0 -12 -5 -14l-19 -5l-42 -2q-75 -4 -93 -12q-51 -24 -51 -125v-12l-1 -73l3 -537q9 -267 76 -360q93 -129 335 -130h10q399 0 441 329q8 66 11 156l4 137v448q0 99 -36 138
t-134 43h-11q-20 0 -23 3l-5 6l-2 12v38v3q0 5 2 10l4 6q3 4 22 4h9l61 -2l148 -10h15q58 0 151 7q67 5 83 5q13 0 17 -3l4 -5l2 -13v-38zM1012 1574l-9 -11l-15 -8l-10 -3l-6 3q-8 5 -12 13l-217 291q-81 109 -81 151v1q0 33 22.5 56.5t55.5 23.5q53 0 86 -69
q15 -32 44 -96l135 -328q7 -17 7 -24z" />
    <glyph glyph-name="Uacute" unicode="&#xda;" horiz-adv-x="1669" 
d="M1631 1365q0 -7 -2 -13l-4 -6q-4 -3 -21 -4l-45 -2q-69 -3 -94 -19q-39 -25 -41 -83l-4 -144v-344q0 -100 -1 -141q-2 -88 -9 -162q-14 -147 -54 -225q-51 -98 -160 -164q-146 -88 -363 -88h-4q-487 0 -549 354q-16 91 -16 241l-2 678q-2 85 -127 97q-21 2 -40 2h-2
q-40 0 -40 27v30q0 16 11 23l15 2l126 -7l147 -5l142 4l104 6q35 2 32 2l15 -2q10 -1 10 -20v-41q0 -12 -5 -14l-19 -5l-42 -2q-75 -4 -93 -12q-51 -24 -51 -125v-12l-1 -73l3 -537q9 -267 76 -360q93 -129 335 -130h10q399 0 441 329q8 66 11 156l4 137v448q0 99 -36 138
t-134 43h-11q-20 0 -23 3l-5 6l-2 12v38v3q0 5 2 10l4 6q3 4 22 4h9l61 -2l148 -10h15q58 0 151 7q67 5 83 5q13 0 17 -3l4 -5l2 -13v-38zM1076 2012q0 -44 -81 -153l-217 -291q-11 -15 -17 -16l-11 3l-15 9l-9 10q0 7 7 24l136 328q26 64 43 96q36 70 85 69q31 -1 55 -24
t24 -53v-2z" />
    <glyph glyph-name="Ucircumflex" unicode="&#xdb;" horiz-adv-x="1669" 
d="M1631 1365q0 -7 -2 -13l-4 -6q-4 -3 -21 -4l-45 -2q-69 -3 -94 -19q-39 -25 -41 -83l-4 -144v-344q0 -100 -1 -141q-2 -88 -9 -162q-14 -147 -54 -225q-51 -98 -160 -164q-146 -88 -363 -88h-4q-487 0 -549 354q-16 91 -16 241l-2 678q-2 85 -127 97q-21 2 -40 2h-2
q-40 0 -40 27v30q0 16 11 23l15 2l126 -7l147 -5l142 4l104 6q35 2 32 2l15 -2q10 -1 10 -20v-41q0 -12 -5 -14l-19 -5l-42 -2q-75 -4 -93 -12q-51 -24 -51 -125v-12l-1 -73l3 -537q9 -267 76 -360q93 -129 335 -130h10q399 0 441 329q8 66 11 156l4 137v448q0 99 -36 138
t-134 43h-11q-20 0 -23 3l-5 6l-2 12v38v3q0 5 2 10l4 6q3 4 22 4h9l61 -2l148 -10h15q58 0 151 7q67 5 83 5q13 0 17 -3l4 -5l2 -13v-38zM1122 1575l-13 -12l-20 -8l-14 -3q-10 0 -18 15l-198 350l-195 -348q-6 -10 -12 -14q-1 -1 -3 -1h-2l-10 2l-24 12l-10 10q0 8 6 24
l154 400q40 89 95 89q65 0 101 -88l9 -22z" />
    <glyph glyph-name="Udieresis" unicode="&#xdc;" horiz-adv-x="1669" 
d="M1159 1499h-782v123h782v-123zM1419 1296q-88 0 -117 -62q-20 -41 -20 -142v-98q0 -10 -1 -40q-1 -26 -1 -43v-260q0 -330 -96 -488q-118 -194 -432 -194q-361 0 -480 219q-53 98 -53 332v557q0 152 -50 193q-33 26 -103 26v70q90 -10 217 -10q57 0 145 4l121 6v-70
q-64 -3 -69 -4q-39 -6 -60 -28q-33 -34 -33 -138v-501q0 -172 17 -260q29 -148 117 -226q85 -76 251 -76q246 0 339 158q71 120 71 389l-2 455q-1 98 -3 109q-8 65 -43 95q-34 27 -112 27v70q80 -10 195 -10q118 0 202 10v-70z" />
    <glyph glyph-name="Yacute" unicode="&#xdd;" horiz-adv-x="1479" 
d="M1448 1372l-3 -18q-3 -11 -23 -12q-98 -7 -153 -74l-66 -81l-358 -488v-496q0 -114 116 -126l68 -7q27 -3 27 -24v-30q-1 -10 -3 -17l-7 -8q-4 -3 -14 -3h-5l-156 8l-128 4q-33 1 -119 -4l-137 -8q-27 1 -30 11l-3 16v27q0 28 27 28q85 0 127 18q51 22 54 111l3 96v381
l-427 590q-50 65 -109 70l-72 6q-24 2 -29 14l-3 13v28l3 16q2 11 20 11h3q20 0 133 -8q56 -4 141 -4h66q47 0 73 3q78 9 117 9q29 0 29 -29v-34q0 -5 -2 -10l-4 -6q-3 -3 -13 -3h-5l-56 -3q-80 -4 -80 -42q0 -21 21 -51l38 -55l24 -31l272 -368l336 471q8 16 9 30v0
q0 40 -72 45l-63 4q-27 2 -27 13l-2 17v29l3 14l6 7q6 1 22 2l213 -12q79 -4 126 4t68 8q22 0 24 -23v-29zM994 2012q0 -44 -81 -153l-217 -291q-11 -15 -17 -16l-11 3l-15 9l-9 10q0 7 7 24l136 328q26 64 43 96q36 70 85 69q31 -1 55 -24t24 -53v-2z" />
    <glyph glyph-name="Thorn" unicode="&#xde;" horiz-adv-x="1214" 
d="M1133 715q-1 -148 -107 -260q-103 -108 -251 -129q-57 -8 -114 -8h-14q-72 0 -75 14l-2 11v33l2 15q0 10 28 11h8q146 0 232 80.5t86 225.5q0 114 -56 210q-61 104 -163 139q-69 24 -152 24h-2q-125 0 -128 -91l-2 -67l2 -745q2 -64 41 -84q26 -13 97 -20l43 -4
q28 -3 28 -22v-39q-2 -21 -27 -21h-2h-5q-46 0 -138.5 6t-138.5 6q-74 0 -154 -5l-112 -7h-5q-5 0 -8 1l-6 3q-4 2 -4 5v2l-2 19v24q0 27 30 28l55 1q122 2 124 103l2 81l-2 973q-2 61 -26.5 84.5t-85.5 26.5l-85 5q-12 1 -13 18q0 3 1 8v33l3 12q2 4 8 7l14 2l117 -7
q84 -5 145 -5q44 0 164 6l120 6q15 1 22 -3l6 -6l3 -12v-33l-3 -16q-4 -12 -25 -12q-11 -1 -26 -1h-17q-81 0 -105 -15q-35 -22 -35 -91v-72q83 2 114 2q233 -2 363 -76q100 -57 165 -158q69 -106 68 -216z" />
    <glyph glyph-name="germandbls" unicode="&#xdf;" horiz-adv-x="1138" 
d="M1064 287q-1 -126 -81 -219q-85 -98 -209 -98h-2q-77 0 -133 40q-63 45 -63 119v2q0 37 22 67.5t57 30.5h2h2q79 0 88 -110q5 -67 58 -71h2q52 0 80 57q23 45 23 103v6q0 108 -63 204q-36 55 -101 131q-82 96 -104 125q-51 67 -51 128v2q0 70 39 134q26 42 78 113
q83 113 83 204q0 77 -46 136q-50 64 -125 64q-73 0 -138 -57q-57 -51 -86 -126q-45 -116 -45 -335v-746q0 -70 23 -94q18 -19 105 -27l14 -3q3 -1 5 -3l3 -5q1 -5 1 -14v-39l-3 -10q-3 -5 -7 -6l-15 -2l-88 7q-43 3 -113 5l-109 -9q-36 -3 -93 -3l-23 4q-3 2 -3 5l-2 20v37
q0 16 22 16h2h8q109 0 117 90q2 23 2 46v470q0 62 -27 86q-25 21 -90 22h-5q-12 0 -19 4l-7 6q-3 4 -3 11v26l2 8l7 6q5 3 30 9q94 22 114 134l37 205q27 151 161.5 265.5t285.5 115.5q107 1 184.5 -79t77.5 -187q-1 -127 -112 -245l-85 -90q-36 -38 -36 -80q0 -57 45 -107
l164 -183q144 -160 143 -316z" />
    <glyph glyph-name="agrave" unicode="&#xe0;" horiz-adv-x="872" 
d="M868 121q-1 -12 -8 -24l-24 -42q-48 -85 -131 -85q-120 -1 -150 133q-3 13 -8 42l-38 -42q-25 -28 -78 -65q-96 -68 -168 -68h-4h-2q-81 0 -129 84q-41 71 -41 158v2q0 82 158 146l148 60l154 60v93l-2 72q-1 27 -13 59q-32 84 -155 84h-2q-43 0 -86 -17q-70 -28 -70 -79
v-2q0 -12 3 -21l4 -18q0 -12 -10 -18l-16 -10l-69 -40l-17 -8l-15 18q-6 15 -6 33v2q0 72 95 135l53 35l196 109l38 -4q130 -14 186 -97q40 -60 40 -209v-361q0 3 1 -39q3 -108 62 -108h2q26 0 63 35q13 12 24 12q6 -1 10 -4t5 -11zM547 220v201l-66 -29l-94 -45
q-144 -69 -146 -123q0 -16 11 -46l15 -39q19 -50 76 -50q74 1 164 91zM558 1074l-9 -11l-15 -8l-10 -3l-6 3q-8 5 -12 13l-217 291q-81 109 -81 151v1q0 33 22.5 56.5t55.5 23.5q53 0 86 -69q15 -32 44 -96l135 -328q7 -17 7 -24z" />
    <glyph glyph-name="aacute" unicode="&#xe1;" horiz-adv-x="872" 
d="M868 121q-1 -12 -8 -24l-24 -42q-48 -85 -131 -85q-120 -1 -150 133q-3 13 -8 42l-38 -42q-25 -28 -78 -65q-96 -68 -168 -68h-4h-2q-81 0 -129 84q-41 71 -41 158v2q0 82 158 146l148 60l154 60v93l-2 72q-1 27 -13 59q-32 84 -155 84h-2q-43 0 -86 -17q-70 -28 -70 -79
v-2q0 -12 3 -21l4 -18q0 -12 -10 -18l-16 -10l-69 -40l-17 -8l-15 18q-6 15 -6 33v2q0 72 95 135l53 35l196 109l38 -4q130 -14 186 -97q40 -60 40 -209v-361q0 3 1 -39q3 -108 62 -108h2q26 0 63 35q13 12 24 12q6 -1 10 -4t5 -11zM547 220v201l-66 -29l-94 -45
q-144 -69 -146 -123q0 -16 11 -46l15 -39q19 -50 76 -50q74 1 164 91zM665 1512q0 -44 -81 -153l-217 -291q-11 -15 -17 -16l-11 3l-15 9l-9 10q0 7 7 24l136 328q26 64 43 96q36 70 85 69q31 -1 55 -24t24 -53v-2z" />
    <glyph glyph-name="acircumflex" unicode="&#xe2;" horiz-adv-x="872" 
d="M868 121q-1 -12 -8 -24l-24 -42q-48 -85 -131 -85q-120 -1 -150 133q-3 13 -8 42l-38 -42q-25 -28 -78 -65q-96 -68 -168 -68h-4h-2q-81 0 -129 84q-41 71 -41 158v2q0 82 158 146l148 60l154 60v93l-2 72q-1 27 -13 59q-32 84 -155 84h-2q-43 0 -86 -17q-70 -28 -70 -79
v-2q0 -12 3 -21l4 -18q0 -12 -10 -18l-16 -10l-69 -40l-17 -8l-15 18q-6 15 -6 33v2q0 72 95 135l53 35l196 109l38 -4q130 -14 186 -97q40 -60 40 -209v-361q0 3 1 -39q3 -108 62 -108h2q26 0 63 35q13 12 24 12q6 -1 10 -4t5 -11zM547 220v201l-66 -29l-94 -45
q-144 -69 -146 -123q0 -16 11 -46l15 -39q19 -50 76 -50q74 1 164 91zM670 1075l-13 -12l-20 -8l-14 -3q-10 0 -18 15l-198 350l-195 -348q-6 -10 -12 -14q-1 -1 -3 -1h-2l-10 2l-24 12l-10 10q0 8 6 24l154 400q40 89 95 89q65 0 101 -88l9 -22z" />
    <glyph glyph-name="atilde" unicode="&#xe3;" horiz-adv-x="872" 
d="M868 121q-1 -12 -8 -24l-24 -42q-48 -85 -131 -85q-120 -1 -150 133q-3 13 -8 42l-38 -42q-25 -28 -78 -65q-96 -68 -168 -68h-4h-2q-81 0 -129 84q-41 71 -41 158v2q0 82 158 146l148 60l154 60v93l-2 72q-1 27 -13 59q-32 84 -155 84h-2q-43 0 -86 -17q-70 -28 -70 -79
v-2q0 -12 3 -21l4 -18q0 -12 -10 -18l-16 -10l-69 -40l-17 -8l-15 18q-6 15 -6 33v2q0 72 95 135l53 35l196 109l38 -4q130 -14 186 -97q40 -60 40 -209v-361q0 3 1 -39q3 -108 62 -108h2q26 0 63 35q13 12 24 12q6 -1 10 -4t5 -11zM547 220v201l-66 -29l-94 -45
q-144 -69 -146 -123q0 -16 11 -46l15 -39q19 -50 76 -50q74 1 164 91zM758 1368q0 -7 -1 -13q-18 -75 -44 -145q-58 -158 -139 -158h-2q-52 0 -114 72l-42 49q-63 74 -89 74q-3 0 -2 0q-62 -3 -108 -131q-9 -27 -25 -56q-6 -8 -12 -8h-2q-6 0 -11 5l-11 8q-11 8 -11 15v6
q0 81 62.5 203.5t156.5 123.5h2q46 0 111 -78l49 -59q48 -58 72 -58v0q42 0 80 101l22 58q7 19 13 19l21 -5l14 -6q9 -4 10 -17z" />
    <glyph glyph-name="adieresis" unicode="&#xe4;" horiz-adv-x="872" 
d="M614 979h-409v86h409v-86zM821 68q-103 -80 -184 -80q-93 0 -107 127q-125 -138 -256 -138q-84 0 -138 56.5t-54 140.5q0 108 109 160q48 23 118 49l219 80v67q0 240 -125 240q-50 0 -105 -31q-61 -35 -67 -80q-10 -75 -104 -84q-18 0 -18 19q0 77 77 131l95 66
q110 77 174 77q217 0 217 -305q0 -79 -1 -130l-2 -101q-1 -50 -1 -131q0 -127 61 -127q17 0 47 19q14 9 21 13zM528 176v230l-95 -32q-118 -41 -165 -96q-30 -35 -30 -83q0 -49 32.5 -83t81.5 -34q74 0 176 98z" />
    <glyph glyph-name="aring" unicode="&#xe5;" horiz-adv-x="872" 
d="M664 1276q-1 -94 -64 -159t-157 -65q-92 0 -157 64.5t-65 155.5v2v6q0 89 65 153t154 64h2q91 -2 156.5 -65t65.5 -154v-2zM579 1275q0 55 -41 95t-96 40t-95.5 -38t-40.5 -92v-11q0 -56 40.5 -93t96.5 -37t96 40t40 96zM868 121q-1 -12 -8 -24l-24 -42q-48 -85 -131 -85
q-120 -1 -150 133q-3 13 -8 42l-38 -42q-25 -28 -78 -65q-96 -68 -168 -68h-4h-2q-81 0 -129 84q-41 71 -41 158v2q0 82 158 146l148 60l154 60v93l-2 72q-1 27 -13 59q-32 84 -155 84h-2q-43 0 -86 -17q-70 -28 -70 -79v-2q0 -12 3 -21l4 -18q0 -12 -10 -18l-16 -10
l-69 -40l-17 -8l-15 18q-6 15 -6 33v2q0 72 95 135l53 35l196 109l38 -4q130 -14 186 -97q40 -60 40 -209v-361q0 3 1 -39q3 -108 62 -108h2q26 0 63 35q13 12 24 12q6 -1 10 -4t5 -11zM547 220v201l-66 -29l-94 -45q-144 -69 -146 -123q0 -16 11 -46l15 -39q19 -50 76 -50
q74 1 164 91z" />
    <glyph glyph-name="ae" unicode="&#xe6;" horiz-adv-x="1327" 
d="M1263 184q0 -6 -7 -14q-3 -5 -18 -22q-152 -178 -340 -178h-2h-2q-193 0 -297 153q-10 12 -25 41l-48 -45q-98 -92 -215 -134q-42 -15 -71 -15h-4q-78 0 -131 79q-47 70 -48 153v4q0 70 119 126q43 20 65 29q18 7 236 87l71 26v118q0 93 -33 136q-36 46 -127 56
q-32 4 -60 4q-48 1 -84 -21q-42 -26 -42 -72v-2l3 -27q1 -9 1 -13q0 -11 -17 -21l-65 -39l-30 -16l-16 18q-9 16 -9 35v4v2q0 91 166 182l163 89l53 -5q194 -18 225 -130l3 3q16 14 36 29q134 103 285 103q150 0 212 -115q39 -73 38 -178q-1 -48 -22 -52l-44 -9l-491 -112
q0 -21 3 -52q12 -123 89 -208q83 -92 203 -92h4q109 1 204 96l21 21l12 9l12 -5l16 -13l7 -8q1 -2 1 -5zM1081 664q1 54 -34 108q-38 57 -94 57q-96 -1 -181 -94q-73 -81 -79 -188l-2 -39l327 92q62 20 63 64zM546 262v144q-47 -15 -76 -25l-109 -39q-152 -54 -152 -123
q0 -47 28 -86q31 -44 76 -44h2h2q42 0 116 52q68 47 95 88z" />
    <glyph glyph-name="ccedilla" unicode="&#xe7;" horiz-adv-x="872" 
d="M831 207l-2 -6l-10 -20q-6 -12 -31.5 -45.5t-57.5 -63.5q-69 -64 -119 -80l-48 -15l-20 -4l-66 -74l34 -6q111 -20 113 -129v-2q0 -82 -91 -145q-72 -49 -169 -49q-157 0 -158 74q0 42 35 42h4q14 0 37 -12l27 -14q42 -22 84 -21q37 0 69.5 23.5t32.5 59.5q-1 83 -82 79
l-61 -3l-10 10l-16 19l-6 12l14 14l138 119l-15 1q-102 7 -195 63q-137 82 -176 233q-17 66 -17 130v16q0 175 95 302q143 191 382 192q123 0 209 -64q52 -39 53 -93q0 -32 -19 -57q-22 -28 -49 -28h-2q-42 0 -126 102q-51 62 -124 62q-131 1 -203 -112q-62 -97 -62 -234
q0 -150 82 -263q95 -130 236 -131h6q74 0 146 46q37 24 59 46l32 32q7 7 16 12l8 2l5 -2l14 -9z" />
    <glyph glyph-name="egrave" unicode="&#xe8;" horiz-adv-x="872" 
d="M805 181q-1 -11 -11 -22l-30 -34q-137 -155 -320 -155h-4q-93 0 -177 48q-195 112 -195 367v6q0 204 114 349q131 166 322 167q132 1 222 -109q79 -96 77 -238q0 -43 -25 -43h-2h-546q-8 -50 -8 -79v-6q0 -109 62 -201q64 -95 165 -128q43 -14 78 -14h6q97 0 177 69
l44 38q13 11 24 11q5 0 11 -5l8 -7q8 -7 8 -12v-2zM636 665v2q0 70 -48 115.5t-118 46.5q-48 0 -89 -23q-55 -31 -91 -88q-28 -44 -39 -82l-12 -41l299 1q56 1 69 9q29 18 29 60zM558 1074l-9 -11l-15 -8l-10 -3l-6 3q-8 5 -12 13l-217 291q-81 109 -81 151v1
q0 33 22.5 56.5t55.5 23.5q53 0 86 -69q15 -32 44 -96l135 -328q7 -17 7 -24z" />
    <glyph glyph-name="eacute" unicode="&#xe9;" horiz-adv-x="873" 
d="M805 181q-1 -11 -11 -22l-30 -34q-137 -155 -320 -155h-4q-93 0 -177 48q-195 112 -195 367v6q0 204 114 349q131 166 322 167q132 1 222 -109q79 -96 77 -238q0 -43 -25 -43h-2h-546q-8 -50 -8 -79v-6q0 -109 62 -201q64 -95 165 -128q43 -14 78 -14h6q97 0 177 69
l44 38q13 11 24 11q5 0 11 -5l8 -7q8 -7 8 -12v-2zM636 665v2q0 70 -48 115.5t-118 46.5q-48 0 -89 -23q-55 -31 -91 -88q-28 -44 -39 -82l-12 -41l299 1q56 1 69 9q29 18 29 60zM693 1512q0 -44 -81 -153l-217 -291q-11 -15 -17 -16l-11 3l-15 9l-9 10q0 7 7 24l136 328
q26 64 43 96q36 70 85 69q31 -1 55 -24t24 -53v-2z" />
    <glyph glyph-name="ecircumflex" unicode="&#xea;" horiz-adv-x="872" 
d="M805 181q-1 -11 -11 -22l-30 -34q-137 -155 -320 -155h-4q-93 0 -177 48q-195 112 -195 367v6q0 204 114 349q131 166 322 167q132 1 222 -109q79 -96 77 -238q0 -43 -25 -43h-2h-546q-8 -50 -8 -79v-6q0 -109 62 -201q64 -95 165 -128q43 -14 78 -14h6q97 0 177 69
l44 38q13 11 24 11q5 0 11 -5l8 -7q8 -7 8 -12v-2zM636 665v2q0 70 -48 115.5t-118 46.5q-48 0 -89 -23q-55 -31 -91 -88q-28 -44 -39 -82l-12 -41l299 1q56 1 69 9q29 18 29 60zM715 1075l-13 -12l-20 -8l-14 -3q-10 0 -18 15l-198 350l-195 -348q-6 -10 -12 -14
q-1 -1 -3 -1h-2l-10 2l-24 12l-10 10q0 8 6 24l154 400q40 89 95 89q65 0 101 -88l9 -22z" />
    <glyph glyph-name="edieresis" unicode="&#xeb;" horiz-adv-x="0" 
d="M614 979h-409v86h409v-86zM750 131q-132 -145 -316 -145q-158 0 -262 137q-96 125 -96 287q0 135 59 247q64 122 179 177q76 36 167 36q150 0 227 -125q35 -57 35 -127q0 -52 -17.5 -70t-68.5 -18h-442q-6 -33 -6 -63q0 -201 149 -307q70 -51 166 -51q97 0 197 63z
M604 649q0 63 -43 104.5t-106 41.5q-157 0 -226 -195h295q80 0 80 49z" />
    <glyph glyph-name="igrave" unicode="&#xec;" horiz-adv-x="568" 
d="M515 11l-4 -18q-2 -3 -6 -3l-18 -2l-64 3q-54 4 -124 9l-207 -12h-4q-25 0 -26 10l-3 13v35l3 13l6 7q5 2 19 4q123 0 123 113v433q0 84 -51 103l-32 12q-25 9 -25 22v2v19v2q0 8 4 12l20 13l13 7l181 92q15 7 22 7q16 -1 20 -21l2 -42l1 -664q2 -102 83 -107l45 -3
l13 -2q3 -1 5 -3l4 -18v-36zM404 1074l-9 -11l-15 -8l-10 -3l-6 3q-8 5 -12 13l-217 291q-81 109 -81 151v1q0 33 22.5 56.5t55.5 23.5q53 0 86 -69q15 -32 44 -96l135 -328q7 -17 7 -24z" />
    <glyph glyph-name="iacute" unicode="&#xed;" horiz-adv-x="568" 
d="M515 11l-4 -18q-2 -3 -6 -3l-18 -2l-64 3q-54 4 -124 9l-207 -12h-4q-25 0 -26 10l-3 13v35l3 13l6 7q5 2 19 4q123 0 123 113v433q0 84 -51 103l-32 12q-25 9 -25 22v2v19v2q0 8 4 12l20 13l13 7l181 92q15 7 22 7q16 -1 20 -21l2 -42l1 -664q2 -102 83 -107l45 -3
l13 -2q3 -1 5 -3l4 -18v-36zM511 1512q0 -44 -81 -153l-217 -291q-11 -15 -17 -16l-11 3l-15 9l-9 10q0 7 7 24l136 328q26 64 43 96q36 70 85 69q31 -1 55 -24t24 -53v-2z" />
    <glyph glyph-name="icircumflex" unicode="&#xee;" horiz-adv-x="570" 
d="M515 11l-4 -18q-2 -3 -6 -3l-18 -2l-64 3q-54 4 -124 9l-207 -12h-4q-25 0 -26 10l-3 13v35l3 13l6 7q5 2 19 4q123 0 123 113v433q0 84 -51 103l-32 12q-25 9 -25 22v2v19v2q0 8 4 12l20 13l13 7l181 92q15 7 22 7q16 -1 20 -21l2 -42l1 -664q2 -102 83 -107l45 -3
l13 -2q3 -1 5 -3l4 -18v-36zM530 1075l-13 -12l-20 -8l-14 -3q-10 0 -18 15l-198 350l-195 -348q-6 -10 -12 -14q-1 -1 -3 -1h-2l-10 2l-24 12l-10 10q0 8 6 24l154 400q40 89 95 89q65 0 101 -88l9 -22z" />
    <glyph glyph-name="idieresis" unicode="&#xef;" horiz-adv-x="0" 
d="M459 1039h-385v86h385v-86zM492 0q-113 10 -199 10q-94 0 -211 -10v68q86 0 111.5 27t25.5 114q0 175 -2 379q-1 77 -21 104q-25 33 -98 33l2 53q123 35 246 109l37 -17q-19 -123 -18 -231l2 -178q1 -63 0 -138q-1 -38 -2 -118q-1 -77 19 -104q24 -33 97 -33h11v-68z" />
    <glyph glyph-name="eth" unicode="&#xf0;" horiz-adv-x="1100" 
d="M1012 581q0 -265 -102 -419q-127 -192 -367 -192h-10q-189 0 -320 132.5t-131 321.5v6q0 192 139.5 335t330.5 142q108 -1 242 -81q-16 72 -29 112q-41 129 -107 234l-34 54l-199 -118q-10 -6 -15 -6h-2h-2q-9 0 -15 10l-26 35q-6 6 -6 12v2v2q1 5 7 10l13 9l190 113
l-41 44q-60 64 -115 103l-57 40q-9 6 -12 12l-4 11q1 9 13 19l52 43q8 7 16 7t15 -5l18 -13l70 -50q76 -55 138 -119l22 -23l164 97q10 6 17 7h2q2 0 4 -2l7 -6l30 -38q7 -9 7 -16q-1 -6 -4 -10l-9 -7l-155 -91l38 -49q34 -44 78 -120q149 -258 149 -548zM845 439
q2 203 -132 319q-81 71 -177 71q-136 1 -221 -124q-66 -97 -66 -243v-8q1 -164 68 -271q85 -135 232 -135h2h4q135 0 220 131q69 106 70 260z" />
    <glyph glyph-name="ntilde" unicode="&#xf1;" horiz-adv-x="1138" 
d="M1087 17l-2 -17l-5 -7l-9 -4q-4 -1 -9 -1h-5h-3q12 0 -47 4l-59 4q-64 4 -84 4q-35 -1 -84 -5l-68 -6q-11 -1 -31 -1h-21q-29 0 -29 27v25l2 16l4 7q6 5 25 7l53 5q63 6 66 130l1 48v338q0 103 -24 138q-40 59 -122 59h-2q-103 0 -212 -80l-57 -42v-473q0 -112 78 -120
q28 0 67 -11l4 -7l2 -16v-24l-3 -14q-8 -16 -44 -13l-68 5q-100 7 -108 7l-70 -3q-37 -2 -71 -5q-40 -4 -54 -4h-12q-6 0 -9 1l-10 5q-5 2 -5 7l-2 18v25l3 14q2 11 28 12q77 3 100 39q20 31 20 109v394q0 97 -53 110l-36 9q-19 5 -19 20v3v27q0 8 4 13l10 7l26 11l214 95
l8 -18v-134q58 43 181 115q83 37 173 37h2q196 0 211 -183q2 -29 3 -80l1 -75v-398q0 -59 24 -78t94 -23q26 -2 31 -13l2 -14v-26zM889 1368q0 -7 -1 -13q-18 -75 -44 -145q-58 -158 -139 -158h-2q-52 0 -114 72l-42 49q-63 74 -89 74q-3 0 -2 0q-62 -3 -108 -131
q-9 -27 -25 -56q-6 -8 -12 -8h-2q-6 0 -11 5l-11 8q-11 8 -11 15v6q0 81 62.5 203.5t156.5 123.5h2q46 0 111 -78l49 -59q48 -58 72 -58v0q42 0 80 101l22 58q7 19 13 19l21 -5l14 -6q9 -4 10 -17z" />
    <glyph glyph-name="ograve" unicode="&#xf2;" horiz-adv-x="1100" 
d="M1015 443q0 -140 -78 -258q-142 -214 -401 -215h-2q-188 0 -320 130t-132 318v2q0 143 73.5 262.5t201.5 179.5q96 45 201 45q265 0 395 -233q62 -112 62 -231zM848 440v4q0 151 -80 257q-96 128 -233 128h-2q-135 0 -219 -126q-65 -98 -65 -249q0 -161 69 -271
q85 -135 232 -135h2h4q80 0 143 47q148 110 149 345zM670 1074l-9 -11l-15 -8l-10 -3l-6 3q-8 5 -12 13l-217 291q-81 109 -81 151v1q0 33 22.5 56.5t55.5 23.5q53 0 86 -69q15 -32 44 -96l135 -328q7 -17 7 -24z" />
    <glyph glyph-name="oacute" unicode="&#xf3;" horiz-adv-x="1100" 
d="M1015 443q0 -140 -78 -258q-142 -214 -401 -215h-2q-188 0 -320 130t-132 318v2q0 143 73.5 262.5t201.5 179.5q96 45 201 45q265 0 395 -233q62 -112 62 -231zM848 440v4q0 151 -80 257q-96 128 -233 128h-2q-135 0 -219 -126q-65 -98 -65 -249q0 -161 69 -271
q85 -135 232 -135h2h4q80 0 143 47q148 110 149 345zM777 1512q0 -44 -81 -153l-217 -291q-11 -15 -17 -16l-11 3l-15 9l-9 10q0 7 7 24l136 328q26 64 43 96q36 70 85 69q31 -1 55 -24t24 -53v-2z" />
    <glyph glyph-name="ocircumflex" unicode="&#xf4;" horiz-adv-x="1100" 
d="M1015 443q0 -140 -78 -258q-142 -214 -401 -215h-2q-188 0 -320 130t-132 318v2q0 143 73.5 262.5t201.5 179.5q96 45 201 45q265 0 395 -233q62 -112 62 -231zM848 440v4q0 151 -80 257q-96 128 -233 128h-2q-135 0 -219 -126q-65 -98 -65 -249q0 -161 69 -271
q85 -135 232 -135h2h4q80 0 143 47q148 110 149 345zM797 1075l-13 -12l-20 -8l-14 -3q-10 0 -18 15l-198 350l-195 -348q-6 -10 -12 -14q-1 -1 -3 -1h-2l-10 2l-24 12l-10 10q0 8 6 24l154 400q40 89 95 89q65 0 101 -88l9 -22z" />
    <glyph glyph-name="otilde" unicode="&#xf5;" horiz-adv-x="1100" 
d="M1015 443q0 -140 -78 -258q-142 -214 -401 -215h-2q-188 0 -320 130t-132 318v2q0 143 73.5 262.5t201.5 179.5q96 45 201 45q265 0 395 -233q62 -112 62 -231zM848 440v4q0 151 -80 257q-96 128 -233 128h-2q-135 0 -219 -126q-65 -98 -65 -249q0 -161 69 -271
q85 -135 232 -135h2h4q80 0 143 47q148 110 149 345zM870 1368q0 -7 -1 -13q-18 -75 -44 -145q-58 -158 -139 -158h-2q-52 0 -114 72l-42 49q-63 74 -89 74q-3 0 -2 0q-62 -3 -108 -131q-9 -27 -25 -56q-6 -8 -12 -8h-2q-6 0 -11 5l-11 8q-11 8 -11 15v6q0 81 62.5 203.5
t156.5 123.5h2q46 0 111 -78l49 -59q48 -58 72 -58v0q42 0 80 101l22 58q7 19 13 19l21 -5l14 -6q9 -4 10 -17z" />
    <glyph glyph-name="odieresis" unicode="&#xf6;" horiz-adv-x="1100" 
d="M807 1019h-557v86h557v-86zM967 424q0 -120 -60.5 -221t-165.5 -159t-225 -58q-266 0 -384 219q-56 102 -56 229q0 259 228 387q105 58 228 58q192 0 315 -132q120 -128 120 -323zM807 406q0 216 -133 337q-66 60 -162 60q-169 0 -240 -168q-32 -76 -32 -158
q0 -230 126 -353q66 -65 164 -65q180 0 247 177q30 79 30 170z" />
    <glyph glyph-name="divide" unicode="&#xf7;" horiz-adv-x="1669" 
d="M944 899q1 -47 -31 -81.5t-79 -34.5h-2h-3q-48 0 -79 31.5t-31 79.5v2q0 48 32 80t80 32q111 -1 113 -109zM1361 460q0 -23 -24 -23h-1011q-24 0 -24 23v84v2q0 22 24 22h1011q24 0 24 -24v-84zM944 115q0 -47 -32.5 -82.5t-79.5 -35.5h-2h-2q-48 0 -78.5 32t-30.5 79v2
q0 48 32 80t80 32q113 -1 113 -103v-4z" />
    <glyph glyph-name="oslash" unicode="&#xf8;" horiz-adv-x="1100" 
d="M1011 913l-11 -16l-115 -136q123 -153 124 -316q1 -195 -133.5 -334.5t-329.5 -140.5h-4q-126 0 -219 56q-26 16 -56 39l-66 -82q-17 -21 -44 -21h-65l-14 11l2 6q4 7 15 20l106 124q-112 146 -112 294v6q0 140 72.5 259.5t196.5 179.5q95 46 193 45q129 -1 232 -62
l39 -23l86 95q5 3 28 3h58zM743 734l-30 29q-68 66 -175 66h-2q-143 0 -229 -128q-64 -95 -64 -257v-12q0 -116 31 -173l19 -35zM855 431q0 96 -38 184l-20 46l-454 -516l36 -38q56 -59 162 -59h4q141 0 228 126q81 118 82 257z" />
    <glyph glyph-name="ugrave" unicode="&#xf9;" horiz-adv-x="1100" 
d="M670 1074l-9 -11l-15 -8l-10 -3l-6 3q-8 5 -12 13l-217 291q-81 109 -81 151v1q0 33 22.5 56.5t55.5 23.5q53 0 86 -69q15 -32 44 -96l135 -328q7 -17 7 -24zM1059 94q0 -14 -4 -18l-21 -9l-244 -92q-16 -5 -20 -5q-16 1 -16 18v143l-42 -35q-151 -126 -261 -126h-10
q-107 0 -181 75q-77 78 -77 214v359q0 63 -9 96q-14 51 -71 55l-40 3h-7q-14 0 -17 3l-5 6l-2 13v27l2 8q3 8 31 13l18 3l189 27q35 5 43 5l12 -2q10 -3 10 -34v-470q0 -131 35 -194q48 -88 149 -88q100 0 195 90q11 11 38 36l-3 450q-5 104 -85 106l-36 1q-27 1 -27 17v29
l2 11l5 5q11 4 35 8l240 35l14 -3q9 -3 9 -26l2 -670q2 -42 53 -42h8q14 0 36 4q26 5 36 6q16 -1 16 -17v-35z" />
    <glyph glyph-name="uacute" unicode="&#xfa;" horiz-adv-x="1100" 
d="M747 1512q0 -44 -81 -153l-217 -291q-11 -15 -17 -16l-11 3l-15 9l-9 10q0 7 7 24l136 328q26 64 43 96q36 70 85 69q31 -1 55 -24t24 -53v-2zM1059 94q0 -14 -4 -18l-21 -9l-244 -92q-16 -5 -20 -5q-16 1 -16 18v143l-42 -35q-151 -126 -261 -126h-10q-107 0 -181 75
q-77 78 -77 214v359q0 63 -9 96q-14 51 -71 55l-40 3h-7q-14 0 -17 3l-5 6l-2 13v27l2 8q3 8 31 13l18 3l189 27q35 5 43 5l12 -2q10 -3 10 -34v-470q0 -131 35 -194q48 -88 149 -88q100 0 195 90q11 11 38 36l-3 450q-5 104 -85 106l-36 1q-27 1 -27 17v29l2 11l5 5
q11 4 35 8l240 35l14 -3q9 -3 9 -26l2 -670q2 -42 53 -42h8q14 0 36 4q26 5 36 6q16 -1 16 -17v-35z" />
    <glyph glyph-name="ucircumflex" unicode="&#xfb;" horiz-adv-x="1100" 
d="M827 1075l-13 -12l-20 -8l-14 -3q-10 0 -18 15l-198 350l-195 -348q-6 -10 -12 -14q-1 -1 -3 -1h-2l-10 2l-24 12l-10 10q0 8 6 24l154 400q40 89 95 89q65 0 101 -88l9 -22zM1059 94q0 -14 -4 -18l-21 -9l-244 -92q-16 -5 -20 -5q-16 1 -16 18v143l-42 -35
q-151 -126 -261 -126h-10q-107 0 -181 75q-77 78 -77 214v359q0 63 -9 96q-14 51 -71 55l-40 3h-7q-14 0 -17 3l-5 6l-2 13v27l2 8q3 8 31 13l18 3l189 27q35 5 43 5l12 -2q10 -3 10 -34v-470q0 -131 35 -194q48 -88 149 -88q100 0 195 90q11 11 38 36l-3 450
q-5 104 -85 106l-36 1q-27 1 -27 17v29l2 11l5 5q11 4 35 8l240 35l14 -3q9 -3 9 -26l2 -670q2 -42 53 -42h8q14 0 36 4q26 5 36 6q16 -1 16 -17v-35z" />
    <glyph glyph-name="udieresis" unicode="&#xfc;" horiz-adv-x="1100" 
d="M770 1039h-508v86h508v-86zM1059 94q0 -14 -4 -18l-21 -9l-244 -92q-16 -5 -20 -5q-16 1 -16 18v143l-42 -35q-151 -126 -261 -126h-10q-107 0 -181 75q-77 78 -77 214v359q0 63 -9 96q-14 51 -71 55l-40 3h-7q-14 0 -17 3l-5 6l-2 13v27l2 8q3 8 31 13l18 3l189 27
q35 5 43 5l12 -2q10 -3 10 -34v-470q0 -131 35 -194q48 -88 149 -88q100 0 195 90q11 11 38 36l-3 450q-5 104 -85 106l-36 1q-27 1 -27 17v29l2 11l5 5q11 4 35 8l240 35l14 -3q9 -3 9 -26l2 -670q2 -42 53 -42h8q14 0 36 4q26 5 36 6q16 -1 16 -17v-35z" />
    <glyph glyph-name="yacute" unicode="&#xfd;" horiz-adv-x="1100" 
d="M1075 836l-2 -19q-1 -4 -4 -6l-17 -4q-34 -2 -65 -7q-55 -9 -115 -124l-32 -61l-393 -833q-98 -212 -180 -275q-36 -28 -80 -28h-8q-92 0 -92 86v2q0 86 79 87l39 -4q10 -2 20 -2q8 0 6 0q65 1 170 211l28 56l52 114l-254 647q-18 44 -30 65q-33 58 -89 62l-60 4
q-17 1 -20 5l-4 7q-3 5 -3 11q0 3 1 6v23l2 17l5 7q6 6 22 6q31 -1 105 -7q68 -5 106 -5q78 0 126 6q61 8 81 6l23 -2l5 -4q4 -8 4 -25v-23l-2 -17l-5 -7q-5 -4 -21 -4q-98 0 -109 -24l-3 -12q0 -12 10 -38l19 -49l175 -472l234 503q13 25 13 41v2v2q0 38 -47 42l-60 5
q-24 2 -24 26v23q0 34 28 33q26 -1 83 -7q44 -5 72 -5h12l121 10l48 2l26 -4l4 -27v-22zM790 1512q0 -44 -81 -153l-217 -291q-11 -15 -17 -16l-11 3l-15 9l-9 10q0 7 7 24l136 328q26 64 43 96q36 70 85 69q31 -1 55 -24t24 -53v-2z" />
    <glyph glyph-name="thorn" unicode="&#xfe;" horiz-adv-x="1100" 
d="M1011 480q1 -163 -87 -287q-108 -150 -295 -202q-75 -21 -149 -21h-17q-48 0 -86 8l-48 10l1 -310q1 -75 19 -97q22 -27 92 -30l45 -2q26 -1 26 -26v-27q0 -23 -11 -28l-17 -1l-47 3l-67 6q-34 3 -92 3q-63 0 -97 -3l-56 -5l-66 -4h-4q-25 0 -29 13l-2 14v28l2 14l5 7
q5 5 18 6l45 3q78 5 80 129l1 52v1487q0 82 -21 119q-26 46 -100 59q-30 5 -30 24v2v17v2q0 10 9 16l18 9l48 21l197 79q6 3 17 6h2q14 0 14 -15v-766l75 41q134 73 245 73q159 0 267 -137q94 -118 95 -290zM857 426q-1 138 -77 242q-88 120 -232 120h-2q-90 0 -156 -37
l-61 -34v-569l36 -22q82 -50 205 -50h4q126 0 210 113q74 100 73 237z" />
    <glyph glyph-name="ydieresis" unicode="&#xff;" horiz-adv-x="1100" 
d="M1075 836l-2 -19q-1 -4 -4 -6l-17 -4q-34 -2 -65 -7q-55 -9 -115 -124l-32 -61l-393 -833q-98 -212 -180 -275q-36 -28 -80 -28h-8q-92 0 -92 86v2q0 86 79 87l39 -4q10 -2 20 -2q8 0 6 0q65 1 170 211l28 56l52 114l-254 647q-18 44 -30 65q-33 58 -89 62l-60 4
q-17 1 -20 5l-4 7q-3 5 -3 11q0 3 1 6v23l2 17l5 7q6 6 22 6q31 -1 105 -7q68 -5 106 -5q78 0 126 6q61 8 81 6l23 -2l5 -4q4 -8 4 -25v-23l-2 -17l-5 -7q-5 -4 -21 -4q-98 0 -109 -24l-3 -12q0 -12 10 -38l19 -49l175 -472l234 503q13 25 13 41v2v2q0 38 -47 42l-60 5
q-24 2 -24 26v23q0 34 28 33q26 -1 83 -7q44 -5 72 -5h12l121 10l48 2l26 -4l4 -27v-22zM876 1229q0 -47 -32.5 -80t-79.5 -33q-48 0 -80.5 31.5t-32.5 80.5q0 48 32 80.5t80 32.5q46 0 79.5 -33t33.5 -79zM459 1229q0 -47 -32.5 -80t-79.5 -33q-48 0 -80.5 31.5t-32.5 80.5
q0 48 32 80.5t80 32.5q46 0 79.5 -33t33.5 -79z" />
    <glyph glyph-name="OE" unicode="&#x152;" horiz-adv-x="2124" 
d="M2069 279q0 -13 -5 -31l-63 -225q-6 -22 -9 -25q-5 -7 -12 -8l-20 -2l-68 2l-584 10q-98 2 -170 -6l-129 -14q-92 -10 -143 -10h-18q-98 0 -195 25q-151 39 -274 133q-278 213 -278 549q0 313 226 539t539 226h2q102 0 272 -20l51 -6q34 -4 114 -4h128l289 12h193l18 -2
l5 -3q3 -3 4 -6l2 -19v-225q0 -54 -20 -54v0h-4q-4 0 -6 1l-25 6q-20 5 -20 24v2v22l-3 33q-6 63 -56.5 85t-164.5 32q-96 9 -194 8q-96 0 -128 -28q-35 -30 -35 -123v-393l52 -6l74 -2h23q166 0 217 39q32 25 60 103q7 21 30 23h31l17 -2q3 -1 6 -4l3 -12q0 -28 -7 -75
q-5 -34 -5 -106v-23q0 -63 7 -137l5 -53v-2q0 -19 -12 -21l-15 -3h-32l-14 3l-8 5q-4 4 -6 20l-10 77q-18 80 -141 82l-114 2q-54 1 -107 -3l-54 -4v-462q0 -79 36 -109q32 -27 114 -28l157 -2h33q195 0 237 21q19 10 65 69q19 39 64 113q7 9 20 10l22 -4l22 -6zM1108 285
v893q0 181 -227 180q-271 -1 -426 -179q-147 -169 -147 -444q0 -315 205 -521q159 -160 382 -160q8 0 6 0q124 2 170 54q37 42 37 177z" />
    <glyph glyph-name="oe" unicode="&#x153;" horiz-adv-x="1555" 
d="M1471 181q0 -16 -19 -36q-162 -174 -322 -175h-6q-60 0 -122 22q-116 41 -163 104l-33 44l-43 -49q-106 -121 -271 -121h-4q-107 0 -203 62q-92 58 -147 154q-61 106 -61 235q0 189 122 330q135 156 314 156q170 0 295 -141l38 -43l37 43q120 139 287 141q83 1 160 -48
q133 -85 138 -300l-2 -23q-5 -19 -21 -19h-536l-4 -34l-2 -45v-4q0 -113 68 -211q93 -133 232 -134q100 -1 216 107q12 11 21 13l10 -4l15 -13q6 -5 6 -11zM1301 661v4q0 65 -44.5 114.5t-108.5 49.5q-76 0 -141 -61q-57 -53 -79 -133l-11 -40l319 2q65 2 65 64zM749 428
q-1 143 -62 253q-82 147 -203 148q-80 0 -142 -69q-54 -59 -77 -144q-21 -78 -21 -155v-7q0 -148 56 -256q78 -150 198 -150h2h2q115 0 190 139q58 107 57 241z" />
    <glyph glyph-name="Scaron" unicode="&#x160;" 
d="M757 2067l-6 -24l-154 -401q-41 -90 -94 -90q-67 0 -101 88l-9 23l-154 405l3 8q3 4 8 6l20 8l18 4q3 -1 5 -3l9 -13l200 -351l194 349q6 12 11 15l16 -2l23 -12zM897 398q-2 -218 -177 -337q-54 -36 -125 -61q-87 -30 -167 -30h-14q-67 0 -134 18l-89 24l-55 18
q-26 8 -29 34l-11 86l-24 144v2q0 12 15 15l28 6q6 1 13 1q20 -1 33 -44q15 -51 50 -97q94 -123 235 -123h4q114 1 199 78t86 190q1 112 -124 213q-69 56 -117 81l-150 78q-157 82 -209 179q-39 73 -39 171q0 192 133 299q122 99 319 99q71 0 138 -15q108 -24 124 -54l3 -24
l12 -210q1 -6 1 -12q-1 -17 -21 -19l-27 -3h-3q-17 0 -24 21l-11 34q-64 197 -236 198q-77 0 -140 -39q-67 -42 -93 -112q-13 -35 -13 -69v-6v-2q0 -133 135 -222q42 -28 141 -78q216 -110 296 -216q68 -90 67 -216z" />
    <glyph glyph-name="scaron" unicode="&#x161;" horiz-adv-x="722" 
d="M648 1567l-6 -24l-154 -401q-41 -90 -94 -90q-67 0 -101 88l-9 23l-154 405l3 8q3 4 8 6l20 8l18 4q3 -1 5 -3l9 -13l200 -351l194 349q6 12 11 15l16 -2l23 -12zM654 244q0 -117 -101 -198q-94 -76 -214 -76q-86 0 -182 46l-46 22q-28 13 -30 41l-2 24l-13 107
q-1 3 -1 7v5q0 10 9 14l16 4l16 2q9 0 15 -8l9 -17q6 -20 15 -34q10 -22 30 -49q64 -86 176 -86h2q60 1 103 43t44 102q1 75 -92 135l-131 85q-105 68 -148 135q-32 50 -32 106v4v2q0 117 93 186q84 61 205 61q102 0 207 -48q20 -9 20 -34v-147l-2 -12l-6 -4l-17 -4l-12 -1
q-5 0 -6 3l-7 10q-8 11 -15 32l-21 43q-54 84 -161 84q-55 0 -97 -28q-48 -32 -48 -85v-2q0 -71 97 -133l96 -61l84 -57q48 -33 74 -56q73 -66 73 -161v-2z" />
    <glyph glyph-name="Ydieresis" unicode="&#x178;" horiz-adv-x="1479" 
d="M1448 1372l-3 -18q-3 -11 -23 -12q-98 -7 -153 -74l-66 -81l-358 -488v-496q0 -114 116 -126l68 -7q27 -3 27 -24v-30q-1 -10 -3 -17l-7 -8q-4 -3 -14 -3h-5l-156 8l-128 4q-33 1 -119 -4l-137 -8q-27 1 -30 11l-3 16v27q0 28 27 28q85 0 127 18q51 22 54 111l3 96v381
l-427 590q-50 65 -109 70l-72 6q-24 2 -29 14l-3 13v28l3 16q2 11 20 11h3q20 0 133 -8q56 -4 141 -4h66q47 0 73 3q78 9 117 9q29 0 29 -29v-34q0 -5 -2 -10l-4 -6q-3 -3 -13 -3h-5l-56 -3q-80 -4 -80 -42q0 -21 21 -51l38 -55l24 -31l272 -368l336 471q8 16 9 30v0
q0 40 -72 45l-63 4q-27 2 -27 13l-2 17v29l3 14l6 7q6 1 22 2l213 -12q79 -4 126 4t68 8q22 0 24 -23v-29zM1130 1735q0 -47 -32.5 -80t-79.5 -33q-48 0 -80.5 31.5t-32.5 80.5q0 48 32 80.5t80 32.5q46 0 79.5 -33t33.5 -79zM713 1735q0 -47 -32.5 -80t-79.5 -33
q-48 0 -80.5 31.5t-32.5 80.5q0 48 32 80.5t80 32.5q46 0 79.5 -33t33.5 -79z" />
    <glyph glyph-name="Zcaron" unicode="&#x17d;" horiz-adv-x="1365" 
d="M970 2067l-6 -24l-154 -401q-41 -90 -94 -90q-67 0 -101 88l-9 23l-154 405l3 8q3 4 8 6l20 8l18 4q3 -1 5 -3l9 -13l200 -351l194 349q6 12 11 15l16 -2l23 -12zM1279 271l-2 -14l-37 -112q-22 -67 -34 -116q-7 -29 -30 -29h-1034q-72 0 -72 22v2q1 14 14 30l41 52
l869 1222l-617 -2q-70 -1 -107 -29q-32 -24 -67 -92q-16 -32 -40 -72q-11 -18 -19 -18h-1q-6 0 -19 5l-23 9q-5 1 -9 7q-4 3 -4 9v2l4 17q10 26 17 53l30 109q14 50 22 94l11 59q4 19 22 21h21q21 0 42 -28q46 -60 163 -60h790q15 0 36 -3l14 -6q4 -4 4 -9v-1q0 -8 -14 -28
l-23 -33l-891 -1248h444q149 0 227 19q89 22 162 128l35 51q10 14 16 15l19 -3l25 -6l10 -5q5 -5 5 -12z" />
    <glyph glyph-name="zcaron" unicode="&#x17e;" horiz-adv-x="947" 
d="M763 1567l-6 -24l-154 -401q-41 -90 -94 -90q-67 0 -101 88l-9 23l-154 405l3 8q3 4 8 6l20 8l18 4q3 -1 5 -3l9 -13l200 -351l194 349q6 12 11 15l16 -2l23 -12zM929 242l-4 -18l-66 -201q-8 -23 -29 -23l-740 1q-32 1 -32 15q0 10 8 21l14 20l557 742h-259
q-143 0 -195 -66q-19 -24 -28 -43l-14 -22q-8 -8 -16 -8l-14 3l-26 10l-6 5q-3 3 -3 10t5 20l13 34q8 20 25 81q7 34 26 98q6 16 31 17l20 -2q8 -5 14 -17q18 -38 79 -41q24 -1 27 -1h526l17 -7l-5 -19l-10 -14l-557 -759l394 3q69 4 114 55q23 26 35 52l19 40q17 36 31 36
l16 -4l20 -7z" />
    <glyph glyph-name="florin" unicode="&#x192;" 
d="M1091 1440q-1 -74 -75 -75h-2q-40 0 -82.5 69.5t-84.5 69.5q-88 1 -175 -217q-27 -67 -89 -278l-39 -132h175q31 0 31 -20v-2l-12 -37q-6 -19 -31 -19h-185q-29 -132 -40 -176q-125 -503 -288 -870q-66 -148 -168 -232q-51 -42 -118 -42h-4q-38 0 -69 17q-46 25 -46 72v2
v2q0 32 27 56t59 24t46 -17l27 -32q7 -10 15 -14q5 -3 12 -3q59 3 129 222l137 428l148 563h-133q-28 0 -30 16v10l12 37q1 15 36 15h132l46 155q59 200 130 343q98 199 296 199q51 0 103 -18q112 -39 110 -116z" />
    <glyph glyph-name="circumflex" unicode="&#x2c6;" 
d="M770 1075l-13 -12l-20 -8l-14 -3q-10 0 -18 15l-198 350l-195 -348q-6 -10 -12 -14q-1 -1 -3 -1h-2l-10 2l-24 12l-10 10q0 8 6 24l154 400q40 89 95 89q65 0 101 -88l9 -22z" />
    <glyph glyph-name="tilde" unicode="&#x2dc;" 
d="M813 1368q0 -7 -1 -13q-18 -75 -44 -145q-58 -158 -139 -158h-2q-52 0 -114 72l-42 49q-63 74 -89 74q-3 0 -2 0q-62 -3 -108 -131q-9 -27 -25 -56q-6 -8 -12 -8h-2q-6 0 -11 5l-11 8q-11 8 -11 15v6q0 81 62.5 203.5t156.5 123.5h2q46 0 111 -78l49 -59q48 -58 72 -58v0
q42 0 80 101l22 58q7 19 13 19l21 -5l14 -6q9 -4 10 -17z" />
    <glyph glyph-name="mu" unicode="&#xb5;" horiz-adv-x="1138" 
d="M1083 242l-7 -20q-28 -81 -52 -133q-54 -119 -161 -120h-4q-61 0 -97 72q-26 52 -26 127q0 29 4 75q-31 -56 -68 -111q-107 -162 -241 -163q-105 -1 -154 100l-63 -432q-13 -72 -86 -72h-2q-70 2 -70 68v4q0 18 4 39l8 43l235 1121h171l-110 -531q-17 -81 -16 -122
q2 -108 96 -109h4q68 0 133 78q41 49 67 108q14 32 36 98l19 84l81 394h166l-116 -568q-7 -41 -7 -65q0 -8 0 -6q1 -40 13 -65q19 -40 47 -40h2q59 1 117 137l15 35z" />
    <glyph glyph-name="mu" unicode="&#x3bc;" horiz-adv-x="1138" 
d="M1083 242l-7 -20q-28 -81 -52 -133q-54 -119 -161 -120h-4q-61 0 -97 72q-26 52 -26 127q0 29 4 75q-31 -56 -68 -111q-107 -162 -241 -163q-105 -1 -154 100l-63 -432q-13 -72 -86 -72h-2q-70 2 -70 68v4q0 18 4 39l8 43l235 1121h171l-110 -531q-17 -81 -16 -122
q2 -108 96 -109h4q68 0 133 78q41 49 67 108q14 32 36 98l19 84l81 394h166l-116 -568q-7 -41 -7 -65q0 -8 0 -6q1 -40 13 -65q19 -40 47 -40h2q59 1 117 137l15 35z" />
    <glyph glyph-name="endash" unicode="&#x2013;" 
d="M929 431l-4 -32l-29 -3l-830 3l-5 32v75l5 32l28 3h830l5 -35v-75z" />
    <glyph glyph-name="emdash" unicode="&#x2014;" horiz-adv-x="1669" 
d="M1625 426l-3 -19q-2 -6 -4 -7l-6 -2q-12 -2 -20 -2h-1519q-10 0 -21 2l-5 2q-4 2 -4 6l-2 20v83q0 22 10 30l28 2l1535 -2q11 -7 11 -30v-83z" />
    <glyph glyph-name="quoteleft" unicode="&#x2018;" horiz-adv-x="569" 
d="M409 1387l-2 -7q-5 -7 -15 -10l-33 -15q-136 -62 -137 -148q-1 -52 77 -77q109 -34 108 -112q0 -45 -34 -73t-80 -28h-10q-82 0 -130 72q-43 62 -43 148v6q0 175 195 267l55 26q13 6 20 6l8 -3q5 -5 6 -8l12 -30z" />
    <glyph glyph-name="quoteright" unicode="&#x2019;" horiz-adv-x="569" 
d="M439 1226q1 -178 -195 -276l-56 -28q-10 -5 -17 -5q-14 0 -17 13l-11 29l-4 12l5 9q6 6 13 9l33 15q136 62 137 147q1 53 -77 78q-108 34 -108 111q0 46 35 74.5t82 27.5q82 -1 133 -69q46 -62 47 -147z" />
    <glyph glyph-name="quotesinglbase" unicode="&#x201a;" horiz-adv-x="569" 
d="M439 18q0 -173 -195 -269l-55 -27q-12 -6 -17 -6h-2q-6 0 -10 4l-7 10l-10 28l-3 13v2q1 5 5 8l12 7l33 15q137 62 137 147q0 3 0 2q-2 53 -77 76q-108 34 -108 110q0 46 35 75t82 28q83 -1 134 -70q45 -62 46 -149v-4z" />
    <glyph glyph-name="quotedblleft" unicode="&#x201c;" horiz-adv-x="872" 
d="M755 1390q-1 -13 -16 -20l-33 -15q-50 -23 -88 -52q-49 -38 -49 -90v-4q0 -56 77 -79q109 -33 108 -112q0 -44 -35 -72.5t-80 -28.5h-4q-83 1 -133 69q-45 62 -45 148v6q0 95 64 169q59 67 131 101l55 26q13 6 20 6q12 -1 16 -13l10 -28q2 -6 2 -11zM409 1388l-5 -9
l-12 -9l-33 -15q-136 -62 -137 -147q-1 -54 77 -78q109 -33 108 -112q0 -45 -34 -73t-80 -28h-4q-84 1 -134 69q-45 61 -45 148v6q0 85 58 162q54 70 137 108l56 26q10 5 19 6q12 -1 16 -13l10 -28z" />
    <glyph glyph-name="quotedblright" unicode="&#x201d;" horiz-adv-x="872" 
d="M756 1220q0 -138 -135 -234q-34 -24 -60 -37l-55 -27q-10 -5 -17 -5h-2q-14 0 -17 13l-10 28l-4 13q0 9 21 20q15 6 30 13q135 60 137 147q1 53 -77 78q-108 34 -108 113v2q0 44 36 71t81 27q82 -1 134 -71q46 -64 46 -149v-2zM409 1221q0 -176 -195 -272l-55 -27
q-10 -5 -17 -5h-2q-14 0 -17 13l-10 28q-2 4 -2 8v5q0 11 16 18l33 15q136 62 137 147q1 53 -77 78q-108 34 -108 111q0 46 35 74.5t82 27.5q83 -1 134 -70q45 -62 46 -149v-2z" />
    <glyph glyph-name="quotedblbase" unicode="&#x201e;" horiz-adv-x="872" 
d="M766 21q0 -50 -16 -92q-41 -106 -179 -181q-33 -18 -55 -27q-9 -5 -17 -5h-2h-2q-10 0 -15 13l-10 28l-2 10l-1 8l17 12l33 15q137 62 137 148q0 3 0 2q-2 53 -77 76q-108 34 -108 110q0 46 35 75t82 28q83 -1 134 -72q45 -63 46 -148zM419 22q1 -97 -64 -171
q-56 -65 -131 -102l-54 -27q-12 -6 -17 -6h-2q-6 0 -10 4l-7 10l-11 28l-3 12v2q0 5 5 9l12 7l34 15q136 60 136 145v2q-1 54 -77 78q-108 33 -108 110q0 47 35 75.5t83 27.5q83 -1 133 -71q45 -62 46 -148z" />
    <glyph glyph-name="dagger" unicode="&#x2020;" 
d="M937 918q0 -86 -101 -86h-8q-54 0 -128 24q-101 33 -180 38v-21q0 -14 1 -28q8 -104 91 -241q-74 -255 -86 -559q-6 -155 -6 -265v-154q0 -13 -1 -19l-5 -11q-5 -4 -16 -4h-4l-20 4l-5 11q-1 4 -1 11v126q0 148 -6 301q-12 300 -86 559q83 140 91 241q1 12 1 49
q-79 -5 -180 -38q-74 -24 -129 -24h-10q-98 0 -98 86v2q2 88 104 89q58 1 130 -21l112 -34q16 -5 71 -7q-3 39 -11 99l-23 96q-28 117 -28 171v4q0 123 85 125h2q88 0 89 -125q1 -56 -28 -175l-23 -96q-7 -28 -11 -99q54 2 70 7l112 34q70 21 130 21q104 -1 105 -91z" />
    <glyph glyph-name="daggerdbl" unicode="&#x2021;" 
d="M934 114q-2 -88 -102 -89q-57 0 -132 22q-113 34 -183 40q7 -76 12 -99l22 -97q28 -125 28 -175q0 -46 -20 -81q-24 -43 -66 -43h-4q-85 0 -86 124v4q0 67 27 183q31 130 35 184q-75 -7 -183 -40q-73 -22 -131 -22q-104 1 -103 92q0 85 103 85h2q55 0 131 -24
q108 -34 181 -38l-2 49q-5 125 -90 329q42 93 57 137q29 86 33 190l2 49q-80 -5 -181 -38q-74 -24 -129 -24h-10q-97 0 -97 86v2q2 88 104 89q58 1 130 -21l112 -34q16 -5 71 -7q-3 39 -11 99l-23 96q-28 117 -28 172v4q1 122 85 124h2q88 0 89 -125q1 -67 -28 -175
q-25 -93 -34 -195q55 2 71 7l112 34q70 21 130 21q105 -1 104 -93q0 -84 -100 -84h-8q-54 0 -128 24q-101 33 -181 38l2 -49q4 -94 35 -186q25 -73 55 -143q-84 -172 -90 -327l-2 -49q74 4 181 38q78 25 132 24q106 -1 104 -88z" />
    <glyph glyph-name="bullet" unicode="&#x2022;" horiz-adv-x="1479" 
d="M1167 693l-430 -431l-430 431l430 430z" />
    <glyph glyph-name="ellipsis" unicode="&#x2026;" horiz-adv-x="1669" 
d="M1502 90q0 -49 -34.5 -84.5t-83.5 -35.5h-2h-2q-51 0 -84 34.5t-33 85.5q0 50 34.5 84.5t84.5 34.5q49 0 84.5 -35t35.5 -84zM954 90q1 -50 -34 -85t-85 -35h-2q-50 0 -84 34.5t-34 84.5t34.5 84.5t84.5 35.5q49 0 84.5 -35t35.5 -84zM406 90q0 -50 -34.5 -85t-84.5 -35
h-2q-51 0 -84.5 34.5t-33.5 85.5q0 50 34.5 84.5t84.5 34.5q49 0 84.5 -35t35.5 -84z" />
    <glyph glyph-name="perthousand" unicode="&#x2030;" horiz-adv-x="2389" 
d="M2316 346q0 -147 -89 -251q-94 -109 -238 -109h-2q-145 0 -235 106q-86 101 -86 248v4q0 147 89 254q95 114 239 114h2q138 0 232 -116q88 -108 88 -250zM1587 347q0 -148 -89 -252q-94 -109 -239 -109h-2q-146 0 -236 108q-84 101 -84 250t88 255q94 113 240 113
q141 0 235 -114q87 -106 87 -251zM1191 1369q-1 -5 -5 -14l-605 -1332q-12 -26 -18 -32l-8 -5h-64l-19 2q-5 1 -6 5l-2 9v2q0 4 2 8l4 10l609 1336q5 11 15 21q6 5 13 5h58l12 -1l10 -4zM725 1019q0 -146 -89 -251q-94 -110 -238 -110h-2q-144 0 -235 108q-86 102 -86 248v4
q0 148 89 254q93 112 239 112q141 0 235 -114q87 -106 87 -251zM2152 345q1 54 -9 115q-30 188 -153 188h-2q-87 -2 -130 -110q-27 -68 -28 -176v-9q0 -58 13 -128q32 -174 150 -175q85 -1 130 113q28 70 29 182zM1423 345q1 55 -9 115q-30 188 -154 188q-88 0 -129 -106
q-29 -74 -30 -180v-10q0 -55 13 -127q31 -175 148 -175h2q85 0 130 113q28 70 29 182zM561 1020q0 52 -9 112q-29 188 -153 188h-2q-87 -2 -130 -110q-27 -68 -28 -176v-10q0 -58 13 -127q33 -175 147 -175h2q84 0 130 115q29 74 30 183z" />
    <glyph glyph-name="guilsinglleft" unicode="&#x2039;" horiz-adv-x="569" 
d="M478 142l-11 -16l-12 -13l-9 -6l-6 -1h-2q-7 0 -20 11l-320 280q-20 18 -20 36q0 3 0 2q1 26 54 73l279 246q20 18 27 19h1q6 0 17 -10l13 -12q9 -8 9 -15v-2l-11 -17l-218 -274z" />
    <glyph glyph-name="guilsinglright" unicode="&#x203a;" horiz-adv-x="569" 
d="M484 442q0 -20 -23 -42l-31 -29l-279 -247q-20 -18 -28 -18v0h-2q-2 0 -3 1l-12 8l-13 12q-9 8 -9 15v2l11 17l218 274l-229 301l11 16l12 13l9 7q2 1 6 1q8 0 22 -12l319 -280q21 -20 21 -39z" />
    <glyph glyph-name="trademark" unicode="&#x2122;" horiz-adv-x="1252" 
d="M1421 770h-285v40l34 6q39 7 49 32q6 15 6 62v402l-180 -542h-25l-158 525v-385q0 -79 55 -92l34 -8v-40h-225v40l25 6q64 15 64 88v2v339q0 40 -4 51q-7 19 -42 23l-43 5v40h225l116 -392l129 392h225v-40l-30 -3q-59 -6 -59 -80v-347q0 -38 4 -48q10 -24 54 -31l31 -5
v-40zM694 1141h-40l-19 60q-19 60 -45 86q-30 29 -91 37v-413q0 -47 5 -62q10 -29 48 -34l36 -5v-40h-285v40l29 4q60 8 60 97v413q-96 -11 -141 -132l-19 -51h-40l15 223h477z" />
    <glyph glyph-name="nonbreakingspace" unicode="&#xa0;" horiz-adv-x="528" 
 />
    <glyph glyph-name="ch225" unicode="!" horiz-adv-x="531" 
d="M385 1331l-11 -147l-85 -822q-2 -4 -5 -5l-9 -2h-26l-7 2l-5 6q-3 4 -3 15l-87 952q-3 65 28 99.5t89 34.5q130 -1 121 -133zM395 94q0 -50 -37 -87t-87 -37h-2h-2q-52 0 -88 36t-36 88v2v5q0 50 37 85.5t87 35.5h2h2q50 0 87 -37t37 -87v-2v-2z" />
    <glyph glyph-name="glyph262" unicode=" " horiz-adv-x="528" 
 />
    <glyph glyph-name="sfthyphen" unicode="&#xad;" horiz-adv-x="531" 
d="M481 422l-3 -17q-4 -9 -27 -9h-385q-24 0 -27 9l-3 17v94l3 17q1 4 4 6l28 2l403 -2l4 -6l3 -17v-94z" />
    <glyph glyph-name="periodcentered.0" unicode="&#xb7;" horiz-adv-x="531" 
d="M393 681q0 -51 -35 -89.5t-86 -38.5h-5h-2q-52 0 -89 36.5t-37 88.5v2v2q0 51 37 88t88 37h2q52 0 89.5 -36t37.5 -88v-2z" />
    <glyph glyph-name="periodcentered.0" unicode="&#x2219;" horiz-adv-x="531" 
d="M393 681q0 -51 -35 -89.5t-86 -38.5h-5h-2q-52 0 -89 36.5t-37 88.5v2v2q0 51 37 88t88 37h2q52 0 89.5 -36t37.5 -88v-2z" />
  </font>
</defs>
</svg>
